<svg width="138" height="57" viewBox="0 0 138 57" fill="none" xmlns="http://www.w3.org/2000/svg">
<g id="&#233;&#143;&#136;&#230;&#150;&#176;&#232;&#129;&#158;" clip-path="url(#clip0_506_3229)">
<path id="Vector" d="M76.4803 28.9527V29.2176C77.0131 29.5937 78.1745 30.1235 79.9753 31.5114C80.7052 32.0835 81.1634 32.4384 81.3393 32.5708L78.979 35.4473C78.3823 34.6951 77.5458 33.8157 76.4856 32.7986V39.6588H72.559V33.1959C71.1418 35.2037 69.6979 36.8035 68.2328 37.9954C67.4549 36.8511 66.6131 35.9241 65.7021 35.2143C65.6594 35.1931 65.6221 35.1719 65.6008 35.1454C67.9025 33.3708 69.1651 32.2848 71.1897 29.8374C71.3869 29.5301 71.5787 29.2335 71.7545 28.9421H66.5652V25.5677H72.5537V23.3057H66.4639V19.963H69.5914C69.4369 18.7499 69.1012 17.8653 68.5951 16.6098L70.6569 16.1118H66.8316V12.838H72.5537V9.76025H76.4803V12.838H82.1384V16.1118H78.6434L80.604 16.5091C79.9807 18.0295 79.4372 18.9459 78.9737 19.963H82.3995V23.3057H76.4749V25.5677H82.1011V28.9421H76.4749L76.4803 28.9527ZM76.9118 16.1224H71.7864C72.4045 17.3779 72.7934 18.2732 72.9532 19.5075L71.2217 19.9736H77.9081L75.6811 19.5075C76.2139 18.2043 76.6241 17.3143 76.9118 16.1224ZM97.8769 20.3021V24.005H94.6482V39.627H90.7216V24.005H87.2585C87.1945 31.6597 85.5482 36.083 82.1065 39.6588C81.6856 38.8853 80.9557 38.4774 79.9114 37.7252C79.645 37.5292 79.4106 37.3703 79.2135 37.2643C81.8294 34.5097 83.156 30.9128 83.3958 25.5041C83.4171 24.7996 83.4278 24.3758 83.4278 23.5388V12.1441L85.8253 12.8063C89.7093 11.858 92.5917 10.8674 94.4777 9.82912L97.7064 12.7745C95.0904 13.924 91.606 14.957 87.2585 15.884V20.2968H97.8715L97.8769 20.3021Z" fill="white"/>
<path id="Vector_2" d="M120.883 21.7746H111.729V39.6639H107.771V9.7124H120.883V21.7746ZM117.057 12.5571H111.735V14.4801H117.057V12.5571ZM111.735 18.9299H117.057V17.0652H111.735V18.9299ZM131.064 26.2986H129.002V38.7739H125.374V36.7874C120.227 37.1635 116.077 37.4496 113.839 37.6456L113.674 34.5996L116.034 34.4671V26.2933H114.004V23.5121H131.064V26.2933V26.2986ZM125.374 26.2986H119.561V27.3051H125.374V26.2986ZM125.374 29.5194H119.561V30.6212H125.374V29.5194ZM119.561 32.8408V34.2764C122.289 34.1228 124.532 34.0116 125.374 33.948V32.8461H119.561V32.8408ZM137.431 9.7177V35.071C137.431 36.8351 137.053 38.0058 136.301 38.5779C136.168 38.6892 136.035 38.7739 135.902 38.8428C134.884 39.3725 133.456 39.6374 130.883 39.6374C130.707 38.223 130.308 36.8934 129.684 35.6326C131.235 35.6961 132.028 35.712 132.806 35.6644C133.206 35.5743 133.414 35.3571 133.44 35.0022V21.8434H124.09V9.7177H137.436H137.431ZM133.435 12.5624H127.91V14.4854H133.435V12.5624ZM127.91 18.9987H133.435V17.0652H127.91V18.9987Z" fill="white"/>
<path id="Vector_3" d="M72.7827 48.7542L71.9036 51.6625C71.9036 51.6625 71.6958 51.6466 71.3282 51.6466C70.9605 51.6466 70.7474 51.6625 70.7474 51.6625L69.8417 48.1556C69.7564 47.806 69.7405 47.6206 69.7405 47.5623C69.7298 47.6206 69.7138 47.8325 69.6392 48.1397L68.7229 51.6625C68.7229 51.6625 68.5257 51.6466 68.1315 51.6466C67.7372 51.6466 67.5241 51.6625 67.5241 51.6625L66.7089 48.7595C66.352 47.4987 66.1975 47.0484 65.9204 46.8207C65.9204 46.8207 66.2134 46.8365 66.7409 46.8365C67.3376 46.8365 67.5987 46.8207 67.5987 46.8207C67.4868 46.9001 67.3589 47.0167 67.3589 47.3133C67.3589 47.5782 67.4282 47.8642 67.6253 48.6641L68.0782 50.5182C68.1794 50.9367 68.1901 51.1221 68.1901 51.1221C68.1901 51.1221 68.2007 50.9526 68.3073 50.5288L69.2823 46.8101C69.2823 46.8101 69.4794 46.826 69.831 46.826C70.1827 46.826 70.3585 46.8101 70.3585 46.8101L71.3228 50.5288C71.4081 50.8944 71.4241 51.0798 71.4241 51.1168C71.4241 51.0745 71.4507 50.8785 71.536 50.5235L72.0048 48.7277C72.2179 47.896 72.3138 47.5517 72.3138 47.3133C72.3138 47.0167 72.1859 46.8948 72.0741 46.8207C72.0741 46.8207 72.3405 46.8365 72.8626 46.8365C73.3847 46.8365 73.6085 46.8207 73.6085 46.8207C73.2835 47.112 73.0704 47.7742 72.7773 48.7542H72.7827Z" fill="white"/>
<path id="Vector_4" d="M80.4389 48.7542L79.5598 51.6625C79.5598 51.6625 79.352 51.6466 78.9844 51.6466C78.6168 51.6466 78.4037 51.6625 78.4037 51.6625L77.4979 48.1556C77.4127 47.806 77.3967 47.6206 77.3967 47.5623C77.3861 47.6206 77.3701 47.8325 77.2955 48.1397L76.3791 51.6625C76.3791 51.6625 76.182 51.6466 75.7877 51.6466C75.3934 51.6466 75.1803 51.6625 75.1803 51.6625L74.3652 48.7595C74.0082 47.4987 73.8537 47.0484 73.5767 46.8207C73.5767 46.8207 73.8697 46.8365 74.3971 46.8365C74.9939 46.8365 75.2549 46.8207 75.2549 46.8207C75.143 46.9001 75.0152 47.0167 75.0152 47.3133C75.0152 47.5782 75.0844 47.8642 75.2816 48.6641L75.7344 50.5182C75.8357 50.9367 75.8463 51.1221 75.8463 51.1221C75.8463 51.1221 75.857 50.9526 75.9689 50.5288L76.9438 46.8101C76.9438 46.8101 77.141 46.826 77.4926 46.826C77.8443 46.826 78.0254 46.8101 78.0254 46.8101L78.9897 50.5288C79.075 50.8944 79.091 51.0798 79.091 51.1168C79.091 51.0745 79.1176 50.8785 79.2029 50.5235L79.6717 48.7277C79.8848 47.896 79.9807 47.5517 79.9807 47.3133C79.9807 47.0167 79.8528 46.8948 79.741 46.8207C79.741 46.8207 80.0074 46.8365 80.5295 46.8365C81.0516 46.8365 81.2754 46.8207 81.2754 46.8207C80.9504 47.112 80.7373 47.7742 80.4442 48.7542H80.4389Z" fill="white"/>
<path id="Vector_5" d="M88.1003 48.7542L87.2212 51.6625C87.2212 51.6625 87.0134 51.6466 86.6458 51.6466C86.2782 51.6466 86.0651 51.6625 86.0651 51.6625L85.1593 48.1556C85.0741 47.806 85.0581 47.6206 85.0581 47.5623C85.0474 47.6206 85.0315 47.8325 84.9569 48.1397L84.0405 51.6625C84.0405 51.6625 83.8434 51.6466 83.4491 51.6466C83.0548 51.6466 82.8417 51.6625 82.8417 51.6625L82.0266 48.7595C81.6696 47.4987 81.5151 47.0484 81.238 46.8207C81.238 46.8207 81.5311 46.8365 82.0585 46.8365C82.6552 46.8365 82.9163 46.8207 82.9163 46.8207C82.8044 46.9001 82.6766 47.0167 82.6766 47.3133C82.6766 47.5782 82.7458 47.8642 82.943 48.6641L83.3958 50.5182C83.497 50.9367 83.5077 51.1221 83.5077 51.1221C83.5077 51.1221 83.5184 50.9526 83.6302 50.5288L84.6052 46.8101C84.6052 46.8101 84.8024 46.826 85.154 46.826C85.5056 46.826 85.6868 46.8101 85.6868 46.8101L86.6511 50.5288C86.7364 50.8944 86.7524 51.0798 86.7524 51.1168C86.7524 51.0745 86.779 50.8785 86.8642 50.5235L87.3331 48.7277C87.5462 47.896 87.6421 47.5517 87.6421 47.3133C87.6421 47.0167 87.5142 46.8948 87.4023 46.8207C87.4023 46.8207 87.6687 46.8365 88.1909 46.8365C88.713 46.8365 88.9368 46.8207 88.9368 46.8207C88.6118 47.112 88.3986 47.7742 88.1056 48.7542H88.1003Z" fill="white"/>
<path id="Vector_6" d="M89.8053 51.7577C89.3684 51.6995 89.1287 51.4611 89.1287 51.0955C89.1287 50.73 89.411 50.4758 89.8053 50.4175C90.2422 50.4863 90.4819 50.7247 90.4819 51.0903C90.4819 51.4558 90.1996 51.71 89.8053 51.763V51.7577Z" fill="white"/>
<path id="Vector_7" d="M94.2006 51.7264L94.2432 50.7252C94.0301 51.6416 93.3375 51.7635 92.842 51.7635C91.6273 51.7635 91.3342 50.9477 91.3342 50.3491C91.3342 48.9029 92.5756 48.8181 93.3428 48.8181C93.833 48.8181 94.1899 48.8711 94.1899 48.8711V48.495C94.1899 48.1719 94.1793 47.8593 94.0195 47.6421C93.8809 47.462 93.6145 47.3349 93.1457 47.3349C92.874 47.3349 92.2133 47.3508 91.8297 47.9494C91.8297 47.9494 91.8457 47.7534 91.8457 47.4461C91.8457 47.1389 91.8297 46.9693 91.8297 46.9693C91.8297 46.9693 92.2719 46.731 93.3375 46.731C94.2699 46.731 94.6641 46.9799 94.8506 47.2236C95.1223 47.5626 95.1223 48.0076 95.1223 48.548C95.1223 48.7863 95.1117 49.279 95.1117 50.1531C95.1117 50.7729 95.1649 51.0801 95.3141 51.3609L95.3887 51.5039L94.1899 51.7158L94.2006 51.7264ZM94.1899 49.4061C94.1899 49.4061 94.0035 49.3744 93.524 49.3744C93.0764 49.3744 92.3199 49.4008 92.3199 50.2696C92.3199 50.8735 92.7035 51.1384 93.199 51.1384C94.0035 51.1384 94.1899 50.6616 94.1899 50.6616V49.4114V49.4061Z" fill="white"/>
<path id="Vector_8" d="M98.7454 51.7581C97.8397 51.7581 97.472 51.2813 97.472 51.2813L96.593 51.7687C96.593 51.7687 96.6675 51.2495 96.6675 49.4219V47.2765C96.6675 45.8038 96.593 45.5654 96.4544 45.3217L96.3745 45.1787L97.6319 44.9668C97.6319 44.9668 97.6052 45.8832 97.6052 46.7255V46.948C97.6052 47.4513 97.5626 47.7161 97.5626 47.7161C97.7917 47.0593 98.2659 46.7467 99.0065 46.7467C99.4327 46.7467 100.903 46.8739 100.903 49.1517C100.903 51.1859 99.8163 51.7634 98.7401 51.7634L98.7454 51.7581ZM98.6335 47.4142C98.1434 47.4142 97.8716 47.536 97.6052 47.838V50.9158C97.6052 50.9158 97.877 51.1648 98.4843 51.1648C99.4913 51.1648 99.8856 50.4496 99.8856 49.2259C99.8856 48.2989 99.5872 47.4142 98.6282 47.4142H98.6335Z" fill="white"/>
<path id="Vector_9" d="M108.431 51.6469C107.882 51.6469 107.68 51.6628 107.68 51.6628L107.755 51.5197C107.893 51.2708 107.968 51.2125 107.968 49.3584C107.968 48.4208 107.936 47.997 107.781 47.7533C107.669 47.5732 107.456 47.3772 106.966 47.3772C106.22 47.3772 106.002 47.7692 105.948 47.9069C105.991 48.1877 106.007 48.5638 106.007 49.1147V49.3531C106.007 51.2072 106.082 51.2761 106.22 51.5197L106.295 51.6628C106.295 51.6628 106.071 51.6469 105.528 51.6469C104.984 51.6469 104.766 51.6628 104.766 51.6628L104.846 51.5197C104.984 51.2708 105.059 51.2125 105.059 49.3584C105.059 48.4208 105.043 47.997 104.888 47.7533C104.776 47.5732 104.579 47.3772 104.11 47.3772C103.247 47.3772 103.119 47.9122 103.119 47.9122V49.3478C103.119 51.2019 103.194 51.2708 103.332 51.5144L103.407 51.6575C103.407 51.6575 103.194 51.6416 102.656 51.6416C102.118 51.6416 101.883 51.6575 101.883 51.6575L101.958 51.5144C102.096 51.2655 102.171 51.2019 102.171 49.3478V49.0776C102.171 47.605 102.096 47.3666 101.958 47.1229L101.883 46.9799L103.109 46.768L103.077 47.8486C103.285 46.9375 103.924 46.7362 104.499 46.7362C105.235 46.7362 105.741 47.0275 105.911 47.7215C106.151 46.9057 106.79 46.7256 107.366 46.7256C108.026 46.7256 108.463 46.9481 108.682 47.3454C108.879 47.7003 108.911 48.1135 108.911 49.1041V49.3531C108.911 51.2072 108.985 51.2761 109.124 51.5197L109.204 51.6628C109.204 51.6628 108.98 51.6469 108.431 51.6469Z" fill="white"/>
<path id="Vector_10" d="M111.127 49.2843C111.127 50.1796 111.441 51.096 112.598 51.096C113.754 51.096 114.084 50.508 114.084 50.508C114.084 51.1278 113.594 51.7476 112.331 51.7476C111.069 51.7476 110.125 50.9477 110.125 49.2737C110.125 47.4938 111.1 46.731 112.283 46.731C114.116 46.731 114.276 48.246 114.276 49.2048V49.279H111.127V49.2843ZM112.257 47.2766C111.745 47.2766 111.154 47.4885 111.127 48.834L113.274 48.6698C113.274 48.1507 113.205 47.2766 112.257 47.2766Z" fill="white"/>
<path id="Vector_11" d="M118.416 51.7263L118.448 50.741C118.224 51.3978 117.771 51.7422 116.982 51.7422C116.546 51.7422 115.086 51.615 115.086 49.3372C115.086 47.3135 116.173 46.7361 117.243 46.7361C118.037 46.7361 118.384 47.0911 118.384 47.0911C118.384 45.8515 118.298 45.5495 118.171 45.3217L118.096 45.1787L119.353 44.9668C119.353 44.9668 119.327 45.9044 119.327 46.7679V49.4113C119.327 50.884 119.401 51.1224 119.54 51.3661L119.614 51.5091L118.416 51.721V51.7263ZM118.384 47.5678C118.384 47.5678 118.112 47.3294 117.505 47.3294C116.498 47.3294 116.103 48.034 116.103 49.2683C116.103 50.1953 116.412 51.08 117.361 51.08C117.856 51.08 118.123 50.9635 118.389 50.6456V47.5678H118.384Z" fill="white"/>
<path id="Vector_12" d="M121.458 51.6466C120.904 51.6466 120.685 51.6625 120.685 51.6625L120.76 51.5195C120.925 51.2228 120.973 51.0533 120.973 49.3528V49.0827C120.973 47.61 120.898 47.3716 120.76 47.1279L120.685 46.9849L121.996 46.773C121.996 46.773 121.921 47.2498 121.921 49.0774V49.3581C121.921 50.9315 121.953 51.1857 122.134 51.5248L122.209 51.6678C122.209 51.6678 121.996 51.6519 121.458 51.6519V51.6466ZM121.442 46.1267C121.085 46.1267 120.818 45.9625 120.818 45.6023C120.818 45.242 121.074 45.0566 121.453 45.0566C121.804 45.0566 122.071 45.2209 122.071 45.5758C122.071 45.9678 121.82 46.1267 121.447 46.1267H121.442Z" fill="white"/>
<path id="Vector_13" d="M126.008 51.7264L126.05 50.7252C125.837 51.6416 125.145 51.7635 124.649 51.7635C123.434 51.7635 123.141 50.9477 123.141 50.3491C123.141 48.9029 124.383 48.8181 125.15 48.8181C125.64 48.8181 125.997 48.8711 125.997 48.8711V48.495C125.997 48.1719 125.986 47.8593 125.827 47.6421C125.688 47.462 125.422 47.3349 124.953 47.3349C124.681 47.3349 124.02 47.3508 123.637 47.9494C123.637 47.9494 123.653 47.7534 123.653 47.4461C123.653 47.1389 123.637 46.9693 123.637 46.9693C123.637 46.9693 124.079 46.731 125.145 46.731C126.077 46.731 126.471 46.9799 126.658 47.2236C126.929 47.5626 126.929 48.0076 126.929 48.548C126.929 48.7863 126.919 49.279 126.919 50.1531C126.919 50.7729 126.972 51.0801 127.121 51.3609L127.196 51.5039L125.997 51.7158L126.008 51.7264ZM125.997 49.4061C125.997 49.4061 125.811 49.3744 125.331 49.3744C124.884 49.3744 124.127 49.4008 124.127 50.2696C124.127 50.8735 124.511 51.1384 125.006 51.1384C125.811 51.1384 125.997 50.6616 125.997 50.6616V49.4114V49.4061Z" fill="white"/>
<path id="Vector_14" d="M128.816 51.7577C128.379 51.6995 128.139 51.4611 128.139 51.0955C128.139 50.73 128.421 50.4758 128.816 50.4175C129.252 50.4863 129.492 50.7247 129.492 51.0903C129.492 51.4558 129.21 51.71 128.816 51.763V51.7577Z" fill="white"/>
<path id="Vector_15" d="M131.256 51.6466C130.702 51.6466 130.483 51.6625 130.483 51.6625L130.558 51.5195C130.723 51.2228 130.771 51.0533 130.771 49.3528V49.0827C130.771 47.61 130.696 47.3716 130.558 47.1279L130.483 46.9849L131.794 46.773C131.794 46.773 131.719 47.2498 131.719 49.0774V49.3581C131.719 50.9315 131.751 51.1857 131.932 51.5248L132.007 51.6678C132.007 51.6678 131.794 51.6519 131.256 51.6519V51.6466ZM131.24 46.1267C130.883 46.1267 130.616 45.9625 130.616 45.6023C130.616 45.242 130.872 45.0566 131.25 45.0566C131.602 45.0566 131.868 45.2209 131.868 45.5758C131.868 45.9678 131.618 46.1267 131.245 46.1267H131.24Z" fill="white"/>
<path id="Vector_16" d="M135.172 51.7684C133.685 51.7684 132.939 50.7407 132.939 49.3104C132.939 48.288 133.382 46.7358 135.268 46.7358C136.754 46.7358 137.5 47.7582 137.5 49.1832C137.5 50.2056 137.053 51.7684 135.172 51.7684ZM135.204 47.3397C134.33 47.3397 133.973 48.0019 133.973 49.2627C133.973 50.4387 134.287 51.1698 135.23 51.1698C136.104 51.1698 136.461 50.5076 136.461 49.2415C136.461 48.0655 136.136 47.345 135.204 47.345V47.3397Z" fill="white"/>
<path id="Vector_17" d="M4.47985 24.858C3.98436 24.1004 3.43559 23.3694 2.93477 22.6172C-0.0541425 18.1409 -0.325862 12.3084 2.3274 7.60963C5.38558 2.19569 9.35482 0.744203 15.1995 0.161489C28.2473 -1.13637 45.0567 2.96381 53.3894 13.7758C57.7902 19.4864 54.5189 25.144 52.6328 31.0506C50.8214 36.7453 56.2558 46.7468 52.4197 51.4403C48.3865 56.3775 42.9308 54.6929 37.8694 52.6534C31.5666 50.1107 24.7789 50.741 18.6892 53.7023C16.5261 54.7512 14.4642 56.0649 12.1413 56.6794C6.66959 58.1309 1.52822 53.056 0.888885 48.2778C0.196266 43.1022 2.44461 37.9902 4.42124 33.3179C5.39623 31.0188 6.47246 29.0164 5.39623 26.5266C5.14583 25.9386 4.82616 25.393 4.47985 24.858Z" fill="#FFBF00"/>
<path id="Vector_18" d="M46.3354 39.1502C46.3834 40.162 46.4367 41.1738 46.4846 42.1856C40.6933 42.4716 34.9019 42.3074 29.1638 41.6982C29.2757 40.6917 29.3823 39.6852 29.4888 38.6787C35.0671 39.272 40.6986 39.4309 46.3301 39.1502" fill="white"/>
<path id="Vector_19" d="M28.4765 20.5669C28.4765 21.5363 27.688 22.3204 26.713 22.3204C25.738 22.3204 24.9495 21.5363 24.9495 20.5669C24.9495 19.5975 25.738 18.8135 26.713 18.8135C27.688 18.8135 28.4765 19.5975 28.4765 20.5669Z" fill="white"/>
<path id="Vector_20" d="M29.2968 33.5402C29.0518 33.5402 28.8227 33.5985 28.6149 33.6992L27.203 32.6609C27.4427 32.3801 27.5973 32.0252 27.5973 31.6279C27.5973 31.0505 27.2882 30.5525 26.83 30.2717L28.78 27.586C28.8759 27.6071 28.9772 27.6177 29.0837 27.6177C29.9681 27.6177 30.6874 26.9026 30.6874 26.0232C30.6874 25.1439 29.9681 24.4287 29.0837 24.4287C28.3804 24.4287 27.7891 24.8843 27.5706 25.5147H25.4928C25.2796 24.8843 24.6883 24.4287 23.9797 24.4287C23.0952 24.4287 22.376 25.1439 22.376 26.0232C22.376 26.9026 23.0952 27.6177 23.9797 27.6177C24.6829 27.6177 25.2743 27.1622 25.4928 26.5318H27.5706C27.6399 26.7331 27.7464 26.9185 27.885 27.0721L25.7165 30.0598C24.9653 30.1923 24.3899 30.8386 24.3899 31.6279C24.3899 31.7073 24.4006 31.7815 24.4112 31.8557L24.4006 31.8716L24.4112 31.8821C24.5338 32.645 25.1891 33.2224 25.9882 33.2224C26.0628 33.2224 26.1321 33.2118 26.2067 33.2012L27.869 34.4249C27.7571 34.6421 27.6932 34.8805 27.6932 35.1401C27.6932 35.5162 27.8317 35.8552 28.0501 36.1307L26.1801 38.2973C25.9936 38.2231 25.7911 38.1808 25.5833 38.1808C24.6989 38.1808 23.9797 38.8959 23.9797 39.7753C23.9797 40.6546 24.6989 41.3698 25.5833 41.3698C26.4678 41.3698 27.187 40.6546 27.187 39.7753C27.187 39.4786 27.1018 39.2032 26.9579 38.9648L28.9239 36.6869C29.0464 36.7134 29.169 36.7346 29.2968 36.7346C30.1813 36.7346 30.9005 36.0194 30.9005 35.1401C30.9005 34.2607 30.1813 33.5455 29.2968 33.5455" fill="white"/>
<path id="Vector_21" d="M39.9792 31.6173V30.224H45.68V19.6557H39.9792V18.4214H45.03V15.4072H39.9792V12.7744H37.0276V15.4072H32.1633V18.4214H37.0276V19.6557H31.5559V30.224H37.0276V31.6173H32.3071V34.6633H37.0276V37.4709H39.9792V34.6633H44.8009V31.6173H39.9792ZM39.7235 22.1932H42.9628V23.7506H39.7235V22.1932ZM37.2833 27.6866H34.1399V26.1292H37.2833V27.6866ZM37.2833 23.7506H34.1399V22.1932H37.2833V23.7506ZM39.7235 26.1292H42.9628V27.6866H39.7235V26.1292Z" fill="#5643D0"/>
<path id="Vector_22" d="M21.1932 31.9459C21.1932 31.9459 19.5363 34.0595 17.9006 36.1467V29.5462H21.3477V26.373H17.9006V24.0263H20.8362V20.9167H20.6764L22.7809 18.5382C22.717 18.4322 22.6424 18.3157 22.5571 18.1885C21.4703 16.4563 19.9305 14.6658 17.9272 12.8223H15.0875C13.8728 16.0166 12.0666 18.6759 9.65845 20.7896C9.72238 20.8319 9.79697 20.8849 9.88222 20.9485C10.7134 21.5842 11.4006 22.3364 11.9547 23.1999L12.0826 23.0727V24.0263H14.7945V26.373H10.9638V29.5462H14.7945V35.421C14.6986 35.3415 14.6133 35.2726 14.5334 35.2038C14.4588 35.1455 14.3896 35.0819 14.315 35.0237C14.251 34.9707 14.1978 34.9283 14.1551 34.8912C13.4838 34.3562 12.7859 33.8423 12.0506 33.3656L10.5695 35.6699C11.747 36.5175 12.7486 37.3174 13.5851 38.0644C13.6383 38.112 13.7076 38.1756 13.7875 38.2551C13.9154 38.3822 14.0699 38.5358 14.2351 38.7054C13.1642 38.7265 11.9441 38.7424 10.6228 38.7477L10.9052 42.1857C15.8228 41.9156 18.8809 41.7514 20.0744 41.6878L21.8112 41.5712L21.8912 39.5582V39.447L21.9391 38.414L19.9358 38.4882L22.685 34.8859L21.1932 31.9406V31.9459ZM14.1658 20.9061C15.1248 19.7195 16.1158 18.2627 17.1334 16.5251C18.199 17.7965 19.2059 19.2533 20.1649 20.9061H14.1605H14.1658Z" fill="#5643D0"/>
</g>
<defs>
<clipPath id="clip0_506_3229">
<rect width="137" height="57" fill="white" transform="translate(0.5)"/>
</clipPath>
</defs>
</svg>
