<svg xmlns="http://www.w3.org/2000/svg" viewBox="0 0 4533.44 937.23"><defs><style>.cls-1{opacity:0.8;}</style></defs><g id="图层_2" data-name="图层 2"><g id="图层_1-2" data-name="图层 1"><path d="M3398.31,681.88c-107.93,0-195.75-87.82-195.75-195.76s87.82-195.74,195.75-195.74,195.75,87.81,195.75,195.74S3506.25,681.88,3398.31,681.88Zm0-335.84c-77.24,0-140.09,62.84-140.09,140.08s62.85,140.1,140.09,140.1,140.09-62.85,140.09-140.1S3475.56,346,3398.31,346Z"/><path d="M3398.32,304.89c-99.94,0-181.24,81.3-181.24,181.23s81.3,181.24,181.24,181.24,181.23-81.3,181.23-181.24S3498.25,304.89,3398.32,304.89Zm0,335.84c-85.25,0-154.61-69.36-154.61-154.61s69.36-154.6,154.61-154.6,154.6,69.35,154.6,154.6S3483.56,640.73,3398.32,640.73Z"/><path d="M4206.66,701.26c-108.6,0-196.95-95.69-196.95-213.31s88.35-213.3,196.95-213.3,197,95.68,197,213.3S4315.27,701.26,4206.66,701.26Zm0-366c-77.72,0-140.95,68.48-140.95,152.65s63.23,152.66,140.95,152.66,141-68.49,141-152.66S4284.38,335.3,4206.66,335.3Z"/><rect x="4358.82" y="288.39" width="57.4" height="412.87"/><path d="M2914.05,701.26c-108.6,0-197-95.69-197-213.31s88.35-213.3,197-213.3,197,95.68,197,213.3S3022.65,701.26,2914.05,701.26Zm0-366c-77.72,0-141,68.48-141,152.65s63.23,152.66,141,152.66S3055,572.12,3055,488,2991.77,335.3,2914.05,335.3Z"/><rect x="3066.2" y="288.39" width="57.4" height="415.93"/><path d="M3080.2,689.6h29.41V303.12H3080.2Z"/><rect x="3182.69" y="288.39" width="61.99" height="530.89"/><path d="M3196.34,805.6H3231V302.07h-34.68Z"/><polygon class="cls-1" points="483.69 199.87 496.06 310.59 315.89 705.08 243.13 704.88 483.69 199.87"/><polygon class="cls-1" points="331.33 247.45 358.56 321.85 198.83 673.98 127.71 673.98 331.33 247.45"/><polygon points="552.89 394.11 520.96 460.71 634.23 703.58 701.1 705.08 552.89 394.11"/><path d="M866.94,937.23h-10c-47.59,0-92.62-.78-149.58-1.53-54.19-.71-105.37-1.39-144.64-1.39H302.58c-92.88,0-134-9.47-200.09-75.55S0,719,0,626.1V0H562.72C655.6,0,697.35,18.84,763.88,75.86c71,60.82,102.49,135.21,102.49,228.09V626.1c0,44.24.14,102.27.29,158.39.14,54.34.28,96.67.28,138.18ZM36.56,37.93V626.1c0,146.69,119.34,266,266,266H562.72c39.81,0,91.27.67,145.74,1.39,41,.54,82.94,1.1,120.82,1.37,0-33.93-.15-72.5-.25-110.19-.14-56.17-.29-114.25-.29-158.6V304c0-146.68-119.34-266-266-266Z"/><path d="M3967,649.26l10.81,47.26q-31.57,6.33-56.53,6.34c-27.14,0-32.59,1.13-47.55-7.05s-25.49-18.93-31.58-32.25-9.13-41.34-9.13-84V337.84h-70.51V294.08H3833V178.46l58.74-42.74V294.08H3967v43.76h-75.24V583.48c0,20.29,1.33,43.78,4,49.58a30.1,30.1,0,0,0,12.87,13.85q8.94,5.15,25.58,5.14Q3946.64,652.05,3967,649.26Z"/><path d="M4475.3,701.26V121.39h58.14V701.26Z"/><rect x="3653.14" y="139.41" width="50.28" height="62.55"/><rect x="3653.14" y="269.34" width="50.28" height="433.57"/><path d="M1958,604.46c-47,43.63-98.69,65.75-153.61,65.75-122,0-204-80.62-204-200.61,0-121.17,82.19-202.58,204.53-202.58,50,0,94,19.47,138.32,61.26l5.61,5.28,34.58-40.92-4.87-4.75c-32.54-31.71-86-73.87-174.44-73.87-155.36,0-263.86,105.1-263.86,255.58,0,76.85,26,141.49,75.11,186.93,47.16,43.62,112,66.68,187.42,66.68,69.51,0,132.73-26.23,187.89-78l4.78-4.49L1963.88,599Z"/><path d="M2672.6,599l-5.92,5.5c-47,43.63-98.7,65.75-153.62,65.75-122,0-204-80.62-204-200.61,0-121.17,82.2-202.58,204.54-202.58,50,0,94,19.47,138.32,61.26l5.61,5.28,34.58-40.92-4.87-4.75c-32.54-31.71-86-73.87-174.44-73.87-155.36,0-263.86,105.1-263.86,255.58,0,76.85,26,141.49,75.11,186.93,47.16,43.62,112,66.68,187.41,66.68,69.52,0,132.73-26.23,187.9-78l4.78-4.49Z"/><polygon points="1509.25 743.75 1562.86 743.75 1360.91 323.39 1333.68 378.42 1509.25 743.75"/><polygon points="1036.67 623.18 1286.69 623.18 1262.86 576.8 1064.77 576.8 1036.67 623.18"/><polygon points="1195.3 557.34 1347.3 248.51 1320.07 193.48 1141.46 557.34 1195.3 557.34"/><polygon points="1131.9 576.8 1049.95 743.75 1103.55 743.75 1185.72 576.8 1131.9 576.8"/></g></g></svg>