<svg width="200" height="58" viewBox="0 0 200 58" fill="none" xmlns="http://www.w3.org/2000/svg">
<g clip-path="url(#clip0_458_640)">
<path d="M61.6171 22.9275C62.1959 23.2158 62.6581 23.6157 62.9989 24.1364C63.3397 24.6572 63.5077 25.2338 63.5077 25.8708C63.5077 27.5586 62.7375 28.6234 61.2016 29.0651V29.1441C62.9522 29.544 63.8252 30.6878 63.8252 32.5756C63.8252 33.2916 63.6478 33.9286 63.293 34.482C62.9382 35.0353 62.4527 35.463 61.8411 35.7699C61.2249 36.0768 60.5527 36.2302 59.8198 36.2302H50.5251V22.4998H59.7031C60.3986 22.4998 61.0335 22.6439 61.6171 22.9275ZM54.9554 27.8469H57.9991C58.2932 27.8469 58.536 27.7446 58.732 27.5354C58.9234 27.3308 59.0215 27.075 59.0215 26.7682V26.5682C59.0215 26.2753 58.9234 26.0242 58.7227 25.8196C58.522 25.615 58.2839 25.5081 58.0038 25.5081H54.96V27.8422L54.9554 27.8469ZM54.9554 33.0359H58.3212C58.6153 33.0359 58.8581 32.9336 59.0542 32.7244C59.2456 32.5198 59.3436 32.2641 59.3436 31.9572V31.7573C59.3436 31.4504 59.2456 31.1946 59.0542 30.9901C58.8628 30.7855 58.6153 30.6832 58.3212 30.6832H54.9554V33.0359Z" fill="white"/>
<path d="M77.5314 34.9934C76.341 35.9792 74.651 36.472 72.4616 36.472C70.2722 36.472 68.5776 35.9792 67.3825 34.9934C66.1874 34.0077 65.5898 32.5802 65.5898 30.7018V22.4998H70.0154V30.6413C70.0154 31.4132 70.2208 32.0269 70.6363 32.4873C71.0518 32.9476 71.6493 33.1754 72.4383 33.1754C73.2272 33.1754 73.8294 32.9429 74.2496 32.478C74.6697 32.013 74.8798 31.3992 74.8798 30.6413V22.4998H79.3054V30.7018C79.3054 32.5756 78.7125 34.0077 77.5221 34.9934H77.5314Z" fill="white"/>
<path d="M82.4797 36.2302V22.4998H86.9053V36.2302H82.4797Z" fill="white"/>
<path d="M90.0752 22.4998H94.5008V32.7151H101.573V36.2256H90.0752V22.4951V22.4998Z" fill="white"/>
<path d="M116.638 29.3627C116.638 33.938 114.229 36.2256 109.407 36.2256H103.436V22.4951H109.407C114.229 22.4951 116.638 24.7828 116.638 29.358V29.3627ZM107.861 32.9336H109.323C111.181 32.9336 112.11 31.9433 112.11 29.9625V28.7629C112.11 26.7821 111.181 25.7917 109.323 25.7917H107.861V32.9336Z" fill="white"/>
<path d="M119.023 22.4998H130.942V25.7917H123.449V27.6888H129.859V30.8413H123.449V32.9383H131.082V36.2302H119.019V22.4998H119.023Z" fill="white"/>
<path d="M145.89 28.986C145.437 29.6649 144.774 30.1624 143.905 30.4832L146.973 36.2302H142.005L139.559 31.2225H137.916V36.2302H133.49V22.4998H141.926C142.916 22.4998 143.761 22.6904 144.461 23.067C145.161 23.4436 145.689 23.9598 146.044 24.6014C146.398 25.2477 146.576 25.9498 146.576 26.7077C146.576 27.5446 146.347 28.3025 145.894 28.9814L145.89 28.986ZM141.702 25.9917C141.464 25.7499 141.17 25.6336 140.82 25.6336H137.916V28.1677H140.82C141.165 28.1677 141.459 28.0468 141.702 27.8004C141.945 27.5539 142.061 27.2517 142.061 26.8937C142.061 26.5357 141.94 26.2334 141.702 25.9963V25.9917Z" fill="white"/>
<path d="M168.951 29.3627C168.951 33.938 166.542 36.2256 161.72 36.2256H155.749V22.4951H161.72C166.542 22.4951 168.951 24.7828 168.951 29.358V29.3627ZM160.175 32.9336H161.636C163.494 32.9336 164.423 31.9433 164.423 29.9625V28.7629C164.423 26.7821 163.494 25.7917 161.636 25.7917H160.175V32.9336Z" fill="white"/>
<path d="M179.707 36.2302L179.128 34.296H174.301L173.722 36.2302H169.194L174.222 22.4998H179.371L184.399 36.2302H179.712H179.707ZM175.221 31.2225H178.204L176.761 26.3357H176.682L175.221 31.2225Z" fill="white"/>
<path d="M198.058 24.0761C199.351 25.285 200 27.0472 200 29.3627C200 31.6783 199.351 33.4405 198.058 34.6494C196.76 35.8583 194.926 36.4674 192.549 36.4674C190.173 36.4674 188.339 35.8676 187.05 34.6634C185.762 33.4591 185.117 31.6922 185.117 29.3674C185.117 27.0425 185.762 25.2757 187.05 24.0714C188.339 22.8671 190.173 22.2673 192.549 22.2673C194.926 22.2673 196.765 22.8718 198.058 24.0854V24.0761ZM190.383 26.4102C189.888 26.9821 189.641 27.7539 189.641 28.7257V30.0044C189.641 30.9762 189.888 31.748 190.383 32.3199C190.878 32.8918 191.597 33.1801 192.545 33.1801C193.492 33.1801 194.216 32.8918 194.72 32.3199C195.224 31.748 195.472 30.9762 195.472 30.0044V28.7257C195.472 27.7539 195.22 26.9821 194.72 26.4102C194.221 25.8383 193.492 25.55 192.545 25.55C191.597 25.55 190.873 25.8383 190.383 26.4102Z" fill="white"/>
<path d="M5.36856 14.8743V26.3636L0 31.7061V41.2147L5.36856 45.6458V45.6691L20.3025 57.9954V0L5.36856 14.8743ZM15.004 46.864L10.8072 43.3954V31.7526H15.004V46.864ZM15.004 26.4148H10.8072V16.5389L15.004 12.3588V26.4148Z" fill="url(#paint0_linear_458_640)"/>
<path d="M21.9971 0V58L35.2037 47.0965V13.1539L21.9971 0ZM31.5204 24.4573L31.1703 25.3593L31.4084 26.6798L31.273 27.1401L31.5765 31.2504L31.4597 32.2594L31.5858 33.473L31.4971 34.9888L31.0349 35.4584L31.1843 36.4255L30.6241 37.123L30.5681 40.4754L30.8529 42.1772L30.7782 43.1908L30.3674 43.2652L29.8865 40.945L27.6364 38.6434L27.445 37.5647L26.9408 36.6673L26.6 35.0399L26.2546 35.1004L26.0818 34.1332L26.1565 32.8825L25.6524 30.7018L25.7877 30.0694L25.7084 29.6138L26.0072 28.8559L26.1705 27.3401L26.4833 26.1776L26.6934 24.5224L26.8148 23.0949L27.2396 22.0255L27.473 21.5931L27.6691 19.338L28.9342 18.4917L28.9155 17.5107L29.4057 17.1945L29.7418 17.5525L30.3814 18.3383L31.0676 18.3802L31.4971 18.9521L31.2263 19.245L30.9789 20.7747L31.6325 22.4114L31.4784 23.081L31.5204 24.448V24.4573Z" fill="url(#paint1_linear_458_640)"/>
</g>
<defs>
<linearGradient id="paint0_linear_458_640" x1="0.326783" y1="10.8244" x2="35.8128" y2="46.4527" gradientUnits="userSpaceOnUse">
<stop stop-color="#A24C99"/>
<stop offset="1" stop-color="#007FFF"/>
</linearGradient>
<linearGradient id="paint1_linear_458_640" x1="2.04002" y1="9.12266" x2="37.5214" y2="44.7509" gradientUnits="userSpaceOnUse">
<stop stop-color="#A24C99"/>
<stop offset="1" stop-color="#007FFF"/>
</linearGradient>
<clipPath id="clip0_458_640">
<rect width="200" height="58" fill="white"/>
</clipPath>
</defs>
</svg>
