<svg width="144" height="54" viewBox="0 0 144 54" fill="none" xmlns="http://www.w3.org/2000/svg">
<g clip-path="url(#clip0_461_665)">
<path d="M76.6063 0H61.6248V36.4955H69.9121V8.22846H76.6005C78.3692 8.22846 79.8041 9.65644 79.8041 11.4122C79.8041 13.1679 78.3692 14.5959 76.6005 14.5959H74.8786L75.3706 22.8243H76.6005C82.9375 22.8243 88.0914 17.7093 88.0914 11.418C88.0914 5.12669 82.9433 0 76.6063 0Z" fill="url(#paint0_radial_461_665)"/>
<path d="M35.8843 28.1442H49.0151V19.9216H39.6385L35.8843 28.1442Z" fill="url(#paint1_linear_461_665)"/>
<path d="M99.3363 0H89.7781L93.4737 8.22846H99.3363C101.105 8.22846 102.54 9.65644 102.54 11.4122C102.54 13.1679 101.105 14.5959 99.3363 14.5959H93.4737L97.7784 22.8243H99.3363C105.673 22.8243 110.827 17.7093 110.827 11.418C110.827 5.12669 105.673 0 99.3363 0Z" fill="url(#paint2_linear_461_665)"/>
<path d="M93.4737 14.5901L112.649 36.4956H101.738L89.7781 22.8127L93.4737 14.5901Z" fill="url(#paint3_linear_461_665)"/>
<path d="M74.8846 14.5901L94.0596 36.4956H83.1485L71.189 22.8127L74.8846 14.5901Z" fill="url(#paint4_linear_461_665)"/>
<path d="M18.3843 28.2729C12.8849 28.2729 8.41615 23.708 8.41615 18.2478C8.41615 12.7875 12.8907 8.22846 18.3843 8.22846H32.1184L35.8785 0H18.3843C8.24631 0 0 8.18749 0 18.2478C0 28.308 8.24631 36.4955 18.3843 36.4955H19.1867L22.9468 28.267H18.3785L18.3843 28.2729Z" fill="url(#paint5_linear_461_665)"/>
<path d="M121.574 0L132.251 22.7951L126.564 30.4734L112.649 0H121.574Z" fill="url(#paint6_linear_461_665)"/>
<path d="M135.074 0L118.459 36.4955H127.291L144 0H135.074Z" fill="url(#paint7_linear_461_665)"/>
<path d="M47.4924 8.22846V36.4955H55.7797V8.22846V0H50.1982H43.2052H42.2623L25.5706 36.4955H34.5138L47.428 8.22846H47.4924Z" fill="url(#paint8_linear_461_665)"/>
<path d="M17.4648 13.0977L26.4491 18.2478L17.4648 23.3979V13.0977Z" fill="white"/>
<path d="M37.9166 52.8939C36.8975 53.21 35.7144 53.5084 34.3732 53.7835L34.2385 53.2685C34.8593 53.1514 35.3864 53.0344 35.8257 52.929V49.5288H34.4376V49.0313H35.8257V47.937H34.953V47.5039C34.8828 47.5975 34.7539 47.7321 34.5723 47.9194L34.2092 47.5331C34.9238 46.7782 35.5094 45.8769 35.9545 44.8176L36.4699 44.9405C36.4524 45.0049 36.4114 45.0985 36.3587 45.2214C36.9326 45.713 37.448 46.2398 37.899 46.8016L37.489 47.1586C37.1435 46.6728 36.6866 46.1812 36.1185 45.6896C35.7554 46.3685 35.3864 46.9362 35.0292 47.4044H37.1845V47.937H36.3528V49.0313H37.776V49.5288H36.3528V52.7944C36.8623 52.6774 37.3719 52.5369 37.8697 52.3789L37.9224 52.8939H37.9166ZM35.3981 52.3672L34.9003 52.5135C34.8418 51.8288 34.7012 51.1148 34.4728 50.3715L34.9179 50.196C35.1346 50.8105 35.2927 51.5362 35.3981 52.3672ZM37.6354 50.3423C37.5359 50.9977 37.3894 51.624 37.2079 52.2092L36.7511 52.0863C36.9209 51.5303 37.0556 50.9158 37.1493 50.2428L37.6354 50.3423ZM40.3295 48.1476C39.7263 48.4637 39.0469 48.7797 38.2797 49.0899L38.063 48.6861C38.1215 48.5749 38.1567 48.4637 38.1567 48.3583V44.8761H38.6896V46.1286H40.1421V46.6319H38.6896V48.3876C39.1992 48.171 39.7087 47.9252 40.2183 47.656L40.3295 48.1476ZM42.8597 53.9415H42.2974V53.3797H38.8888V53.9415H38.3441V49.6751H39.5857C39.8083 49.3532 39.9781 49.0548 40.0836 48.7738L40.5931 48.9436C40.4935 49.1835 40.3647 49.4293 40.2124 49.6751H42.8655V53.9415H42.8597ZM42.2974 51.2494V50.1784H38.8888V51.2494H42.2974ZM42.2974 52.8588V51.7469H38.8888V52.8588H42.2974ZM43.3809 47.5682C43.3399 47.9311 43.2696 48.2003 43.1642 48.3759C43.0588 48.5515 42.9241 48.6626 42.7542 48.7095C42.5844 48.7563 42.2564 48.7797 41.7703 48.7797C41.4306 48.7797 41.208 48.768 41.0968 48.7387C40.9855 48.7153 40.8918 48.6392 40.8039 48.5163C40.7161 48.3993 40.6751 48.2354 40.6751 48.0306V44.8644H41.2139V46.1169H43.1408V46.6202H41.2139V48.054C41.2139 48.1535 41.2432 48.2237 41.3076 48.253C41.372 48.2822 41.5712 48.2998 41.8991 48.2998C42.11 48.2998 42.2857 48.2998 42.4087 48.2822C42.5375 48.2705 42.6371 48.1886 42.7074 48.0481C42.7777 47.9018 42.8304 47.6853 42.8538 47.3927L43.3692 47.5682H43.3809Z" fill="white"/>
<path d="M65.5255 50.0263L65.3264 50.4419C64.9457 50.3833 64.5123 50.278 64.0262 50.12V53.9767H63.5166V53.5026H58.3568V53.9943H57.8473V50.1668C57.4022 50.278 57.0215 50.3541 56.7052 50.4067L56.4475 49.9795C58.4505 49.6927 59.9616 49.1309 60.9865 48.2823L61.5077 48.4403C61.4667 48.4871 61.3965 48.5515 61.2969 48.6393C62.562 49.2948 63.9676 49.7571 65.5196 50.0205L65.5255 50.0263ZM59.8151 48.3467C59.0596 48.7505 58.105 49.0607 56.9688 49.2714L56.7052 48.8968C57.7536 48.7388 58.6497 48.4754 59.3876 48.1009L59.8151 48.3467ZM65.0569 48.019H64.5415V46.9187H57.3377V48.019H56.8165V46.4798H60.6351V44.8821H61.1856V45.3971H64.4888V45.836H61.1856V46.4798H65.0687V48.019H65.0569ZM63.7977 50.079C62.7962 49.8098 61.8299 49.4294 60.8986 48.9202C60.108 49.4645 59.2236 49.8449 58.2572 50.079H63.7977ZM63.5166 51.1032V50.5062H58.3568V51.1032H63.5166ZM63.5166 52.1156V51.5128H58.3568V52.1156H63.5166ZM63.5166 53.1047V52.5136H58.3568V53.1047H63.5166ZM63.3819 47.8492H58.4388V47.4337H63.3819V47.8492ZM65.1389 48.9319L64.9398 49.2948C64.1609 48.967 63.2296 48.6803 62.152 48.452L62.4448 48.095C63.3585 48.2765 64.2604 48.5574 65.1389 48.9261V48.9319Z" fill="white"/>
<path d="M81.7837 47.2405C81.4967 47.7263 81.1629 48.2003 80.7705 48.6685V53.9825H80.2317V49.3006C79.8569 49.6985 79.4059 50.1141 78.8846 50.5471L78.6035 50.1199C79.8979 48.9845 80.8056 47.9194 81.3328 46.9362L81.7896 47.2347L81.7837 47.2405ZM81.5436 45.1746C80.9228 45.9472 80.056 46.667 78.9373 47.3342L78.6211 46.907C79.7573 46.2047 80.5831 45.5141 81.0985 44.8352L81.5436 45.1688V45.1746ZM87.6698 48.4988H86.0299V53.1163C86.0299 53.3446 85.9713 53.5202 85.8542 53.6548C85.737 53.7835 85.6082 53.8654 85.4559 53.8947C85.3095 53.924 85.0108 53.9357 84.5598 53.9357C84.1733 53.9357 83.8629 53.9298 83.6227 53.9123L83.4061 53.3563C83.6989 53.368 84.0093 53.3797 84.3373 53.3797C84.9405 53.3797 85.2802 53.368 85.3446 53.3446C85.4149 53.3212 85.4442 53.2626 85.4442 53.1632V48.5047H81.7837V47.9545H87.6698V48.5047V48.4988ZM87.1602 45.8711H82.2171V45.321H87.1602V45.8711Z" fill="white"/>
<path d="M104.52 46.7547L104.092 47.1117C103.758 46.6611 103.307 46.1988 102.733 45.7189C102.37 46.3217 101.972 46.8776 101.538 47.3926H104.004V47.8784H102.956V49.0021H104.297V49.4878H102.956V52.7125C103.079 52.6891 103.471 52.5779 104.145 52.3672L104.168 52.8939C102.874 53.3036 101.802 53.5962 100.965 53.7659L100.789 53.2509C101.234 53.169 101.79 53.0343 102.464 52.8529V49.4878H101.035V49.0021H102.464V47.8784H101.474V47.4863C101.38 47.5858 101.257 47.697 101.111 47.814L100.754 47.4161C101.492 46.6904 102.124 45.8125 102.651 44.7883L103.096 45.0458C103.091 45.081 103.05 45.157 102.979 45.2741C103.577 45.754 104.092 46.2456 104.525 46.7489L104.52 46.7547ZM101.966 52.2852L101.445 52.4316C101.38 51.7 101.24 51.0153 101.029 50.3774L101.497 50.2018C101.685 50.8104 101.843 51.5069 101.972 52.2911L101.966 52.2852ZM104.274 50.3247C104.156 51.0211 104.01 51.6181 103.834 52.1097L103.336 51.9517C103.541 51.4425 103.694 50.8514 103.782 50.1842L104.268 50.3247H104.274ZM109.375 53.2509C109.375 53.4967 109.299 53.6664 109.146 53.7717C108.994 53.8771 108.678 53.9356 108.203 53.9356C108.022 53.9356 107.811 53.9298 107.571 53.9122L107.401 53.3738C107.706 53.3913 108.01 53.3972 108.321 53.3972C108.561 53.3972 108.707 53.3796 108.76 53.3504C108.813 53.3211 108.842 53.2743 108.842 53.2158V50.9509C107.881 51.4425 106.786 51.9517 105.568 52.4784L105.287 52.1038C105.158 52.7183 104.9 53.3328 104.514 53.9415L104.069 53.6137C104.643 52.7651 104.93 51.5947 104.93 50.1082V47.9545H106.856V44.841H107.389V47.9545H109.375V53.245V53.2509ZM106.025 47.182L105.544 47.4219C105.398 46.8952 105.076 46.2105 104.578 45.3794L105.058 45.1102C105.521 45.8886 105.843 46.5792 106.025 47.1878V47.182ZM108.842 50.4008V48.4753H105.474V49.3415C106.558 49.3766 107.495 49.4995 108.291 49.7043L108.116 50.2193C107.325 50.0145 106.441 49.8916 105.474 49.8506C105.474 50.5412 105.416 51.2552 105.304 51.9985C106.692 51.4659 107.87 50.9333 108.842 50.4008ZM109.791 45.3502C109.392 46.1988 109 46.8835 108.613 47.3926L108.139 47.1C108.561 46.5558 108.953 45.8769 109.328 45.0634L109.791 45.3502Z" fill="white"/>
<path d="M21.1253 49.7102H0.36901C0.20502 49.7102 0.0761719 49.5815 0.0761719 49.4176C0.0761719 49.2538 0.20502 49.125 0.36901 49.125H21.1253C21.2893 49.125 21.4182 49.2538 21.4182 49.4176C21.4182 49.5815 21.2893 49.7102 21.1253 49.7102Z" fill="white"/>
<path d="M143.613 49.7102H122.857C122.693 49.7102 122.564 49.5815 122.564 49.4176C122.564 49.2538 122.693 49.125 122.857 49.125H143.613C143.777 49.125 143.906 49.2538 143.906 49.4176C143.906 49.5815 143.777 49.7102 143.613 49.7102Z" fill="white"/>
</g>
<defs>
<radialGradient id="paint0_radial_461_665" cx="0" cy="0" r="1" gradientUnits="userSpaceOnUse" gradientTransform="translate(76.2694 8.34684) rotate(71.8173) scale(44.7493 28.9462)">
<stop stop-color="#C72568"/>
<stop offset="0.41" stop-color="#B41F6D"/>
<stop offset="0.8" stop-color="#D92961"/>
<stop offset="1" stop-color="#E72E5D"/>
</radialGradient>
<linearGradient id="paint1_linear_461_665" x1="31.2282" y1="24.0359" x2="52.4355" y2="24.0359" gradientUnits="userSpaceOnUse">
<stop stop-color="#E72E5D"/>
<stop offset="0.22" stop-color="#CD2665"/>
<stop offset="0.54" stop-color="#B01D6E"/>
<stop offset="0.81" stop-color="#9E1774"/>
<stop offset="1" stop-color="#981677"/>
</linearGradient>
<linearGradient id="paint2_linear_461_665" x1="110.318" y1="-2.12442" x2="82.0919" y2="26.5265" gradientUnits="userSpaceOnUse">
<stop stop-color="#E72E5D"/>
<stop offset="1" stop-color="#84107D"/>
</linearGradient>
<linearGradient id="paint3_linear_461_665" x1="96.3084" y1="16.5858" x2="114.207" y2="64.3559" gradientUnits="userSpaceOnUse">
<stop stop-color="#E72E5D"/>
<stop offset="1" stop-color="#84107D"/>
</linearGradient>
<linearGradient id="paint4_linear_461_665" x1="77.7192" y1="16.5858" x2="95.6234" y2="64.3559" gradientUnits="userSpaceOnUse">
<stop stop-color="#E72E5D"/>
<stop offset="1" stop-color="#84107D"/>
</linearGradient>
<linearGradient id="paint5_linear_461_665" x1="3.9416" y1="32.9958" x2="47.2313" y2="-31.3285" gradientUnits="userSpaceOnUse">
<stop stop-color="#E72E5D"/>
<stop offset="1" stop-color="#84107D"/>
</linearGradient>
<linearGradient id="paint6_linear_461_665" x1="121.598" y1="0.766294" x2="123.854" y2="29.8622" gradientUnits="userSpaceOnUse">
<stop stop-color="#E72E5D"/>
<stop offset="1" stop-color="#84107D"/>
</linearGradient>
<linearGradient id="paint7_linear_461_665" x1="118.277" y1="38.1868" x2="165.415" y2="-34.766" gradientUnits="userSpaceOnUse">
<stop stop-color="#E72E5D"/>
<stop offset="1" stop-color="#84107D"/>
</linearGradient>
<linearGradient id="paint8_linear_461_665" x1="40.558" y1="37.7947" x2="46.8739" y2="-31.3755" gradientUnits="userSpaceOnUse">
<stop stop-color="#E72E5D"/>
<stop offset="1" stop-color="#84107D"/>
</linearGradient>
<clipPath id="clip0_461_665">
<rect width="144" height="54" fill="white"/>
</clipPath>
</defs>
</svg>
