<?xml version="1.0" encoding="utf-8"?>
<!-- Generator: Adobe Illustrator 26.0.2, SVG Export Plug-In . SVG Version: 6.00 Build 0)  -->
<svg version="1.1" id="Layer_1" xmlns="http://www.w3.org/2000/svg" xmlns:xlink="http://www.w3.org/1999/xlink" x="0px" y="0px"
	 viewBox="0 0 1913.9 911.2" style="enable-background:new 0 0 1913.9 911.2;" xml:space="preserve">
<style type="text/css">
	.st0{fill:#FFFFFF;}
</style>
<g>
	<g>
		<path class="st0" d="M743.1,299.7H816v9.7h-62.4v40.1h58.6v9.9h-58.6v44.2H816v9.8h-72.9V299.7z"/>
		<path class="st0" d="M876.6,415.3c-32.1,0-52-24.3-52-59s19.9-58.8,52-58.8s52,24.1,52,58.8S908.7,415.3,876.6,415.3z
			 M876.6,405.3c23.2,0,40.9-17.7,40.9-48.9s-17.7-48.8-40.9-48.8s-40.9,17.5-40.9,48.8S853.4,405.3,876.6,405.3z"/>
		<path class="st0" d="M980.4,297.6c22.4,0,38.1,11,42.3,30.4h-11c-3.9-13.2-15-20.4-32.5-20.4c-11.4,0-27.6,4.5-27.6,19.4
			c0,11.4,9.2,17.1,22,20.1l13.5,3c16.3,3.8,38.2,10.2,38.2,32s-19.9,33.2-42,33.2c-28.4,0-44-15.8-46.6-36.2h11
			c3.9,18.2,16.4,26.2,35.1,26.2c12.4,0,31.5-4.5,31.5-21.5c0-13.8-13.5-20.4-29.5-23.8l-14.3-3.1c-14.9-3.3-29.8-10.7-29.8-29.3
			C940.9,306.7,962.1,297.6,980.4,297.6z"/>
		<path class="st0" d="M1154.9,413.3L1092.7,311v102.4h-10.5V299.7h15.2l62.2,102.5V299.7h10.5v113.7H1154.9z"/>
		<path class="st0" d="M1186.2,371.5c0-27.1,16.9-43.9,39.5-43.9c23.7,0,38.9,20.1,37.6,46.4h-67.1c0.5,20.5,13.2,32.5,30.4,32.5
			c13.2,0,22.4-6.6,25.7-18.3h10.2c-4.2,17.6-17.9,27.3-36.5,27.3C1201.4,415.3,1186.2,397.6,1186.2,371.5z M1196.5,365h56.1
			c0-14.3-10.2-28.7-27.1-28.7C1209.9,336.3,1198.6,346.2,1196.5,365z"/>
		<path class="st0" d="M1279.2,310h9.9v19h16.6v8.5h-16.6v53.9c0,10.8,0.3,13.2,11.6,13.2h5v8.8h-8c-15,0-18.5-3.3-18.5-20.1v-55.8
			h-14V329h14L1279.2,310z"/>
		<path class="st0" d="M1362.8,329h9.7l21.6,69.1l18-69.1h10.8l-24.4,84.4h-9.1l-22.1-70.9l-21.5,70.9h-9l-24.5-84.3h10.8l18.7,69
			L1362.8,329z"/>
		<path class="st0" d="M1463.7,327.6c20.2,0,38.2,13.2,38.2,43.9s-18,43.9-38.2,43.9c-20.1,0-38.1-13.2-38.1-43.9
			S1443.6,327.6,1463.7,327.6z M1463.7,406.4c16.2,0,27.9-10.7,27.9-35s-11.8-35-27.9-35c-16.3,0-27.8,10.7-27.8,35
			S1447.4,406.4,1463.7,406.4L1463.7,406.4z"/>
		<path class="st0" d="M1553.1,338.8c-0.8-0.1-1.6-0.2-2.3-0.1h-2c-17.4,0-23,12.5-23,30.4v44.2h-9.6V329h9.2v15.4
			c3.8-9.9,14.9-16,24.9-16h1.2c0.5,0,1.1,0,1.6,0.2L1553.1,338.8z"/>
		<path class="st0" d="M1572.5,299.7v71.5l38.6-42.2h11.9l-31.2,33.9l34,50.5h-11.3l-29-43.6l-13,14.1v29.5h-9.7V299.7H1572.5z"/>
		<path class="st0" d="M743.1,471.7h69.5v9.7h-59v40.1h55.3v9.9h-55.3v54h-10.5V471.7z"/>
		<path class="st0" d="M855.5,499.6c20.2,0,38.2,13.2,38.2,43.9s-18,43.9-38.2,43.9s-38.1-13.2-38.1-43.9S835.4,499.6,855.5,499.6z
			 M855.5,578.4c16.1,0,27.9-10.7,27.9-35s-11.8-35-27.9-35c-16.3,0-27.8,10.7-27.8,35S839.2,578.4,855.5,578.4z"/>
		<path class="st0" d="M960.8,571.7c-4.2,8-12.5,15.7-27.1,15.7c-19.3,0-27.4-11.9-27.4-32.6V501h9.7v51.1
			c0,15.8,3.8,26.5,20.2,26.5c13.3,0,24.6-12.2,24.6-30.1V501h9.7v84.4h-9.7L960.8,571.7z"/>
		<path class="st0" d="M999.4,515.2c4.2-8,12.2-15.7,28.1-15.7c19.9,0,28.4,11.9,28.4,32.6v53.2h-9.7v-50.5
			c0-15.8-4.2-26.5-21.2-26.5c-14.6,0-25.5,12.2-25.5,30.1v46.9h-9.7V501h9.7V515.2z"/>
		<path class="st0" d="M1103.9,499.6c12.5,0,22.4,5.8,28.5,16v-43.9h9.7v113.7h-9.7v-13.8c-6.1,10-16,15.8-28.5,15.8
			c-19.4,0-35.3-15.8-35.3-43.9S1084.4,499.6,1103.9,499.6z M1105.9,508.3c-15.7,0-26.8,12.7-26.8,35.1s11.1,35.1,26.8,35.1
			c12.7,0,27.1-10,27.1-35.1S1118.6,508.3,1105.9,508.3L1105.9,508.3z"/>
		<path class="st0" d="M1215.6,572.5c-5.5,8.9-16,14.9-31.7,14.9s-27.9-9.1-27.9-23c0-19.3,18.8-26,59.4-30.3v-3
			c0-19.3-11.4-23.4-23.5-23.4c-14.4,0-22.9,7.8-23.7,19h-10.2c2.4-16.8,15.5-27.6,34.5-27.6c19.6,0,32.6,8.1,32.6,33.2
			c0,11.8-0.2,19.3-0.2,26c0,9.6,0.5,17.7,1,27h-9.9L1215.6,572.5z M1186.1,578.7c15.7,0,29.8-8.2,29.8-32v-4.1
			c-34.2,3.8-49.1,8.5-49.1,21.5C1166.9,573.1,1174.9,578.7,1186.1,578.7L1186.1,578.7z"/>
		<path class="st0" d="M1245.7,482h9.9v19h16.6v8.5h-16.6v53.9c0,10.8,0.3,13.2,11.6,13.2h5v8.8h-8c-15,0-18.5-3.3-18.5-20.1v-55.8
			h-14V501h14L1245.7,482z"/>
		<path class="st0" d="M1293.7,471.7v15.5h-9.8v-15.5H1293.7z M1293.7,501v84.4h-9.8V501H1293.7z"/>
		<path class="st0" d="M1345.9,499.6c20.2,0,38.2,13.2,38.2,43.9s-18,43.9-38.2,43.9c-20.1,0-38.1-13.2-38.1-43.9
			S1325.8,499.6,1345.9,499.6z M1345.9,578.4c16.1,0,27.9-10.7,27.9-35s-11.8-35-27.9-35c-16.3,0-27.8,10.7-27.8,35
			S1329.6,578.4,1345.9,578.4z"/>
		<path class="st0" d="M1408.1,515.2c4.2-8,12.2-15.7,28.1-15.7c19.9,0,28.4,11.9,28.4,32.6v53.2h-9.7v-50.5
			c0-15.8-4.2-26.5-21.2-26.5c-14.6,0-25.6,12.2-25.6,30.1v46.9h-9.7V501h9.7V515.2z"/>
	</g>
	<path class="st0" d="M318.8,524.4l124.5,72.1c3.8,2.2,8,3.3,12.3,3.3c4.2,0,8.5-1.1,12.3-3.3l124.5-72.1c5.8-3.4,8.7-10.3,7-16.8
		l-53.1-200.9c-2.8-10.7-12.6-18.2-23.7-18.2h-134c-11.1,0-20.8,7.5-23.7,18.2l-53.1,200.9C310.1,514.2,313,521.1,318.8,524.4z
		 M436.6,580.2l-106.1-61.5c-5.3-3.1-7.9-9.4-6.4-15.3L370,329.9c0.8-2.9,3.2-3.1,4-3.1c0,0,0,0,0,0c0.8,0,3.2,0.2,4,3.1l65.9,244.8
		c0.8,3-1.1,4.7-1.8,5.2C441.5,580.3,439.3,581.7,436.6,580.2z M520.7,299.3c2.3,0,4.4,1,5.8,2.9c1.4,1.8,1.9,4.1,1.3,6.4
		l-68.1,253.2c-0.8,2.8-3.2,3.1-4,3.1c-0.7,0-3.2-0.2-4-3.1c0,0,0,0,0,0l-68.1-253.2c-0.6-2.2-0.1-4.5,1.3-6.4
		c1.4-1.8,3.5-2.9,5.8-2.9H520.7z M474.6,580.2c-2.6,1.5-4.9,0.1-5.5-0.4c-0.6-0.5-2.6-2.2-1.8-5.2l65.9-244.8
		c0.8-2.8,3.2-3.1,4-3.1c0,0,0,0,0,0c0.7,0,3.2,0.2,4,3.1L587,503.4c1.6,5.9-1,12.2-6.4,15.3L474.6,580.2z"/>
</g>
</svg>
