<svg width="170" height="49" viewBox="0 0 170 49" fill="none" xmlns="http://www.w3.org/2000/svg">
<g clip-path="url(#clip0_461_711)">
<path fill-rule="evenodd" clip-rule="evenodd" d="M24.1693 48.9998C10.8772 48.9998 0 37.9789 0 24.381C0.122273 10.9019 10.8772 -0.124132 24.2915 -0.000185843C37.5836 0.12376 48.3385 11.0258 48.3385 24.7477C48.2163 38.1029 37.4613 49.005 24.1693 49.005" fill="#0090FF"/>
<path fill-rule="evenodd" clip-rule="evenodd" d="M26.467 21.5614L25.7435 25.4812L32.6315 26.4624L32.1475 28.3009L25.3818 27.3197C24.8978 28.9103 24.6583 30.6249 24.0521 32.0968C23.4458 33.8114 22.8446 35.526 22.1161 37.1218C21.1481 39.203 19.4566 40.6749 17.1589 41.0416C15.8292 41.2843 14.3772 41.1655 13.2921 40.3082C12.9303 40.0655 12.5686 39.5749 12.5686 39.2082C12.5686 38.7176 12.8081 38.1082 13.1749 37.8603C13.4143 37.7363 14.0206 37.8603 14.3823 37.9842C14.744 38.3509 15.1058 38.8415 15.3503 39.3321C16.0738 40.3134 17.0418 40.4322 18.0097 39.6988C19.0949 38.7176 19.7012 37.3697 20.0629 36.0217C20.7864 33.0832 21.5149 30.2634 22.1161 27.3249V26.8342L15.712 25.853L15.9515 24.0145L22.6001 24.9957L23.4458 21.1999L16.5578 20.0998L16.7972 18.1374L23.9298 19.1186C24.1692 18.3853 24.2915 17.7707 24.5361 17.1561C25.1423 14.9509 25.7435 12.7457 27.1955 10.7884C28.6475 8.82591 30.3389 7.60195 32.8761 7.72589C33.9613 7.72589 35.0515 8.09257 35.775 8.94986C35.8972 9.07381 36.1367 9.31653 36.1367 9.56443C36.1367 10.055 36.1367 10.6644 35.775 11.0363C35.291 11.403 34.6898 11.279 34.2058 10.7936C33.8441 10.4269 33.5995 10.0602 33.2378 9.69354C32.5144 8.7123 31.4241 8.59352 30.5784 9.45081C29.9721 10.0654 29.3709 10.9227 29.0092 11.78C28.1635 14.3518 27.5572 17.0477 26.7115 19.7435L33.3601 20.7247L32.8761 22.5633L26.472 21.582" fill="white"/>
<path d="M65.9101 34.3071V13.541H79.9511V17.0528H70.0419V21.9693H78.5959V25.4812H70.0419V34.3071H65.905H65.9101Z" fill="white"/>
<path d="M83.334 17.2232V13.541H87.262V17.2232H83.334ZM83.334 34.3071V19.2632H87.262V34.3071H83.334Z" fill="white"/>
<path d="M91.2869 34.3071V13.541H95.2149V34.3071H91.2869Z" fill="white"/>
<path d="M107.829 29.5197L111.742 30.1859C111.238 31.6423 110.443 32.7475 109.358 33.5066C108.273 34.2658 106.917 34.648 105.282 34.648C102.704 34.648 100.794 33.7958 99.5505 32.0864C98.5723 30.7179 98.0833 28.9878 98.0833 26.9014C98.0833 24.4069 98.7252 22.4548 100.009 21.0449C101.298 19.635 102.918 18.9275 104.885 18.9275C107.091 18.9275 108.833 19.666 110.112 21.143C111.386 22.62 111.997 24.8821 111.941 27.9342H102.103C102.128 29.1169 102.449 30.0362 103.051 30.6869C103.657 31.3427 104.411 31.6733 105.313 31.6733C105.929 31.6733 106.444 31.5028 106.861 31.162C107.279 30.8211 107.6 30.2737 107.809 29.5197H107.829ZM108.054 25.4966C108.028 24.345 107.733 23.467 107.172 22.8679C106.612 22.2689 105.934 21.9693 105.134 21.9693C104.278 21.9693 103.57 22.2844 103.01 22.9196C102.449 23.5548 102.174 24.4121 102.184 25.4966H108.054Z" fill="white"/>
<path d="M128.091 23.7098L124.219 24.4173C124.086 23.6323 123.791 23.0436 123.332 22.6459C122.874 22.2482 122.273 22.052 121.539 22.052C120.561 22.052 119.781 22.3929 119.201 23.0797C118.62 23.7666 118.329 24.9079 118.329 26.5141C118.329 28.3009 118.625 29.5611 119.216 30.2944C119.807 31.0329 120.602 31.3996 121.6 31.3996C122.344 31.3996 122.955 31.1827 123.429 30.754C123.903 30.3254 124.239 29.5869 124.438 28.5385L128.295 29.2047C127.892 30.9968 127.123 32.355 125.992 33.2691C124.856 34.1832 123.332 34.6429 121.422 34.6429C119.252 34.6429 117.519 33.9508 116.23 32.5616C114.941 31.1724 114.294 29.2512 114.294 26.7981C114.294 24.345 114.941 22.3825 116.236 20.9985C117.53 19.6144 119.282 18.9224 121.488 18.9224C123.297 18.9224 124.733 19.3149 125.798 20.105C126.863 20.8952 127.632 22.0933 128.096 23.7098H128.091Z" fill="white"/>
<path d="M130.159 26.5708C130.159 25.2487 130.48 23.968 131.122 22.7337C131.764 21.4994 132.676 20.5543 133.853 19.9036C135.03 19.2528 136.349 18.9275 137.801 18.9275C140.048 18.9275 141.887 19.666 143.319 21.143C144.756 22.62 145.469 24.4896 145.469 26.7464C145.469 29.0033 144.745 30.9089 143.294 32.4066C141.847 33.9043 140.023 34.6531 137.822 34.6531C136.461 34.6531 135.167 34.3433 133.929 33.7184C132.697 33.0935 131.754 32.1794 131.112 30.9761C130.47 29.7728 130.149 28.3061 130.149 26.576L130.159 26.5708ZM134.184 26.7826C134.184 28.2751 134.536 29.4164 135.234 30.2117C135.932 31.0071 136.793 31.4047 137.817 31.4047C138.841 31.4047 139.702 31.0071 140.395 30.2117C141.087 29.4164 141.434 28.2648 141.434 26.7567C141.434 25.2487 141.087 24.1487 140.395 23.3586C139.702 22.5632 138.841 22.1656 137.817 22.1656C136.793 22.1656 135.932 22.5632 135.234 23.3586C134.536 24.1539 134.184 25.2952 134.184 26.7877V26.7826Z" fill="white"/>
<path d="M148.546 17.2232V13.541H152.474V17.2232H148.546ZM148.546 34.3071V19.2632H152.474V34.3071H148.546Z" fill="white"/>
<path d="M170 34.3072H166.072V26.6277C166.072 25.0009 165.991 23.9525 165.822 23.4774C165.654 23.0023 165.384 22.6304 165.002 22.367C164.625 22.1036 164.172 21.9694 163.642 21.9694C162.959 21.9694 162.353 22.1605 161.813 22.5375C161.273 22.9145 160.901 23.4154 160.702 24.0403C160.504 24.6652 160.402 25.8169 160.402 27.4953V34.3072H156.474V19.2632H160.121V21.4736C161.415 19.7745 163.046 18.9224 165.012 18.9224C165.878 18.9224 166.668 19.0825 167.386 19.3975C168.105 19.7125 168.645 20.1153 169.012 20.606C169.379 21.0966 169.638 21.6543 169.781 22.2792C169.924 22.9041 169.995 23.7976 169.995 24.9596V34.3072H170Z" fill="white"/>
</g>
<defs>
<clipPath id="clip0_461_711">
<rect width="170" height="49" fill="white"/>
</clipPath>
</defs>
</svg>
