<svg width="222" height="35" viewBox="0 0 222 35" fill="none" xmlns="http://www.w3.org/2000/svg">
<g id="Followin">
<g id="Group 59">
<path id="Vector" d="M66.874 30.5623H46.1019V5.0415H66.874V30.5623ZM52.3581 24.5054H60.6178V11.0984H52.3581V24.5054ZM28.3173 30.5623H7.54517V5.0415H28.3173V30.5623ZM13.8014 24.5054H22.0611V11.0984H13.8014V24.5054Z" fill="white"/>
<path id="Vector_2" d="M34.2432 5.0415H40.1761V30.5623H34.2432V5.0415Z" fill="white"/>
<path id="Vector_3" opacity="0.7" fill-rule="evenodd" clip-rule="evenodd" d="M120.028 30.8451V4.143H124.843V30.8597H120.028V30.8451ZM83.897 10.0638H94.3305V5.23675H78.7397V30.8451H83.8822V20.9722H94.0184V16.1451H83.8822V10.0638H83.897ZM106.756 31.3555C109.52 31.3555 111.853 30.4222 113.771 28.5555C115.688 26.6888 116.639 24.3993 116.639 21.7013C116.639 19.0034 115.688 16.6993 113.771 14.8472C111.853 12.9951 109.52 12.0472 106.756 12.0472C103.991 12.0472 101.673 12.9805 99.7702 14.8472C97.8678 16.7138 96.9166 19.0034 96.9166 21.7013C96.9166 24.3993 97.8678 26.7034 99.7702 28.5555C101.673 30.4222 104.006 31.3555 106.756 31.3555ZM106.756 26.7472C105.314 26.7472 104.11 26.2659 103.159 25.318C102.193 24.3701 101.717 23.1597 101.717 21.7013C101.717 20.243 102.193 19.0326 103.159 18.0847C104.125 17.1368 105.314 16.6555 106.756 16.6555C108.197 16.6555 109.401 17.1368 110.367 18.0847C111.333 19.0326 111.824 20.243 111.824 21.7013C111.824 23.1597 111.333 24.3701 110.367 25.318C109.401 26.2659 108.197 26.7472 106.756 26.7472ZM129.243 4.12842V30.8451H134.058V4.143H129.243V4.12842ZM154.345 28.5555C152.428 30.4222 150.095 31.3555 147.33 31.3555C144.566 31.3555 142.247 30.4222 140.345 28.5555C138.443 26.6888 137.491 24.3993 137.491 21.7013C137.491 19.0034 138.443 16.6993 140.345 14.8472C142.247 12.9805 144.581 12.0472 147.33 12.0472C150.08 12.0472 152.428 12.9805 154.345 14.8472C156.263 16.7138 157.214 19.0034 157.214 21.7013C157.214 24.3993 156.263 26.7034 154.345 28.5555ZM143.734 25.318C144.685 26.2659 145.889 26.7472 147.33 26.7472C148.772 26.7472 149.976 26.2659 150.942 25.318C151.908 24.3701 152.398 23.1597 152.398 21.7013C152.398 20.243 151.908 19.0326 150.942 18.0847C149.976 17.1368 148.772 16.6555 147.33 16.6555C145.889 16.6555 144.685 17.1368 143.734 18.0847C142.782 19.0326 142.292 20.243 142.292 21.7013C142.292 23.1597 142.768 24.3701 143.734 25.318ZM185.468 12.543H180.86L177.694 23.8159L174.291 12.543H169.743L166.354 23.7722L163.159 12.543H158.076L163.56 30.8451H168.272L171.794 19.7618L175.316 30.8451H180.028L185.468 12.543ZM190.952 10.3409C190.149 10.3409 189.466 10.0493 188.886 9.4805C188.321 8.9555 188.009 8.21175 188.009 7.45342C188.009 6.66592 188.306 5.99508 188.886 5.39717C189.466 4.81383 190.164 4.52217 190.952 4.52217C191.74 4.52217 192.468 4.81383 193.062 5.39717C193.642 5.9805 193.939 6.66592 193.939 7.45342C193.939 8.24092 193.642 8.91175 193.062 9.4805C192.483 10.0493 191.784 10.3409 190.952 10.3409ZM188.559 30.8305V12.543H193.374V30.8451H188.559V30.8305ZM213.186 14.0305C211.849 12.6888 210.169 12.018 208.133 12.018C205.591 12.018 203.748 12.8784 202.574 14.5847V12.5284H197.759V30.8305H202.574V20.9576C202.574 19.4409 202.946 18.318 203.689 17.5597C204.432 16.8013 205.428 16.4222 206.676 16.4222C207.791 16.4222 208.683 16.743 209.366 17.3847C210.035 18.0263 210.377 18.9597 210.377 20.1847V30.8305H215.193V19.6013C215.193 17.2388 214.524 15.3868 213.201 14.0451L213.186 14.0305Z" fill="white"/>
</g>
</g>
</svg>
