<?xml version="1.0" encoding="utf-8"?>
<!-- Generator: Adobe Illustrator 27.5.0, SVG Export Plug-In . SVG Version: 6.00 Build 0)  -->
<svg version="1.1" id="圖層_1" xmlns="http://www.w3.org/2000/svg" xmlns:xlink="http://www.w3.org/1999/xlink" x="0px" y="0px"
	 viewBox="0 0 200 78.9" style="enable-background:new 0 0 200 78.9;" xml:space="preserve">
<style type="text/css">
	.st0{fill:url(#SVGID_1_);}
	.st1{fill:url(#SVGID_00000027586319253923409010000002032610980540388251_);}
	.st2{fill:#FFFFFF;}
	.st3{fill:url(#SVGID_00000116925881440234743480000016407261004776404617_);}
	.st4{fill:url(#SVGID_00000008829810978635316150000008016450938626443657_);}
	.st5{fill:url(#SVGID_00000051376497128495553030000008374363428942468506_);}
	.st6{fill:url(#SVGID_00000081623631530802859230000012309849090573974953_);}
	.st7{fill:url(#SVGID_00000109742033793896538140000000828077963984409023_);}
</style>
<g>
	<g>
		
			<linearGradient id="SVGID_1_" gradientUnits="userSpaceOnUse" x1="20.9504" y1="11.348" x2="26.1815" y2="11.348" gradientTransform="matrix(1 0 0 -1 0 48)">
			<stop  offset="0" style="stop-color:#E6B980"/>
			<stop  offset="0.3761" style="stop-color:#E7BE8A"/>
			<stop  offset="1" style="stop-color:#EACDA3"/>
		</linearGradient>
		<path class="st0" d="M21,32.1v5.4l0,0l0,0c1.8,1.2,3.6,2.4,5.2,3.8v-6.1L21,32.1z"/>
		
			<linearGradient id="SVGID_00000101094837342812946930000006418328661034206890_" gradientUnits="userSpaceOnUse" x1="45.6247" y1="11.348" x2="50.8558" y2="11.348" gradientTransform="matrix(1 0 0 -1 0 48)">
			<stop  offset="0" style="stop-color:#E6B980"/>
			<stop  offset="0.3761" style="stop-color:#E7BE8A"/>
			<stop  offset="1" style="stop-color:#EACDA3"/>
		</linearGradient>
		<path style="fill:url(#SVGID_00000101094837342812946930000006418328661034206890_);" d="M45.7,35.1v6.1c1.6-1.3,3.4-2.7,5.2-3.8
			l0,0l0,0v-5.4L45.7,35.1z"/>
		<polygon class="st2" points="58.9,21.6 35.9,34.9 12.8,21.6 10.2,23.1 10.2,25.9 21,32.1 26.2,35.1 35.9,40.7 45.7,35.1 
			50.9,32.1 61.6,25.9 61.6,23.1 		"/>
		<path class="st2" d="M50.9,43.6v-6.3c-1.8,1.2-3.6,2.4-5.2,3.8v7.1v13.7l-9.7,5.6l-9.7-5.6V48.3v-7.1c-1.6-1.3-3.4-2.7-5.2-3.8
			v6.3l0,0v21.3l10.8,6.2l4.1,2.3l4-2.3l10.9-6.2V43.6L50.9,43.6L50.9,43.6z"/>
		<rect x="33.3" y="55.2" class="st2" width="5.4" height="5.4"/>
		
			<linearGradient id="SVGID_00000176757981826297920710000009598916676656494249_" gradientUnits="userSpaceOnUse" x1="50.9131" y1="10.6789" x2="50.9131" y2="10.6789" gradientTransform="matrix(1 0 0 -1 0 48)">
			<stop  offset="0" style="stop-color:#E6B980"/>
			<stop  offset="0.3761" style="stop-color:#E7BE8A"/>
			<stop  offset="1" style="stop-color:#EACDA3"/>
		</linearGradient>
		<polygon style="fill:url(#SVGID_00000176757981826297920710000009598916676656494249_);" points="50.9,37.3 50.9,37.3 50.9,37.3 
					"/>
		
			<linearGradient id="SVGID_00000177486788819047000440000014793468255645740469_" gradientUnits="userSpaceOnUse" x1="50.9131" y1="10.6789" x2="50.9131" y2="10.6789" gradientTransform="matrix(1 0 0 -1 0 48)">
			<stop  offset="0" style="stop-color:#E6B980"/>
			<stop  offset="0.3761" style="stop-color:#E7BE8A"/>
			<stop  offset="1" style="stop-color:#EACDA3"/>
		</linearGradient>
		<polygon style="fill:url(#SVGID_00000177486788819047000440000014793468255645740469_);" points="50.9,37.3 50.9,37.3 50.9,37.3 
					"/>
		
			<linearGradient id="SVGID_00000096037310663576410200000007963771256021807260_" gradientUnits="userSpaceOnUse" x1="-180.0224" y1="-80.5344" x2="59.2656" y2="29.0192" gradientTransform="matrix(1 0 0 -1 0 48)">
			<stop  offset="0" style="stop-color:#E6B980"/>
			<stop  offset="0.3761" style="stop-color:#E7BE8A"/>
			<stop  offset="1" style="stop-color:#EACDA3"/>
		</linearGradient>
		<path style="fill:url(#SVGID_00000096037310663576410200000007963771256021807260_);" d="M45.7,7.9L45.7,7.9l-4.5-2.6v6.1l4.5,2.6
			v9.4l5.2-3v-3.4l8,4.6l2.7,1.6v2.7v7.1c-3.9,0.9-7.5,2.4-10.7,4.5v6.3c4-2.9,8.6-5.4,13.6-6l2.3-0.2V20.2L45.7,7.9z"/>
		
			<linearGradient id="SVGID_00000013909543724850972920000017548464239625892232_" gradientUnits="userSpaceOnUse" x1="-10.1841" y1="7.0145" x2="261.6445" y2="131.4662" gradientTransform="matrix(1 0 0 -1 0 48)">
			<stop  offset="0" style="stop-color:#E6B980"/>
			<stop  offset="0.3761" style="stop-color:#E7BE8A"/>
			<stop  offset="1" style="stop-color:#EACDA3"/>
		</linearGradient>
		<path style="fill:url(#SVGID_00000013909543724850972920000017548464239625892232_);" d="M26.2,7.9L26.2,7.9L5.1,20v17.4l2.3,0.2
			c5,0.6,9.6,3,13.6,6v-6.3l0,0c-3.3-2.1-6.9-3.6-10.7-4.5v-7.1v-2.7l2.7-1.6l8-4.6v3.4l5.2,3V14l4.5-2.6V5.3L26.2,7.9z"/>
	</g>
	<g>
		<path class="st2" d="M109.1,34.5c2.6,0,4.6,0.9,6.1,2.4c1.5,1.6,2.2,3.9,2.2,6.8v0.7h-12.4c0.2,1.6,0.7,2.3,1.7,3.2
			c1,0.9,2.3,1.2,4,1.2c1.1,0,2.2-0.2,3.2-0.6c1-0.4,2.1-1,3.2-1.7v3.9c-2.1,1.5-4.5,2.2-7.4,2.2c-2.8,0-5-0.9-6.8-2.4
			c-1.7-1.7-2.7-3.9-2.7-6.7c0-2.7,0.9-4.9,2.4-6.6S106.5,34.5,109.1,34.5z M113.1,41.7c-0.1-1.2-0.5-2.3-1.2-3
			c-0.6-0.7-1.6-1.1-2.7-1.1c-1.2,0-2.1,0.4-2.8,1c-0.7,0.7-1.1,1.7-1.3,3h8V41.7z"/>
		<path class="st2" d="M129.7,34.5c2.2,0,4,0.5,5.1,1.5c1.2,1,1.8,2.3,1.8,4v8.5c0,0.6,0.2,1,0.9,1c0.2,0,0.5-0.1,1-0.2
			c0.4-0.2,0.7-0.4,1-0.6v2.7c-1.6,1-3,1.5-4.4,1.5c-0.9,0-1.5-0.1-1.9-0.4c-0.5-0.2-0.7-0.7-1-1.5c-1.7,1.2-3.5,1.8-5.4,1.8
			c-1.2,0-2.3-0.4-3.3-1.2c-0.9-0.9-1.3-1.8-1.3-3c0-1.5,0.5-2.7,1.3-3.5c0.9-0.9,2.4-1.8,4.7-2.6l3.8-1.1v-0.6
			c0-1.7-1.1-2.6-3.2-2.6c-1.1,0-2.1,0.2-3.2,0.7s-1.9,1.2-2.9,2.2V37C124.9,35.3,127.1,34.5,129.7,34.5z M126.9,47.7
			c0,1.5,1.3,1.8,2.1,1.8c1,0,2.1-0.5,3-1.3v-4.3c-1.3,0.5-2.3,0.9-3,1.2s-1.2,0.7-1.6,1.2C127.1,46.6,126.9,47.1,126.9,47.7z"/>
		<g>
			<path class="st2" d="M159.4,37.1c-1.6-1.7-3.5-2.6-6.1-2.6c-1.6,0-3,0.5-4.5,1.5v-1.6h-4.6v26.2l4.6,2.7V51.7
				c1.3,0.7,2.8,1,4.1,1c1.7,0,3.2-0.4,4.5-1.2c1.3-0.7,2.3-1.8,3-3.3c0.7-1.3,1.1-2.9,1.1-4.7C161.6,40.8,160.9,38.7,159.4,37.1z
				 M152.1,48.9c-1,0-2.1-0.4-3.2-1v-8.4c0.9-0.6,1.5-1,1.9-1.1c0.5-0.1,1-0.2,1.6-0.2c1.5,0,2.6,0.5,3.3,1.5c0.7,1,1.2,2.4,1.2,4.3
				C157,47.3,154.4,48.8,152.1,48.9z"/>
		</g>
		<path class="st2" d="M194.9,34.9v17.9h-4.6V34.9H194.9z"/>
		
			<linearGradient id="SVGID_00000168802519338430628050000011390802661754850457_" gradientUnits="userSpaceOnUse" x1="190.2964" y1="19.4379" x2="194.9055" y2="19.4379" gradientTransform="matrix(1 0 0 -1 0 48)">
			<stop  offset="0" style="stop-color:#E6B980"/>
			<stop  offset="0.3761" style="stop-color:#E7BE8A"/>
			<stop  offset="1" style="stop-color:#EACDA3"/>
		</linearGradient>
		<path style="fill:url(#SVGID_00000168802519338430628050000011390802661754850457_);" d="M194.9,26.3v4.6h-4.6v-4.6H194.9z"/>
		<polygon class="st2" points="85.8,48.1 85.8,26.3 80.7,26.3 80.7,52.6 95.8,52.6 95.8,48.1 		"/>
		<polygon class="st2" points="182.7,30.8 182.7,26.3 172.8,26.3 170.4,26.3 167.8,26.3 167.8,52.6 172.8,55.6 172.8,40.8 
			182.7,40.8 182.7,37 172.8,37 172.8,30.8 		"/>
	</g>
</g>
</svg>
