<svg width="587" height="611" viewBox="0 0 587 611" fill="none" xmlns="http://www.w3.org/2000/svg">
<g clip-path="url(#clip0_138_4834)">
<g clip-path="url(#clip1_138_4834)">
<path d="M135.854 367.714C86.5279 337.57 53.644 283.971 53.644 223V222.711C53.7513 161.872 86.6083 108.378 135.854 78.2861C162.595 61.9415 194.191 52.4706 227.987 52.4706C261.783 52.4706 295.632 62.6236 322.991 80.0701C370.707 110.529 402.33 163.236 402.33 223C402.33 282.764 370.707 335.471 322.991 365.93C329.589 366.822 336.348 367.294 343.188 367.294C369.903 367.294 394.981 360.316 416.626 348.116C441.464 312.41 455.974 269.332 455.974 223C455.974 176.668 441.464 133.59 416.626 97.8839C375.83 39.2218 307.193 0.498471 229.462 0.0262353C228.98 0 228.47 0 227.987 0C158.116 0 95.5132 30.9314 53.644 79.5192V0.0262353H0V222.816C0 222.816 0 222.948 0 223C0 345.965 102.272 446 227.987 446C228.47 446 228.98 446 229.462 445.974C192.099 427.714 159.967 400.692 135.854 367.714Z" fill="white"/>
<path d="M431.218 373.171C406.622 386.157 378.513 393.529 348.713 393.529C313.255 393.529 280.237 383.114 252.69 365.274C205.537 334.71 174.37 282.344 174.37 223C174.37 163.656 205.537 111.29 252.69 80.7261C244.671 79.3881 236.409 78.7059 228.014 78.7059C204.813 78.7059 182.846 83.9792 163.319 93.3452C136.524 129.891 120.726 174.675 120.726 223C120.726 271.325 136.524 316.109 163.319 352.655C203.499 407.46 268.408 443.796 341.927 445.895C344.18 445.974 346.433 446 348.713 446C404.584 446 455.84 426.245 495.51 393.503L457.396 356.223C449.242 362.624 440.498 368.291 431.245 373.171H431.218Z" fill="white"/>
<path d="M348.686 0C346.406 0 344.153 0.0262353 341.9 0.104941C377.091 17.3415 407.641 42.37 431.218 72.8292C485.827 101.636 523.03 158.146 523.03 223C523.03 257.945 512.22 290.477 493.713 317.526L532.203 355.173C560.151 318.155 576.674 272.427 576.674 223C576.674 100.035 474.401 0 348.686 0Z" fill="white"/>
<path d="M532.203 355.173C521.554 369.314 509.189 382.169 495.483 393.503L549.074 445.895L587 408.798L532.203 355.173Z" fill="white"/>
</g>
<path d="M116.438 506H131.312L156.188 574.5L181 506H195.938L162.125 597H150.188L116.438 506ZM108.938 506H123.5L126.125 568.938V597H108.938V506ZM188.812 506H203.438V597H186.25V568.938L188.812 506ZM236.188 543.188V597H219.688V529.375H235.312L236.188 543.188ZM256.75 528.938L256.5 544.312C255.583 544.146 254.542 544.021 253.375 543.938C252.25 543.854 251.188 543.812 250.188 543.812C247.646 543.812 245.417 544.167 243.5 544.875C241.583 545.542 239.979 546.521 238.688 547.812C237.438 549.104 236.479 550.688 235.812 552.562C235.146 554.396 234.771 556.479 234.688 558.812L231.125 558.375C231.125 554.083 231.562 550.104 232.438 546.438C233.312 542.771 234.583 539.562 236.25 536.812C237.917 534.062 240 531.938 242.5 530.438C245.042 528.896 247.958 528.125 251.25 528.125C252.167 528.125 253.146 528.208 254.188 528.375C255.271 528.5 256.125 528.688 256.75 528.938ZM257.125 588.938C257.125 586.438 257.979 584.333 259.688 582.625C261.396 580.917 263.708 580.062 266.625 580.062C269.542 580.062 271.854 580.917 273.562 582.625C275.271 584.333 276.125 586.438 276.125 588.938C276.125 591.396 275.271 593.479 273.562 595.188C271.854 596.854 269.542 597.688 266.625 597.688C263.708 597.688 261.396 596.854 259.688 595.188C257.979 593.479 257.125 591.396 257.125 588.938ZM360.812 556.438H337.562L337.438 544.312H357.375C360.792 544.312 363.646 543.833 365.938 542.875C368.229 541.917 369.958 540.521 371.125 538.688C372.333 536.854 372.938 534.625 372.938 532C372.938 529.083 372.375 526.708 371.25 524.875C370.167 523.042 368.458 521.708 366.125 520.875C363.792 520 360.833 519.562 357.25 519.562H343.125V597H325.938V506H357.25C362.417 506 367.021 506.5 371.062 507.5C375.146 508.458 378.604 509.958 381.438 512C384.271 514.042 386.417 516.604 387.875 519.688C389.375 522.771 390.125 526.438 390.125 530.688C390.125 534.438 389.25 537.896 387.5 541.062C385.792 544.188 383.146 546.729 379.562 548.688C376.021 550.646 371.521 551.771 366.062 552.062L360.812 556.438ZM360.062 597H332.5L339.688 583.5H360.062C363.479 583.5 366.292 582.938 368.5 581.812C370.75 580.688 372.417 579.146 373.5 577.188C374.625 575.188 375.188 572.896 375.188 570.312C375.188 567.479 374.688 565.021 373.688 562.938C372.729 560.854 371.188 559.25 369.062 558.125C366.979 557 364.229 556.438 360.812 556.438H342.938L343.062 544.312H365.812L369.75 549C375 549.042 379.271 550.083 382.562 552.125C385.896 554.167 388.354 556.792 389.938 560C391.521 563.208 392.312 566.667 392.312 570.375C392.312 576.208 391.042 581.104 388.5 585.062C386 589.021 382.333 592 377.5 594C372.708 596 366.896 597 360.062 597ZM456 584.188L480.25 603.438L469.25 613L445.375 593.875L456 584.188ZM480.688 549.188V553.875C480.688 560.75 479.771 566.938 477.938 572.438C476.104 577.896 473.479 582.542 470.062 586.375C466.688 590.208 462.667 593.146 458 595.188C453.333 597.229 448.167 598.25 442.5 598.25C436.875 598.25 431.708 597.229 427 595.188C422.333 593.146 418.292 590.208 414.875 586.375C411.458 582.542 408.812 577.896 406.938 572.438C405.062 566.938 404.125 560.75 404.125 553.875V549.188C404.125 542.271 405.042 536.083 406.875 530.625C408.75 525.167 411.375 520.521 414.75 516.688C418.167 512.812 422.208 509.854 426.875 507.812C431.583 505.771 436.75 504.75 442.375 504.75C448.042 504.75 453.208 505.771 457.875 507.812C462.583 509.854 466.625 512.812 470 516.688C473.417 520.521 476.042 525.167 477.875 530.625C479.75 536.083 480.688 542.271 480.688 549.188ZM463.312 553.875V549.062C463.312 544.104 462.854 539.75 461.938 536C461.021 532.208 459.646 529.021 457.812 526.438C456.021 523.854 453.833 521.917 451.25 520.625C448.667 519.292 445.708 518.625 442.375 518.625C439.083 518.625 436.146 519.292 433.562 520.625C430.979 521.917 428.792 523.854 427 526.438C425.208 529.021 423.833 532.208 422.875 536C421.958 539.75 421.5 544.104 421.5 549.062V553.875C421.5 558.792 421.958 563.146 422.875 566.938C423.833 570.729 425.208 573.938 427 576.562C428.833 579.146 431.042 581.104 433.625 582.438C436.25 583.771 439.208 584.438 442.5 584.438C445.833 584.438 448.792 583.771 451.375 582.438C453.958 581.104 456.125 579.146 457.875 576.562C459.667 573.938 461.021 570.729 461.938 566.938C462.854 563.146 463.312 558.792 463.312 553.875Z" fill="white"/>
</g>
<defs>
<clipPath id="clip0_138_4834">
<rect width="587" height="611" fill="white"/>
</clipPath>
<clipPath id="clip1_138_4834">
<rect width="587" height="446" fill="white"/>
</clipPath>
</defs>
</svg>
