<svg width="225" height="41" viewBox="0 0 225 41" fill="none" xmlns="http://www.w3.org/2000/svg">
<g id="NONE LAND" clip-path="url(#clip0_506_3190)">
<path id="Vector" d="M56.1594 30.2999V10.5723H60.609L71.1168 23.707H69.0148V10.5723H74.3115V30.3022H69.8619L59.3271 17.1675H61.4291V30.3022H56.1617L56.1594 30.2999Z" fill="white"/>
<path id="Vector_2" d="M87.4934 30.6954C85.9817 30.6954 84.5758 30.4418 83.2759 29.9346C81.9737 29.4275 80.8517 28.7086 79.9055 27.7781C78.9592 26.8475 78.218 25.7588 77.6818 24.5095C77.1456 23.2603 76.8752 21.8924 76.8752 20.4081C76.8752 18.9239 77.1433 17.5886 77.6818 16.3486C78.218 15.1087 78.9592 14.0246 79.9055 13.094C80.8517 12.1635 81.9714 11.4446 83.2624 10.9375C84.5556 10.4303 85.9659 10.1768 87.4934 10.1768C89.0209 10.1768 90.4313 10.4303 91.7222 10.9375C93.0154 11.4446 94.1329 12.1588 95.0791 13.0801C96.0254 14.0013 96.7666 15.0808 97.3028 16.3207C97.839 17.5607 98.1093 18.9239 98.1093 20.4081C98.1093 21.8924 97.8457 23.2859 97.3186 24.5375C96.7914 25.7867 96.0479 26.8731 95.0926 27.7921C94.1374 28.7133 93.0132 29.4275 91.7222 29.9346C90.429 30.4418 89.0187 30.6954 87.4934 30.6954ZM87.4934 26.0729C88.2211 26.0729 88.8993 25.9426 89.5256 25.6774C90.1542 25.4145 90.6994 25.0353 91.1635 24.5351C91.6276 24.0373 91.9926 23.4464 92.2562 22.7601C92.5198 22.0738 92.6504 21.2991 92.6504 20.4361C92.6504 19.573 92.5198 18.796 92.2562 18.112C91.9903 17.4257 91.6276 16.8348 91.1635 16.3347C90.6994 15.8368 90.1542 15.4576 89.5256 15.1924C88.8993 14.9295 88.2211 14.7969 87.4934 14.7969C86.7657 14.7969 86.0876 14.9295 85.459 15.1924C84.8327 15.4553 84.2807 15.8368 83.8076 16.3347C83.3345 16.8325 82.9695 17.4234 82.7149 18.112C82.4603 18.7983 82.3342 19.573 82.3342 20.4361C82.3342 21.2991 82.4603 22.0762 82.7149 22.7601C82.9695 23.4464 83.3345 24.0373 83.8076 24.5351C84.2785 25.033 84.8304 25.4145 85.459 25.6774C86.0853 25.9403 86.7635 26.0729 87.4934 26.0729Z" fill="white"/>
<path id="Vector_3" d="M100.702 30.2999V10.5723H105.152L115.66 23.707H113.558V10.5723H118.854V30.3022H114.405L103.87 17.1675H105.972V30.3022H100.705L100.702 30.2999Z" fill="white"/>
<path id="Vector_4" d="M127.751 25.9612H137.741V30.3022H122.43V10.5723H137.387V14.9133H127.754V25.9612H127.751ZM127.368 18.2097H136.241V22.353H127.368V18.2097Z" fill="white"/>
<path id="Vector_5" d="M148.168 30.2999V10.5723H153.57V25.8775H164.524L162.661 30.3022H148.168V30.2999Z" fill="white"/>
<path id="Vector_6" d="M159.597 30.2998L168.03 10.5698H173.351L181.813 30.2998H176.19L169.584 13.3056H171.711L165.105 30.2998H159.592H159.597ZM164.209 26.438L165.601 22.3506H174.935L176.327 26.438H164.211H164.209Z" fill="white"/>
<path id="Vector_7" d="M183.095 30.2999V10.5723H187.545L198.053 23.707H195.951V10.5723H201.247V30.3022H196.798L186.263 17.1675H188.365V30.3022H183.097L183.095 30.2999Z" fill="white"/>
<path id="Vector_8" d="M204.82 30.2999V10.5723H213.855C215.948 10.5723 217.795 10.9771 219.397 11.7843C220.997 12.5939 222.247 13.7292 223.15 15.1948C224.052 16.6604 224.5 18.3982 224.5 20.4105C224.5 22.4228 224.052 24.1932 223.15 25.6658C222.249 27.1407 220.999 28.2829 219.397 29.0902C217.795 29.8998 215.948 30.3022 213.855 30.3022H204.82V30.2999ZM210.223 25.8472H213.58C214.691 25.8472 215.65 25.6309 216.459 25.2005C217.268 24.7678 217.901 24.1443 218.356 23.3254C218.811 22.5089 219.039 21.5458 219.039 20.4361C219.039 19.3264 218.809 18.3168 218.356 17.5188C217.901 16.7209 217.268 16.1044 216.459 15.6717C215.65 15.2413 214.691 15.0249 213.58 15.0249H210.223V25.8472Z" fill="white"/>
<path id="Vector_9" d="M40.2534 31.2023V30.6672C40.2421 27.8476 40.1948 14.6222 40.1948 14.4454C40.1948 8.52943 36.7681 3.43932 31.8499 1.18739C31.7237 1.12923 31.5953 1.0734 31.4691 1.01524C31.2551 0.915208 31.0298 0.836111 30.7932 0.750036C30.5792 0.670939 30.3652 0.594169 30.1489 0.52903C30.0408 0.496461 29.9326 0.463892 29.8245 0.433649C28.6484 0.107957 27.4183 -0.0688477 26.1431 -0.0688477C24.6968 -0.0688477 23.3067 0.159137 21.9932 0.575558C21.9819 0.575558 21.9707 0.58021 21.9662 0.58021C19.5059 1.37583 17.3318 2.8461 15.6556 4.78629C15.1059 5.42372 14.3579 5.84014 13.5379 5.93785C13.1368 5.9867 12.8282 6.0309 12.6232 6.06347C12.4294 6.09139 12.2312 6.12628 12.0329 6.16118C8.42817 6.79861 5.17265 8.94352 3.05712 12.0097C2.93096 12.1981 2.8093 12.3796 2.6989 12.5634C2.59977 12.7239 2.50515 12.8774 2.42404 13.0356C1.89911 13.9755 1.51385 14.9502 1.23674 15.9529C1.19844 16.1018 1.15338 16.2483 1.12184 16.4042C0.955118 17.0719 0.835712 17.7488 0.745593 18.4444C0.684764 18.9469 0.635199 19.4471 0.601404 19.9612C0.56761 20.4684 0.547333 20.9755 0.536069 21.4943C0.520298 21.8828 0.513539 22.276 0.513539 22.6691C0.509033 23.0576 0.509033 23.4438 0.509033 23.8439V38.2977C0.509033 38.3233 0.513539 38.3489 0.513539 38.3745C0.515792 38.4815 0.527057 38.5862 0.54508 38.6885C0.60591 39.0584 0.747846 39.3934 0.955118 39.6726C1.56342 40.4984 2.6944 40.8567 3.70372 40.3379L6.46134 38.9188L15.4416 34.3033C16.0364 33.9986 16.4126 33.3728 16.4126 32.6888V14.7478C16.3676 14.4687 16.2144 14.2174 15.9598 14.0918C15.1983 13.7103 13.8578 13.7033 12.9791 14.0522C12.648 14.1895 12.4317 14.5198 12.4317 14.8897V30.3973C12.4317 30.4904 12.4114 30.5811 12.3934 30.6695C12.3753 30.7626 12.3461 30.8533 12.3123 30.9394C12.301 30.965 12.292 30.9906 12.2785 31.0162C12.2469 31.0859 12.2109 31.1511 12.1681 31.2139C12.132 31.2651 12.0937 31.3139 12.0509 31.3605C12.0194 31.3953 11.9901 31.4349 11.9563 31.4675C11.8752 31.5419 11.7851 31.607 11.6859 31.6606C11.6769 31.6652 11.6724 31.6722 11.6634 31.6745L5.27854 34.9617C5.23798 34.9826 5.19518 34.9966 5.15237 35.0059C4.81893 35.0826 4.47874 34.8221 4.47874 34.4476V24.6396C4.47874 23.7555 4.47874 22.8785 4.46747 22.0061C4.45621 21.5501 4.45621 21.0825 4.47874 20.6219C4.66123 16.7462 6.31039 13.1496 9.73939 11.2513C10.6608 10.7441 11.6612 10.3975 12.693 10.2207C15.0609 9.81126 17.5774 10.2672 19.6254 11.5723C22.3086 13.2822 24.129 16.1367 24.316 19.4215C24.4151 21.1779 24.3318 22.9553 24.3318 24.7117V39.2259C24.3318 40.1611 25.0302 40.8521 25.839 40.9288C25.8548 40.9288 25.8705 40.9335 25.8886 40.9358C25.9246 40.9358 25.9607 40.9358 25.9967 40.9358C26.0305 40.9358 26.0643 40.9358 26.0981 40.9358C26.1161 40.9358 26.1341 40.9312 26.1499 40.9288C26.3437 40.9079 26.5374 40.8567 26.7267 40.759L26.8618 40.6892L26.8889 40.6776L30.7482 38.6932L38.05 34.9361L39.3455 34.2707C39.9087 33.9823 40.2624 33.389 40.2624 32.74V31.193L40.2579 31.2046L40.2534 31.2023ZM20.3598 7.3453H20.3756C20.3756 7.3453 20.3801 7.3453 20.3801 7.34996C20.3756 7.3453 20.3688 7.3453 20.3576 7.3453H20.3598Z" fill="white"/>
</g>
<defs>
<clipPath id="clip0_506_3190">
<rect width="224" height="41" fill="white" transform="translate(0.5)"/>
</clipPath>
</defs>
</svg>
