<svg width="184" height="45" viewBox="0 0 184 45" fill="none" xmlns="http://www.w3.org/2000/svg">
<g id="PANews" clip-path="url(#clip0_506_3200)">
<g id="_&#229;&#155;&#190;&#229;&#177;&#130;_2">
<g id="_&#229;&#155;&#190;&#229;&#177;&#130;_1-2">
<path id="Vector" d="M32.4888 34.0767L23.7721 30.2999V13.3458C23.8773 10.29 21.492 7.72777 18.4425 7.61685C15.3931 7.51148 12.8362 9.90179 12.7255 12.9576C12.7255 13.0852 12.7255 13.2127 12.7255 13.3458V25.5026L4.31877 21.8201C4.31877 21.8201 4.28003 13.3791 4.28003 13.1406C4.81686 5.33191 11.5744 -0.563453 19.3668 -0.0254941C26.412 0.462551 32.0184 6.08062 32.5054 13.1406L32.4833 34.0711L32.4888 34.0767Z" fill="white"/>
<path id="Vector_2" d="M28.5152 38.7521C28.244 38.7077 27.9839 38.6245 27.7404 38.5081L4.49042 27.1C3.62706 26.6453 3.37801 25.9742 3.93145 25.4806C4.70626 24.9981 5.68032 24.9648 6.49387 25.3863L29.7438 36.7777C30.6072 37.1937 30.8562 37.9258 30.3028 38.3972C29.7826 38.7576 29.135 38.8852 28.5152 38.7466V38.7521Z" fill="#E99214"/>
<path id="Vector_3" d="M19.6711 40.1553C19.3999 40.1109 19.1398 40.0277 18.8963 39.9057L1.53495 31.376C0.677117 30.949 0.422535 30.228 0.975974 29.7566C1.75079 29.2741 2.73037 29.2408 3.53839 29.6679L20.9053 38.192C21.7631 38.608 22.0122 39.34 21.4587 39.8115C20.9385 40.1664 20.2965 40.294 19.6822 40.1553H19.6711Z" fill="white"/>
<path id="Vector_4" d="M16.4337 44.2924C16.1681 44.248 15.9024 44.1648 15.6589 44.0484L4.47944 38.5579C3.61607 38.1253 3.36702 37.4487 3.92046 36.944C4.69528 36.4615 5.66933 36.4282 6.48288 36.8497L17.6623 42.3347C18.5202 42.7617 18.7692 43.4827 18.2158 43.9541C17.6955 44.309 17.0536 44.431 16.4392 44.2924H16.4337Z" fill="#DD5519"/>
<path id="Vector_5" d="M5.88515 44.8802C5.6195 44.8358 5.35939 44.7526 5.11588 44.6361L1.34696 42.7727C0.489129 42.3457 0.234547 41.6247 0.787986 41.1533C1.5628 40.6708 2.53685 40.6375 3.33934 41.0645L7.11932 42.9169C7.98269 43.3439 8.23173 44.0649 7.6783 44.5363C7.15253 44.9024 6.49947 45.0299 5.87962 44.8802H5.88515ZM76.8139 9.65771H81.3078L92.0334 34.3706H85.9013L83.7761 29.1352H74.1961L72.176 34.3706H66.1546L76.8139 9.65771ZM78.9003 16.8508L75.9062 24.5376H81.9276L78.8948 16.8508H78.9003Z" fill="white"/>
<g id="Clip path group">
<mask id="mask0_506_3200" style="mask-type:luminance" maskUnits="userSpaceOnUse" x="66" y="9" width="27" height="26">
<g id="clippath">
<path id="Vector_6" d="M76.8138 9.65771H81.3077L92.0333 34.3706H85.9012L83.776 29.1352H74.196L72.176 34.3706H66.1545L76.8138 9.65771ZM78.9002 16.8508L75.9061 24.5376H81.9275L78.8947 16.8508H78.9002Z" fill="white"/>
</g>
</mask>
<g mask="url(#mask0_506_3200)">
<g id="Group">
<path id="Vector_7" d="M85.9234 20.2949L81.8667 24.3601L81.9331 24.5376H81.6896L77.096 29.1407H83.7816L83.8148 29.2239L87.9877 25.0423L85.9234 20.2949ZM72.1428 34.3761L72.3254 33.9214L71.8716 34.3761H72.1428Z" fill="white"/>
<path id="Vector_8" d="M87.9379 24.9479L83.7539 29.1407H83.7816L85.7352 33.9601L90.0022 29.6842L87.9379 24.9424V24.9479Z" fill="#DD5519"/>
<path id="Vector_9" d="M89.9579 29.5957L85.6909 33.8716L85.9012 34.3763H91.978L92.0167 34.3431L89.9524 29.5957H89.9579Z" fill="#E99214"/>
</g>
</g>
</g>
<path id="Vector_10" d="M94.2139 9.59131H101.624L112.145 26.8171H112.212V9.59131H117.663V34.3707H110.529L99.7482 16.7345H99.6818V34.3707H94.2305L94.2194 9.59131H94.2139ZM137.515 31.4757C136.685 32.535 135.606 33.378 134.377 33.927C133.143 34.4927 131.803 34.7922 130.447 34.7922C129.208 34.7977 127.974 34.587 126.811 34.171C125.716 33.7773 124.708 33.1728 123.845 32.3908C122.998 31.6088 122.329 30.6605 121.864 29.6067C120.901 27.283 120.901 24.6763 121.864 22.3526C122.329 21.2989 123.004 20.356 123.845 19.5685C124.708 18.7865 125.716 18.182 126.811 17.7938C127.979 17.3723 129.208 17.1616 130.447 17.1726C131.565 17.156 132.678 17.3668 133.707 17.7938C134.659 18.1876 135.506 18.7976 136.187 19.5685C136.884 20.3838 137.421 21.3321 137.758 22.3526C138.14 23.5228 138.323 24.7484 138.312 25.9797V27.6046H126.313C126.479 28.5253 126.955 29.3571 127.664 29.9672C128.378 30.5606 129.285 30.8767 130.209 30.8435C130.968 30.8657 131.715 30.6715 132.368 30.2778C132.971 29.8896 133.502 29.3904 133.923 28.8136L137.52 31.4757H137.515ZM133.137 24.0829C133.176 23.2455 132.866 22.4302 132.274 21.8368C131.671 21.2157 130.835 20.8774 129.972 20.9051C129.451 20.894 128.931 20.9883 128.45 21.1824C128.034 21.3599 127.658 21.615 127.332 21.9255C127.027 22.2084 126.784 22.5467 126.612 22.9238C126.441 23.3009 126.341 23.7058 126.313 24.1217L133.137 24.0885V24.0829ZM139.446 17.5886H144.964L148.373 28.1204H148.445L151.301 17.5886H156.957L160.062 28.1204H160.128L163.261 17.5886H168.502L162.536 34.3763H157.433L153.952 23.2233H153.886L150.759 34.3763H145.556L139.435 17.5886H139.446ZM179.643 22.5301C178.929 21.6039 177.811 21.077 176.643 21.1103C176.2 21.1103 175.763 21.2157 175.37 21.4209C174.961 21.615 174.717 22.042 174.75 22.4968C174.75 22.9183 175.021 23.2843 175.425 23.4063C175.946 23.6337 176.488 23.8112 177.041 23.9276L179.145 24.4046C179.881 24.5765 180.589 24.8483 181.248 25.2199C181.901 25.5859 182.454 26.0961 182.869 26.7173C183.329 27.4826 183.55 28.3644 183.5 29.2573C183.55 30.2057 183.317 31.1485 182.825 31.9582C182.36 32.6515 181.746 33.2338 181.021 33.6442C180.251 34.0879 179.41 34.3929 178.536 34.5426C177.645 34.7146 176.743 34.8033 175.841 34.8033C174.64 34.8033 173.444 34.6314 172.287 34.3042C171.136 33.9936 170.09 33.378 169.255 32.5239L172.326 29.0133C172.763 29.5679 173.306 30.0282 173.931 30.3665C174.557 30.6882 175.248 30.849 175.951 30.8324C176.499 30.8435 177.047 30.7547 177.567 30.5773C178.004 30.4719 178.309 30.0726 178.292 29.6234C178.292 29.1963 178.043 28.8081 177.65 28.6417C177.136 28.3866 176.593 28.2036 176.034 28.0871L173.931 27.5991C173.201 27.4327 172.492 27.172 171.828 26.8226C171.169 26.4788 170.616 25.9741 170.207 25.3585C169.747 24.5932 169.526 23.7113 169.576 22.8184C169.548 21.9255 169.758 21.0437 170.173 20.2618C170.566 19.5796 171.109 18.9862 171.756 18.5425C172.442 18.0711 173.206 17.7272 174.014 17.522C174.861 17.3058 175.73 17.2004 176.604 17.2004C177.744 17.2004 178.879 17.3668 179.975 17.6773C181.071 17.9824 182.061 18.5813 182.836 19.4077L179.637 22.5301H179.643ZM52.1747 20.2839V9.70223H46.8506V34.4373H52.1747V20.2839ZM61.478 9.70223H55.3735L54.6983 14.3664H61.3783C63.0055 14.444 64.2562 15.825 64.1787 17.4555C64.1068 18.9751 62.8948 20.1897 61.3783 20.2618H53.8294L53.1543 24.7318H61.478C65.6343 24.8538 69.1043 21.5817 69.2261 17.4167C69.3479 13.2516 66.0826 9.77433 61.9263 9.65231C61.7768 9.65231 61.6274 9.65231 61.478 9.65231V9.70223Z" fill="white"/>
<g id="Clip path group_2">
<mask id="mask1_506_3200" style="mask-type:luminance" maskUnits="userSpaceOnUse" x="53" y="9" width="17" height="16">
<g id="clippath-1">
<path id="Vector_11" d="M61.4724 9.70226H55.368L54.6928 14.3664H61.3728C62.9999 14.4441 64.2507 15.825 64.1732 17.4555C64.1012 18.9751 62.8892 20.1897 61.3728 20.2618H53.8239L53.1487 24.7318H61.4724C65.6287 24.8538 69.0988 21.5817 69.2205 17.4167C69.3423 13.2517 66.077 9.77436 61.9207 9.65234C61.7713 9.65234 61.6218 9.65234 61.4724 9.65234V9.70226Z" fill="white"/>
</g>
</mask>
<g mask="url(#mask1_506_3200)">
<g id="Group_2">
<path id="Vector_12" d="M54.5931 20.2673H53.7851L53.1099 24.7373H53.1763L57.6591 20.2451L54.5931 20.2673ZM62.07 9.76873L57.4488 14.3996H61.3506C61.9538 14.3996 62.5405 14.5826 63.0275 14.932L66.3979 11.5545C65.1859 10.5063 63.6695 9.87965 62.07 9.76318V9.76873Z" fill="white"/>
<path id="Vector_13" d="M66.3148 11.4771L62.9444 14.8545C64.3003 15.7474 64.6711 17.5776 63.7801 18.9308C63.2377 19.7516 62.3245 20.2508 61.3394 20.2563H57.5484L53.1375 24.6931V24.7596H59.2031L68.7334 15.2039C68.3238 13.7454 67.4826 12.4476 66.3204 11.4771H66.3148Z" fill="#DD5519"/>
<path id="Vector_14" d="M61.4722 24.7762C65.612 24.7928 68.9824 21.4375 68.999 17.2891C68.999 16.546 68.8938 15.8083 68.6835 15.104L59.0537 24.7595H61.0738C61.19 24.7651 61.3283 24.7817 61.4722 24.7817V24.7762Z" fill="#E99214"/>
</g>
</g>
</g>
</g>
</g>
</g>
<defs>
<clipPath id="clip0_506_3200">
<rect width="183" height="45" fill="white" transform="translate(0.5)"/>
</clipPath>
</defs>
</svg>
