<svg width="645" height="90" viewBox="0 0 645 90" fill="none" xmlns="http://www.w3.org/2000/svg">
<path d="M8.32 0.399994H64.512L78.208 14.224V45.584L64.384 59.536H25.728V90H8.32V0.399994ZM56.576 44.944L61.056 40.464V19.472L56.576 14.992H25.728V44.944H56.576ZM106.533 0.399994H122.405L155.173 90H137.509L130.213 70.16H98.725L91.429 90H73.765L106.533 0.399994ZM126.373 55.824L114.469 21.776H114.213L102.693 55.824H126.373ZM234.595 60.304V90H217.187V64.272L209.507 55.696H181.603V90H164.195V0.399994H220.387L234.083 14.224V41.36L225.379 50.192L234.595 60.304ZM181.603 41.36H212.451L216.931 36.88V19.472L212.451 14.992H181.603V41.36ZM269.047 15.12H242.295V0.399994H313.207V15.12H286.455V90H269.047V15.12ZM323.445 0.399994H339.061L378.997 61.2H379.253V0.399994H396.021V90H380.405L340.469 29.328H340.213V90H323.445V0.399994ZM412.695 0.399994H477.463V15.12H430.103V37.776H473.751V52.24H430.103V75.28H477.463V90H412.695V0.399994ZM560.72 60.304V90H543.312V64.272L535.632 55.696H507.728V90H490.32V0.399994H546.512L560.208 14.224V41.36L551.504 50.192L560.72 60.304ZM507.728 41.36H538.576L543.056 36.88V19.472L538.576 14.992H507.728V41.36ZM574.775 76.176V63.376H591.927V70.928L596.151 75.152H622.647L626.999 70.8V55.952L622.775 51.728H588.855L575.031 37.904V14.224L588.855 0.399994H629.303L643.127 14.224V27.152H625.975V19.472L621.751 15.248H596.407L592.183 19.472V32.656L596.407 36.88H630.327L644.151 50.704V75.92L630.071 90H588.599L574.775 76.176Z" fill="url(#paint0_linear_107_1042)"/>
<defs>
<linearGradient id="paint0_linear_107_1042" x1="2.42144e-06" y1="46" x2="650" y2="46" gradientUnits="userSpaceOnUse">
<stop stop-color="#00FFB0"/>
<stop offset="1" stop-color="#CCFF00"/>
</linearGradient>
</defs>
</svg>
