<?xml version="1.0" encoding="utf-8"?>
<!-- Generator: Adobe Illustrator 27.6.1, SVG Export Plug-In . SVG Version: 6.00 Build 0)  -->
<svg version="1.1" id="圖層_1" xmlns="http://www.w3.org/2000/svg" xmlns:xlink="http://www.w3.org/1999/xlink" x="0px" y="0px"
	 viewBox="0 0 90 30" style="enable-background:new 0 0 90 30;" xml:space="preserve">
<style type="text/css">
	.st0{fill:#0C61FF;}
</style>
<path class="st0" d="M40.7,71.8c-0.5-8.1-10.6-11.8-11.6-12.1c0,0,0-0.1,0-0.1L39.6,49v-1.1c0-0.2-0.2-0.3-0.3-0.3H19.9v-8.2
	l-7.1,1.5v1.1h0.4c0,0,1.7,0,1.7,1.7v3.9H9.4c-0.1,0-0.2,0.1-0.2,0.2v2.5h5.7v13.5c0,4.2,2.7,7.2,7.5,6.8c1-0.1,1.9-0.4,2.7-1
	c0.4-0.2,0.6-0.6,0.6-1.1v-1.3c-1.6,1-2.9,1-2.9,1c-3,0-3-3.8-3-3.8v-14h13.9l-10,10.1c0,1.3,0,2.4,0,2.4c0,0,0,0.1,0,0.1h0
	c9.2,1.6,11.7,7.5,11.7,9.2c0,0,1,8.4-7.4,9c0,0-5.5,0.2-6.5-2c0-0.1,0-0.2,0.1-0.2l0,0c0.9-0.4,1.5-1.3,1.5-2.3c0-1.6-1-3-3.1-3
	c-1.7,0-3.1,1.3-3.1,3c0,0-0.8,7.1,11,6.9C41.5,83.1,40.7,71.8,40.7,71.8z"/>
<path class="st0" d="M44.6,6.7h-5.3v14.4H38V6.7h-5.3V5.6h11.9V6.7z M49.6,21.3c-1.9,0-3.6-1-4.5-2.7c-0.4-0.9-0.7-1.9-0.7-2.9v-0.5
	c0-1,0.2-2.1,0.6-3c0.4-0.8,1-1.6,1.8-2.1c0.7-0.5,1.6-0.8,2.5-0.8c1.4,0,2.5,0.5,3.3,1.4c0.8,1,1.2,2.3,1.2,3.9v0.7h-8.2v0.2
	c0,1.3,0.4,2.4,1.1,3.3c0.7,0.8,1.7,1.3,2.8,1.3c0.6,0,1.2-0.1,1.8-0.4c0.6-0.3,1.1-0.7,1.4-1.2l0.8,0.6
	C52.7,20.7,51.3,21.3,49.6,21.3z M49.3,10.5c-0.9,0-1.8,0.4-2.4,1c-0.7,0.7-1,1.6-1.2,2.8h6.9v-0.1c0-1.1-0.3-2-0.9-2.7
	C51.1,10.8,50.3,10.5,49.3,10.5z M57.6,20.1h7.5v1.1h-9.1v-0.9l7-9.5h-6.8V9.6h8.4v1L57.6,20.1z M66.9,15.2c0-1,0.2-2.1,0.6-3
	c0.4-0.8,1-1.6,1.8-2.1c0.8-0.5,1.7-0.8,2.7-0.7c1.5,0,2.8,0.5,3.7,1.6c1,1.1,1.4,2.5,1.4,4.3v0.3c0,1-0.2,2.1-0.6,3
	c-0.4,0.8-1,1.6-1.8,2.1c-0.8,0.5-1.7,0.7-2.7,0.7c-1.5,0-2.8-0.5-3.7-1.6c-1-1.1-1.4-2.5-1.4-4.3V15.2z M68.2,15.5
	c0,1.4,0.4,2.5,1.1,3.4s1.6,1.3,2.8,1.3c1.1,0,2.1-0.5,2.8-1.3c0.7-0.9,1.1-2,1.1-3.5v-0.2c0-0.8-0.2-1.7-0.5-2.4
	c-0.3-0.7-0.8-1.3-1.4-1.7c-0.6-0.4-1.3-0.6-2-0.6c-1.1,0-2.1,0.5-2.8,1.3c-0.7,0.9-1.1,2.1-1.1,3.5C68.2,15.3,68.2,15.5,68.2,15.5z
	 M86.7,18.2c0-0.6-0.3-1.2-0.8-1.5c-0.5-0.4-1.3-0.7-2.3-0.9c-0.8-0.2-1.6-0.4-2.4-0.7c-0.6-0.3-1-0.6-1.3-1
	c-0.3-0.4-0.4-0.9-0.4-1.5c0-0.9,0.4-1.7,1.1-2.2c0.8-0.6,1.7-0.9,2.9-0.9c1.3,0,2.3,0.3,3.1,1c0.8,0.6,1.2,1.5,1.2,2.5h-1.3
	c0-0.7-0.3-1.3-0.8-1.7c-0.6-0.4-1.3-0.7-2.1-0.7c-0.8,0-1.5,0.2-2,0.6c-0.5,0.3-0.8,0.9-0.8,1.5c0,0.5,0.2,1,0.6,1.3
	c0.4,0.3,1.2,0.6,2.3,0.9c1.1,0.3,1.9,0.5,2.5,0.8c0.5,0.2,0.9,0.6,1.2,1.1c0.8,1.3,0.4,2.9-0.8,3.8c-0.8,0.6-1.8,0.9-3.1,0.9
	c-1.3,0-2.4-0.3-3.3-1c-0.8-0.6-1.3-1.5-1.3-2.5h1.3c0,0.7,0.4,1.3,0.9,1.7c0.6,0.4,1.3,0.6,2.3,0.6c0.9,0,1.6-0.2,2.2-0.6
	C86.5,19.3,86.7,18.8,86.7,18.2z M23.3,22c-0.3-5.5-7.2-8-7.9-8.2c0,0,0,0,0-0.1l7.1-7.1V5.8c0-0.1-0.1-0.2-0.2-0.2H9.2V0L4.4,1v0.7
	h0.3c0,0,1.2,0,1.2,1.2v2.6H2.1C2.1,5.6,2,5.6,2,5.7v1.7h3.9v9.1c0,2.9,1.8,4.9,5.1,4.6c0.7-0.1,1.3-0.3,1.9-0.7
	c0.2-0.2,0.4-0.4,0.4-0.7v-0.9c-1,0.7-1.9,0.7-1.9,0.7c-2,0-2-2.6-2-2.6V7.4h9.4l-6.8,6.8c0,0.9,0,1.6,0,1.6c0,0,0,0,0,0h0
	c6.2,1,7.9,5.1,7.9,6.2c0,0,0.7,5.7-5,6.1c0,0-3.7,0.2-4.4-1.3c0,0,0-0.1,0-0.1l0,0c0.6-0.3,1-0.9,1-1.6c0-1.1-0.7-2-2.1-2
	c-1.1,0-2.1,0.9-2.1,2c0,0-0.5,4.8,7.5,4.7C23.9,29.6,23.3,22,23.3,22z"/>
<image style="overflow:visible;" width="805" height="988" xlink:href="../../../../../Downloads/A063AC10-A434-4BBC-8F7B-49CB5F2BE8F1.jpg"  transform="matrix(1 0 0 1 -1057.8198 -454.4202)">
</image>
</svg>
