<?xml version="1.0" encoding="utf-8"?>
<!-- Generator: Adobe Illustrator 27.6.1, SVG Export Plug-In . SVG Version: 6.00 Build 0)  -->
<svg version="1.1" id="圖層_1" xmlns="http://www.w3.org/2000/svg" xmlns:xlink="http://www.w3.org/1999/xlink" x="0px" y="0px"
	 viewBox="0 0 262.5 44.8" style="enable-background:new 0 0 262.5 44.8;" xml:space="preserve">
<style type="text/css">
	.st0{fill:#2779F5;}
	.st1{fill:#2E2D38;}
	.st2{fill:#FFFFFF;}
</style>
<g id="Group_20" transform="translate(-171.849 -272.717)">
	<g id="Group_12" transform="translate(356.748 274.608)">
		<path id="Path_20" class="st0" d="M29.2,32.9L14.5,0l-0.8,0l-4,9.5l6.6,15.9H3.1L0,32.6l19.4,0.3l3.7,8.9h10.1L29.2,32.9z"/>
	</g>
	<path id="Path_21" class="st0" d="M323.5,274.6h-18v30.1h18c11.1,0,18-5.8,18-15C341.6,280.4,334.6,274.6,323.5,274.6z M323,296.9
		h-7.8v-14.4h7.8c5.9,0,8.8,2.7,8.8,7.2C331.8,294.2,328.9,296.9,323,296.9z"/>
	<path id="Path_22" class="st0" d="M243.9,308.3l-1.7,1.6l-5.2,4.8l-1.5,1.4h0.8l1.2-1.1l5-4.7l2.2-2.1L243.9,308.3z"/>
	<path id="Path_23" class="st0" d="M247.4,308.3l-4.4,4.1l0,0l-4,3.7h0.8l3.6-3.4l4.8-4.5L247.4,308.3z"/>
	<path id="Path_24" class="st0" d="M249.2,309.9l-0.1,0.1l0,0l-5.1,4.7l0,0l-1.5,1.4h0.8l1-1l0,0l4.9-4.6L249.2,309.9z"/>
	<path id="Path_25" class="st0" d="M246.8,316.2l2.4-2.3v-0.7l-3.2,3H246.8z"/>
	<path id="Path_26" class="st0" d="M240.3,308.3l-4.3,4l-3.7,3.4v0.4h0.3l3.8-3.5l4.6-4.3L240.3,308.3z"/>
	<path id="Path_27" class="st0" d="M237.6,308.3h-0.8l-1.7,1.6l-2.8,2.6v0.7l3.2-3L237.6,308.3z"/>
	<path id="Path_28" class="st0" d="M233.3,308.3l-1,0.9v0.7l1.7-1.6L233.3,308.3z"/>
	<path id="Path_29" class="st0" d="M226.7,282.5l2-1.9v-0.7l-2.8,2.6H226.7z"/>
	<path id="Path_30" class="st0" d="M223.1,282.5l1.3-1.2l0,0l4.2-3.9v-0.7l-4.6,4.3l0,0l-1.7,1.6L223.1,282.5z"/>
	<path id="Path_31" class="st0" d="M219.6,282.5l3.8-3.5l0,0l4.6-4.3h-0.8l-4.2,3.8l0,0l-4.3,4L219.6,282.5z"/>
	<path id="Path_32" class="st0" d="M216.1,282.5l1.3-1.2l0,0l5.1-4.7l2-1.9h-0.8l-1.6,1.5l-5,4.7l-1.8,1.7L216.1,282.5z"/>
	<path id="Path_33" class="st0" d="M213.4,281.7l3.1-2.9l4.5-4.2h-0.8l-4,3.7l0,0l-2.8,2.6L213.4,281.7z"/>
	<path id="Path_34" class="st1" d="M213.4,278.4l2.2-2.1l0,0l1.9-1.7h-0.8l-1.5,1.4l0,0l-1.8,1.7V278.4z"/>
	<path id="Path_35" class="st1" d="M213.4,275.1l0.6-0.5h-0.6V275.1z"/>
	<g id="Group_13" transform="translate(305.594 304.702)">
		<path id="Path_36" class="st0" d="M8,10.9L8,10.9L8,10.9l-0.5,0.5h0.8l1.3-1.2V9.5L8,10.9z"/>
		<path id="Path_37" class="st0" d="M9.1,6.7l-2,1.8L7,8.6l0,0l-3,2.8h0.8l2.5-2.4l0,0l0,0l2.3-2.1V6.2L9.1,6.7z"/>
		<path id="Path_38" class="st0" d="M6.2,6.1L6.2,6.1L3.1,9l-2,1.8l-0.1,0.1l-0.5,0.5h0.8l0,0l0.1-0.1l3-2.8l2-1.8l0.1-0.1l3.1-2.9
			V2.9L6.2,6.1z"/>
		<path id="Path_39" class="st0" d="M5.7,0L4.3,1.3L4.2,1.4l-3,2.8L0,5.3V6l2.5-2.3l2-1.8l0,0L6.5,0L5.7,0z"/>
		<path id="Path_40" class="st0" d="M2.2,0L0,2v0.7L3,0H2.2z"/>
		<line id="Line_97" class="st0" x1="5.4" y1="4.2" x2="5.5" y2="4.2"/>
		<path id="Path_41" class="st0" d="M9.6,0H9.2l-2,1.9L5.4,3.6l0,0L5.2,3.7L0.1,8.4L0,8.5l0,0v0.7L0.3,9l0.1-0.1l5-4.6l0,0l3.1-2.8
			l1.1-1L9.6,0L9.6,0z"/>
	</g>
	<g id="Group_15" transform="translate(344.028 274.626)">
		<path id="Path_42" class="st0" d="M17.7,0l-0.3,0.7L18.2,0H17.7z"/>
		<path id="Path_43" class="st0" d="M17.6,3.8L21.7,0h-0.8l-3.6,3.4l0,0l-1.9,1.7l-0.5,1.2L17.6,3.8L17.6,3.8z"/>
		<path id="Path_44" class="st0" d="M18.5,6.2L18.5,6.2l5.1-4.7l0,0L25.2,0h-0.8l-1.1,1.1l0,0l-5.2,4.8l0,0l-5,4.7l-0.2,0.2
			l-0.5,1.2l1.1-1L18.5,6.2z"/>
		<path id="Path_45" class="st0" d="M14.3,13.4l5.2-4.8l0,0l5.1-4.7l-0.4-0.4l-5.1,4.7l0,0L14,13l-3.5,3.2l-0.5,1.2L14.3,13.4
			L14.3,13.4z"/>
		<path id="Path_46" class="st0" d="M15.3,15.7l5.1-4.7l2.2-2l0.5-1.2L20,10.7l-5,4.7l0,0l-5.2,4.8l0,0L8,21.8L7.4,23l2.7-2.5
			L15.3,15.7z"/>
		<path id="Path_47" class="st0" d="M16.2,18.1l4.1-3.8l0.5-1.2l-5,4.6l-5.1,4.7l0,0l-5.2,4.8l0,0l-0.1,0.1L5,28.6l1-0.9l0,0
			l5.2-4.8l0,0L16.2,18.1L16.2,18.1z"/>
		<path id="Path_48" class="st0" d="M18.2,19.6l0.5-1.2l-1.9,1.8l-5,4.7l-5.1,4.7L3,32.9l-0.5,1.2L7,30l0,0l5-4.7l0,0l5.1-4.7
			L18.2,19.6z"/>
		<path id="Path_49" class="st0" d="M13,27.7L13,27.7l3-2.8l0.5-1.2l-3.9,3.6l-5.1,4.7l-5,4.7l-1.9,1.7L0,39.7l2.8-2.6l0,0l5.1-4.7
			L13,27.7z"/>
		<path id="Path_50" class="st0" d="M14.2,29.1l-0.6,0.6l-5.1,4.7l0,0l-5.2,4.8l-2.5,2.3h0.8l2.1-2l0,0l5-4.7l0,0l5-4.6L14.2,29.1z"
			/>
		<g id="Group_14" transform="translate(4.339 34.469)">
			<path id="Path_51" class="st0" d="M5,2.4L0,7.1h0.8l4.6-4.2l0,0l1.8-1.7L7.6,0L5,2.4z"/>
		</g>
	</g>
	<g id="Group_17" transform="translate(393.314 273.914)">
		<path id="Path_52" class="st0" d="M9.7,21.5c0,0,0-0.3,0-0.4l-0.5,0.4H9.7z"/>
		<g id="Group_16" transform="translate(5.718 0.624)">
			<path id="Path_53" class="st0" d="M14.9,7.8l3.4-3.1l4.8-4.5c-0.2,0-0.4-0.1-0.6-0.2l-4.7,4.3l-3.9,3.6
				C14.3,7.9,14.6,7.8,14.9,7.8z"/>
			<path id="Path_54" class="st0" d="M4.4,17.5c0.1-0.3,0.1-0.6,0.2-0.9l-2,1.9L0,20.8h0.8l2.2-2L4.4,17.5z"/>
		</g>
		<path id="Path_55" class="st0" d="M12.9,12.3L12.9,12.3l5-4.7l5.2-4.8l2.8-2.6c-0.2,0-0.4-0.1-0.7-0.1l-2.6,2.4l-5,4.7L12.4,12
			l-5,4.7l0,0l-5.2,4.8H3L7.8,17L12.9,12.3z"/>
		<path id="Path_56" class="st0" d="M1.7,19.3l5-4.7l5.1-4.7l0,0L17,5.2l0,0l5.1-4.7L22.6,0c0,0-0.1,0-0.1,0c-0.2,0-0.5,0-0.7,0
			l-0.1,0.1l-5,4.7l-5.1,4.7l0,0l-5.2,4.8l0,0L1.3,19L0,20.2c0,0.2,0,0.5,0,0.7L1.7,19.3z"/>
		<path id="Path_57" class="st0" d="M10.9,7.5L16,2.8l0,0l2.7-2.5c-0.3,0-0.6,0.1-0.9,0.1l-2.1,2l0,0l-5.2,4.8l0,0l-5.1,4.7l0,0
			l-4.9,4.6c-0.1,0.3-0.1,0.6-0.2,0.9l0.5-0.4l5-4.7L10.9,7.5L10.9,7.5z"/>
		<path id="Path_58" class="st0" d="M5,9.8l5-4.7l4-3.7c-0.5,0.2-0.9,0.4-1.4,0.5L9.7,4.7l0,0L4.6,9.4l-2.3,2.2
			c-0.2,0.4-0.4,0.8-0.6,1.3L5,9.8z"/>
		<path id="Path_59" class="st0" d="M29.7,2.6L29.7,2.6l-5.2,4.8l0,0l-0.9,0.9c0.2,0,0.5,0,0.7,0l0.6-0.5l0,0L30,3l0,0l1.5-1.4
			c-0.2-0.1-0.4-0.1-0.6-0.2L29.7,2.6z"/>
		<path id="Path_60" class="st0" d="M33.3,2.4L30.6,5l-4,3.7c0.2,0.1,0.4,0.1,0.6,0.2L31,5.3l0,0l2.9-2.7
			C33.7,2.6,33.5,2.5,33.3,2.4z"/>
		<path id="Path_61" class="st0" d="M35.5,3.7l-4.1,3.8l-2.4,2.2c0.2,0.1,0.3,0.2,0.5,0.3l2.3-2.1L36,4C35.8,3.9,35.7,3.8,35.5,3.7z
			"/>
		<path id="Path_62" class="st0" d="M31.2,10.9c0.1,0.1,0.3,0.2,0.4,0.3l1.2-1.1l5-4.7c-0.1-0.1-0.3-0.2-0.4-0.3l-5.1,4.7L31.2,10.9
			z"/>
		<path id="Path_63" class="st0" d="M39.1,6.9l-0.7,0.7l0,0l-5.1,4.7l0.4,0.4l5.1-4.7l0.7-0.7C39.4,7.1,39.3,7,39.1,6.9z"/>
	</g>
	<path id="Path_64" class="st0" d="M185.1,282.5h-13.3v-7.8H208v7.8h-13.3v17.6h-9.6V282.5z"/>
	<path id="Path_65" class="st0" d="M232.3,308.3v7.8h-19.4v-6.2l22.8-27.5h-7v-7.8h19.7v6.2l-22.7,27.5L232.3,308.3z"/>
	<path id="Path_66" class="st0" d="M393.3,295.4h9.7c0,7.8,5.5,13.3,13.3,13.3c4.1,0,7.9-1.8,10.4-4.9l6.2,5.7
		c-3.9,4.8-9.9,7.4-17.1,7.4C402.9,316.9,393.3,307.9,393.3,295.4z"/>
	<path id="Path_67" class="st2" d="M404.4,294.6h-10.1v-0.2c0-12.6,9.6-21.7,22.7-21.7c7.2,0,13.3,2.6,17.2,7.4l0.1,0.1l-6.5,6
		l-0.1-0.2c-2.5-3.1-6.3-4.8-10.3-4.8c-7.7,0-13.1,5.4-13.1,13.1L404.4,294.6z M394.7,294.2h9.3c0.1-7.8,5.6-13.3,13.5-13.3
		c4,0,7.9,1.7,10.5,4.8l5.9-5.4c-3.9-4.6-9.8-7.1-16.8-7.1C404.2,273.1,394.8,282,394.7,294.2L394.7,294.2z"/>
	<path id="Path_68" class="st2" d="M352.4,314.7h-10.3l0.1-0.3l18.6-41.6l9.1,0L352.4,314.7z M342.7,314.3h9.4l17.2-41.1l-8.2,0
		L342.7,314.3z"/>
	<path id="Path_69" class="st2" d="M196.1,317.6h-10v-19.3h10L196.1,317.6z M186.5,317.2h9.2l0-18.5h-9.2V317.2z"/>
	<path id="Path_70" class="st2" d="M314.1,317.6h-10v-15.3h10L314.1,317.6z M304.6,317.2h9.2l0-14.5h-9.2L304.6,317.2z"/>
	<path id="Path_71" class="st2" d="M230.5,280.8l-18.5,0v-8h18.5L230.5,280.8z M212.4,280.4l17.7,0v-7.2h-17.7L212.4,280.4z"/>
	<path id="Path_72" class="st2" d="M250.3,315.1l-19.5,0v-8h19.5V315.1z M231.3,314.6l18.7,0v-7.2h-18.7V314.6z"/>
	<path id="Path_73" class="st0" d="M185.1,282.5h-13.3v-7.8H208v7.8h-13.3"/>
	<g id="Group_18" transform="translate(266.318 275.084)">
		<path id="Path_74" class="st0" d="M25.6,25.9l-0.2-0.5l-3.7,3.4l0,0l-4,3.7h0.8l3.7-3.4L25.6,25.9z"/>
		<path id="Path_75" class="st0" d="M14.2,0.5L14,0l-1,0.9l-0.5,1.2L14.2,0.5z"/>
		<path id="Path_76" class="st0" d="M26.6,28.2l-0.2-0.5l-3.8,3.5l-1.5,1.4h0.8l1.1-1L26.6,28.2z"/>
		<path id="Path_77" class="st0" d="M27.7,30.6l-0.2-0.5l-2.8,2.5h0.8L27.7,30.6z"/>
		<path id="Path_78" class="st0" d="M28.6,32.6l-0.1-0.3l-0.3,0.2L28.6,32.6z"/>
		<path id="Path_79" class="st0" d="M16,31.5l5-4.7l0,0l3.5-3.2l-0.2-0.5l-3.5,3.3l-5.1,4.7l-1.6,1.5h0.8L16,31.5L16,31.5z"/>
		<path id="Path_80" class="st0" d="M15,29.2l5.2-4.8l0,0l3.3-3.1l-0.2-0.5L19.9,24l0,0l-5.1,4.7l0,0l-4.2,3.9h0.8L15,29.2L15,29.2z
			"/>
		<path id="Path_81" class="st0" d="M22.5,19l-0.2-0.5l-3.4,3.1l0,0l-3.3,3.1l0.2,0.5l3.5-3.2L22.5,19z"/>
		<path id="Path_82" class="st0" d="M8.7,31.1L9,31.5l5.2-4.8l0,0l1.5-1.4h-0.8l-1.1,1L8.7,31.1z"/>
		<path id="Path_83" class="st0" d="M12.2,25.3h-0.8l-3.7,3.4l0,0l-4.2,3.9h0.8L8.2,29L12.2,25.3z"/>
		<path id="Path_84" class="st0" d="M21.5,16.7l-0.2-0.5l-3.3,3l-3.4,3.1l0.2,0.5l3.6-3.3L21.5,16.7z"/>
		<path id="Path_85" class="st0" d="M7.2,26.6l1.4-1.3H7.9l-1.1,1l-5,4.7l0,0L0,32.6h0.8l1.4-1.3L7.2,26.6z"/>
		<path id="Path_86" class="st0" d="M20.4,14.4l-0.2-0.5L17,16.8L13.6,20l0.2,0.5l3.7-3.4L20.4,14.4z"/>
		<path id="Path_87" class="st0" d="M19.4,12.1l-0.2-0.5l-3,2.8l-3.6,3.3l0.2,0.5l3.6-3.4L19.4,12.1z"/>
		<path id="Path_88" class="st0" d="M1.1,29l4-3.7H4.3L1.4,28l-0.5,1.2L1.1,29L1.1,29z"/>
		<path id="Path_89" class="st0" d="M15.5,12.4l2.8-2.6l-0.2-0.5l-2.9,2.7l0,0l-3.6,3.4l0.2,0.5L15.5,12.4L15.5,12.4z"/>
		<path id="Path_90" class="st0" d="M14.7,9.9l2.7-2.5l-0.2-0.5l-2.8,2.6l0,0l-3.7,3.4l0.2,0.5L14.7,9.9L14.7,9.9z"/>
		<path id="Path_91" class="st0" d="M13.7,7.6l2.6-2.4l-0.2-0.5l-2.7,2.5l0,0l-3.7,3.4l0.2,0.5L13.7,7.6L13.7,7.6z"/>
		<path id="Path_92" class="st0" d="M15.3,2.8L15,2.3l-2.6,2.4l-1.6,1.5l-0.5,1.2l2.6-2.4L15.3,2.8z"/>
	</g>
	<g id="Group_19" transform="translate(185.137 300.056)">
		<path id="Path_93" class="st0" d="M8.7,16.1l0.9-0.9v-0.7l-1.7,1.6H8.7z"/>
		<path id="Path_94" class="st0" d="M4.4,16.1h0.8L9.6,12l0,0l0,0v-0.7l-0.5,0.4L4.4,16.1z"/>
		<path id="Path_95" class="st0" d="M3.2,13.9l-2.4,2.2h0.8l1.9-1.8l0,0l5.1-4.7l1-0.9V8L8.2,9.2L3.2,13.9z"/>
		<path id="Path_96" class="st0" d="M7.4,6.8l-5.2,4.8l0,0l-2.2,2v0.7L2.6,12l0,0l5.2-4.8l1.9-1.7V4.7L7.4,6.8L7.4,6.8z"/>
		<path id="Path_97" class="st0" d="M1.3,9.1L0,10.3V11l1.7-1.6l5-4.7l0,0l2.9-2.7V1.4l-3.2,3L1.3,9.1z"/>
		<path id="Path_98" class="st0" d="M0.3,6.7L0.3,6.7L0,7.1v0.7l0.8-0.7l5.1-4.7L8.4,0H7.6L5.4,2L0.3,6.7z"/>
		<path id="Path_99" class="st0" d="M0,3.8v0.7L4.9,0H4.1L0,3.8z"/>
		<path id="Path_100" class="st0" d="M0.6,0L0,0.5v0.7L1.3,0L0.6,0z"/>
	</g>
	<path id="Path_101" class="st0" d="M270.6,274.6l-18.3,41.9h9.9l17.8-41.9L270.6,274.6z"/>
	<path id="Path_102" class="st0" d="M298.9,316.6l-4-8.9l-9.8,0l3.7,8.9H298.9z"/>
	<path id="Path_103" class="st2" d="M286.2,306.3h-21.6l3.3-7.7h15l-6.5-15.6l-4-9.7h9.1l14.7,33L286.2,306.3z M265.2,305.9h21
		l9.5,0l-14.4-32.2H273l3.8,9.2l6.7,16.2h-15.3L265.2,305.9z"/>
</g>
</svg>
