<svg width="350" height="62" viewBox="0 0 350 62" fill="none" xmlns="http://www.w3.org/2000/svg">
<g clip-path="url(#clip0_619_2897)">
<mask id="mask0_619_2897" style="mask-type:alpha" maskUnits="userSpaceOnUse" x="0" y="0" width="762" height="62">
<rect width="762" height="62" fill="url(#paint0_linear_619_2897)"/>
</mask>
<g mask="url(#mask0_619_2897)">
<path d="M370.31 0H349.64V20.67H370.31V0Z" fill="#181A20"/>
<path d="M287.98 0H267.31V20.67H287.98V0Z" fill="#181A20"/>
<path d="M205.65 0H184.98V20.67H205.65V0Z" fill="#181A20"/>
<path d="M123.33 0H102.66V20.67H123.33V0Z" fill="#181A20"/>
<path d="M41.0001 0H20.3301V20.67H41.0001V0Z" fill="#181A20"/>
<path d="M370.31 20.67H349.64V41.34H370.31V20.67Z" fill="#303030"/>
<path d="M287.98 20.67H267.31V41.34H287.98V20.67Z" fill="#303030"/>
<path d="M205.65 20.67H184.98V41.34H205.65V20.67Z" fill="#303030"/>
<path d="M123.33 20.67H102.66V41.34H123.33V20.67Z" fill="#303030"/>
<path d="M41.0001 20.67H20.3301V41.34H41.0001V20.67Z" fill="#303030"/>
<path d="M370.31 41.33H349.64V62H370.31V41.33Z" fill="#181A20"/>
<path d="M287.98 41.33H267.31V62H287.98V41.33Z" fill="#181A20"/>
<path d="M205.65 41.33H184.98V62H205.65V41.33Z" fill="#181A20"/>
<path d="M123.33 41.33H102.66V62H123.33V41.33Z" fill="#181A20"/>
<path d="M41.0001 41.33H20.3301V62H41.0001V41.33Z" fill="#181A20"/>
<path d="M329.32 0H308.65V20.67H329.32V0Z" fill="#181A20"/>
<path d="M246.99 0H226.32V20.67H246.99V0Z" fill="#181A20"/>
<path d="M164.66 0H143.99V20.67H164.66V0Z" fill="#181A20"/>
<path d="M82.3299 0H61.6599V20.67H82.3299V0Z" fill="#181A20"/>
<path d="M329.32 20.67H308.65V41.34H329.32V20.67Z" fill="#303030"/>
<path d="M246.99 20.67H226.32V41.34H246.99V20.67Z" fill="#303030"/>
<path d="M164.66 20.67H143.99V41.34H164.66V20.67Z" fill="#303030"/>
<path d="M82.3299 20.67H61.6599V41.34H82.3299V20.67Z" fill="#303030"/>
<path d="M329.32 41.33H308.65V62H329.32V41.33Z" fill="#181A20"/>
<path d="M246.99 41.33H226.32V62H246.99V41.33Z" fill="#181A20"/>
<path d="M164.66 41.33H143.99V62H164.66V41.33Z" fill="#181A20"/>
<path d="M82.3299 41.33H61.6599V62H82.3299V41.33Z" fill="#181A20"/>
<path d="M308.65 0H287.98V20.67H308.65V0Z" fill="#303030"/>
<path d="M226.32 0H205.65V20.67H226.32V0Z" fill="#303030"/>
<path d="M143.99 0H123.32V20.67H143.99V0Z" fill="#303030"/>
<path d="M61.66 0H40.99V20.67H61.66V0Z" fill="#303030"/>
<path d="M349.98 0H329.31V20.67H349.98V0Z" fill="#303030"/>
<path d="M267.65 0H246.98V20.67H267.65V0Z" fill="#303030"/>
<path d="M185.33 0H164.66V20.67H185.33V0Z" fill="#303030"/>
<path d="M103 0H82.3301V20.67H103V0Z" fill="#303030"/>
<path d="M20.67 0H0V20.67H20.67V0Z" fill="#303030"/>
<path d="M308.65 20.67H287.98V41.34H308.65V20.67Z" fill="#181A20"/>
<path d="M226.32 20.67H205.65V41.34H226.32V20.67Z" fill="#181A20"/>
<path d="M143.99 20.67H123.32V41.34H143.99V20.67Z" fill="#181A20"/>
<path d="M61.66 20.67H40.99V41.34H61.66V20.67Z" fill="#181A20"/>
<path d="M349.98 20.67H329.31V41.34H349.98V20.67Z" fill="#181A20"/>
<path d="M267.65 20.67H246.98V41.34H267.65V20.67Z" fill="#181A20"/>
<path d="M185.33 20.67H164.66V41.34H185.33V20.67Z" fill="#181A20"/>
<path d="M103 20.67H82.3301V41.34H103V20.67Z" fill="#181A20"/>
<path d="M20.67 20.67H0V41.34H20.67V20.67Z" fill="#181A20"/>
<path d="M308.65 41.33H287.98V62H308.65V41.33Z" fill="#303030"/>
<path d="M226.32 41.33H205.65V62H226.32V41.33Z" fill="#303030"/>
<path d="M143.99 41.33H123.32V62H143.99V41.33Z" fill="#303030"/>
<path d="M61.66 41.33H40.99V62H61.66V41.33Z" fill="#303030"/>
<path d="M349.98 41.33H329.31V62H349.98V41.33Z" fill="#303030"/>
<path d="M267.65 41.33H246.98V62H267.65V41.33Z" fill="#303030"/>
<path d="M185.33 41.33H164.66V62H185.33V41.33Z" fill="#303030"/>
<path d="M103 41.33H82.3301V62H103V41.33Z" fill="#303030"/>
<path d="M20.67 41.33H0V62H20.67V41.33Z" fill="#303030"/>
</g>
</g>
<defs>
<linearGradient id="paint0_linear_619_2897" x1="381" y1="0" x2="381" y2="62" gradientUnits="userSpaceOnUse">
<stop stop-color="white"/>
<stop offset="1" stop-color="white" stop-opacity="0"/>
</linearGradient>
<clipPath id="clip0_619_2897">
<rect width="350" height="62" fill="white"/>
</clipPath>
</defs>
</svg>
