<svg width="313" height="76" viewBox="0 0 313 76" fill="none" xmlns="http://www.w3.org/2000/svg">
<path fill-rule="evenodd" clip-rule="evenodd" d="M2.92429 72.9895C-0.988389 69.0527 -0.972619 62.6995 2.95898 58.7607C6.87218 54.8414 13.2046 54.8694 17.1288 58.8235C21.0052 62.728 20.991 69.1055 17.0978 73.0074C13.1767 76.9378 6.84012 76.9293 2.92429 72.9895Z" fill="#5F4CFF"/>
<path d="M17.0582 32.3573C13.1387 28.4491 6.84362 28.4554 2.92096 32.3552C2.82338 32.472 2.72431 32.5875 2.62526 32.7031C2.4132 32.9505 2.20124 33.1977 2.00417 33.4568C-1.38335 37.9203 -0.363521 44.481 4.20942 47.684C8.29767 50.546 13.5892 50.073 17.156 46.5253C20.0551 43.6427 24.5592 42.8377 28.2795 44.5237C29.5748 45.1107 30.6346 46.0049 31.6696 46.9608C35.7589 50.7386 42.3363 50.3127 45.9278 46.0635C49.3658 41.9948 49.1392 36.1288 45.3979 32.3573C41.5299 28.458 41.5194 22.1127 45.3743 18.1908C48.5436 14.9656 49.2664 10.2371 47.1873 6.32206C43.8088 -0.0406533 35.044 -0.884159 30.5478 4.72056C27.3206 8.74279 27.6445 14.5032 31.3053 18.1913C35.4278 22.3445 35.0913 29.2926 30.5888 33.0039C26.5526 36.3309 20.7643 36.0543 17.0582 32.3573Z" fill="#5F4CFF"/>
<path d="M2.95621 4.22256C-0.975919 8.1598 -0.986433 14.5114 2.93097 18.4482C6.83471 22.3706 13.155 22.3901 17.0461 18.492C20.9935 14.5368 21.0287 8.2015 17.124 4.27007C13.1966 0.315937 6.87782 0.294823 2.95621 4.22256Z" fill="#5F4CFF"/>
<path fill-rule="evenodd" clip-rule="evenodd" d="M84.835 34.9194C84.835 35.2502 85.1029 35.5181 85.4337 35.5181H91.163C93.0568 35.5181 94.4509 35.0986 95.3454 34.2584C96.2382 33.4183 96.6857 32.4265 96.6857 31.2819C96.6857 30.1384 96.2382 29.1638 95.3454 28.3597C94.4509 27.555 93.0568 27.1533 91.163 27.1533H85.4337C85.1029 27.1533 84.835 27.4211 84.835 27.7519V34.9194ZM84.2363 57.2361H77.9805C77.6502 57.2361 77.3818 56.9683 77.3818 56.637V20.299C77.3818 19.9688 77.6502 19.7004 77.9805 19.7004H92.5565C94.1292 19.7004 95.6132 20.0048 97.0079 20.6115C98.4015 21.2204 99.6257 22.0514 100.681 23.1056C101.735 24.1603 102.575 25.3845 103.201 26.7786C103.826 28.1728 104.139 29.6745 104.139 31.2827C104.139 32.8914 103.835 34.4114 103.228 35.8405C102.619 37.2712 101.789 38.5046 100.735 39.5405C99.6794 40.578 98.4461 41.3999 97.0348 42.0071C95.6218 42.6154 94.1292 42.9188 92.5565 42.9188H85.4336C85.1028 42.9188 84.835 43.1872 84.835 43.518V56.637C84.835 56.9683 84.5666 57.2361 84.2363 57.2361Z" fill="#5F4DFF"/>
<path fill-rule="evenodd" clip-rule="evenodd" d="M131.595 42.0768L128.656 35.4633C128.446 34.9894 127.773 34.9894 127.562 35.4633L124.623 42.0768C124.447 42.4727 124.737 42.9186 125.17 42.9186H131.048C131.482 42.9186 131.771 42.4727 131.595 42.0768ZM129.823 19.6807L146.179 56.3941C146.356 56.79 146.066 57.2369 145.633 57.2369H138.74C138.504 57.2369 138.289 57.0976 138.193 56.8814L135.452 50.7283C135.356 50.512 135.142 50.3727 134.905 50.3727H121.369C121.131 50.3727 120.917 50.5104 120.822 50.7288C120.4 51.6996 119.941 52.7334 119.449 53.8317C118.958 54.9225 118.518 55.9369 118.125 56.8739C118.032 57.0966 117.817 57.2369 117.576 57.2369H110.742C110.309 57.2369 110.019 56.7921 110.193 56.3968L126.343 19.6834C126.438 19.4656 126.653 19.3252 126.891 19.3252H129.276C129.512 19.3252 129.726 19.4645 129.823 19.6807Z" fill="#5F4DFF"/>
<path fill-rule="evenodd" clip-rule="evenodd" d="M204.277 20.3719L192.697 57.1928C192.617 57.4419 192.387 57.6118 192.125 57.6118H189.096C188.858 57.6118 188.642 57.4704 188.547 57.2515L179.224 35.8134C179.015 35.3341 178.336 35.333 178.126 35.8128L168.752 57.2525C168.656 57.4709 168.441 57.6118 168.203 57.6118H165.174C164.912 57.6118 164.681 57.4419 164.602 57.1923L153.074 20.4789C152.953 20.0927 153.241 19.7006 153.646 19.7006H160.167C160.429 19.7006 160.659 19.8695 160.738 20.118L167.038 39.9474C167.206 40.4745 167.938 40.5116 168.159 40.0038L176.965 19.6861C177.059 19.4667 177.275 19.3252 177.514 19.3252H179.785C180.023 19.3252 180.239 19.4661 180.334 19.685L189.193 40.0124C189.414 40.5191 190.145 40.4852 190.313 39.9587C191.298 36.8697 192.29 33.7275 193.288 30.5321C194.405 26.9585 195.513 23.4501 196.614 20.0077C196.693 19.7592 196.924 19.5931 197.184 19.5931H203.706C204.11 19.5931 204.399 19.9857 204.277 20.3719Z" fill="#5F4DFF"/>
<path fill-rule="evenodd" clip-rule="evenodd" d="M219.062 19.3252H221.468C221.637 19.3252 221.799 19.3973 221.913 19.5237L240.959 40.6869C241.327 41.0946 242.003 40.8348 242.003 40.2862V20.2998C242.003 19.969 242.271 19.7006 242.603 19.7006H248.805C249.136 19.7006 249.403 19.969 249.403 20.2998V57.0132C249.403 57.344 249.136 57.6118 248.805 57.6118H246.346C246.176 57.6118 246.014 57.5397 245.9 57.4133L226.907 36.3044C226.54 35.8967 225.863 36.156 225.863 36.7051V56.6378C225.863 56.9685 225.595 57.2364 225.264 57.2364H219.062C218.731 57.2364 218.463 56.9685 218.463 56.6378V19.9244C218.463 19.5936 218.731 19.3252 219.062 19.3252Z" fill="#5F4DFF"/>
<path fill-rule="evenodd" clip-rule="evenodd" d="M274.713 27.7527V34.1156C274.713 34.4464 274.981 34.7142 275.312 34.7142H286.287C286.617 34.7142 286.886 34.9826 286.886 35.3134V41.6231C286.886 41.9533 286.617 42.2217 286.287 42.2217H275.312C274.981 42.2217 274.713 42.4896 274.713 42.8209V56.637C274.713 56.9677 274.445 57.2361 274.115 57.2361H267.858C267.528 57.2361 267.26 56.9677 267.26 56.637V20.299C267.26 19.9682 267.528 19.7004 267.858 19.7004H290.791C291.121 19.7004 291.39 19.9682 291.39 20.299V26.5549C291.39 26.8857 291.121 27.1535 290.791 27.1535H275.312C274.981 27.1535 274.713 27.4219 274.713 27.7527Z" fill="#5F4DFF"/>
<path fill-rule="evenodd" clip-rule="evenodd" d="M305.599 56.637V20.299C305.599 19.9682 305.868 19.7004 306.198 19.7004H312.401C312.732 19.7004 312.999 19.9682 312.999 20.299V56.637C312.999 56.9677 312.732 57.2361 312.401 57.2361H306.198C305.868 57.2361 305.599 56.9677 305.599 56.637Z" fill="#5F4DFF"/>
</svg>
