<?xml version="1.0" encoding="UTF-8"?>
<svg id="Info" xmlns="http://www.w3.org/2000/svg" xmlns:xlink="http://www.w3.org/1999/xlink" viewBox="0 0 582.93 121">
  <defs>
    <style>
      .cls-1, .cls-2 {
        fill: none;
      }

      .cls-2 {
        opacity: 0;
        stroke: #000;
        stroke-miterlimit: 10;
      }

      .cls-3 {
        clip-path: url(#clippath);
      }

      .cls-4 {
        fill: #fff;
      }

      .cls-5 {
        fill: #86eae0;
      }

      .cls-6 {
        fill: #3fabd1;
      }
    </style>
    <clipPath id="clippath">
      <circle class="cls-1" cx="-4025.66" cy="2898.85" r="195.8"/>
    </clipPath>
  </defs>
  <g class="cls-3">
    <path class="cls-6" d="m3696.21-1462.09c0-214.11-70.96-411.62-190.57-570.41.05.08.11.14.17.21l-2057.97-2949.81c.18.29.34.58.52.87-78.67-121.76-184.56-224.11-308.87-299.03,0,0,0-.02-.01-.02-.04-.02-.07-.04-.1-.06-9.9-5.97-19.95-11.68-30.09-17.3-4.25-2.32-8.65-4.73-12.64-6.78-8.97-4.79-17.74-9.91-26.88-14.4l-.13.17c-126.34-62.35-268.42-97.62-418.86-97.62h-130.19c177.48,0,321.36,143.87,321.36,321.35,0,80.71-29.96,154.26-79.09,210.69h2.65L-5.86-3782.37c6.16,5.91,12.56,11.55,18.88,17.28-5.13-4.65-10.38-9.19-15.41-13.96L-4181.19,2184.06c-122.32,159.8-195.15,359.47-195.15,576.24v3386.67c0,221.37,76,424.86,203.04,586.28-.03-.04-.06-.06-.09-.1l1174.28,1665.32L3495.78-879.13s-.07.08-.1.12c125.53-160.92,200.53-363.17,200.53-583.08Z"/>
  </g>
  <g>
    <g>
      <path class="cls-4" d="m104.12,84.52c-.15-.15-.22-.33-.22-.54v-6.89c0-.34.11-.66.32-.96l20.6-27.94c.08-.08.1-.17.03-.26-.06-.08-.16-.13-.29-.13h-19.9c-.21,0-.39-.07-.54-.22-.15-.15-.22-.33-.22-.54v-6.19c0-.21.07-.39.22-.54s.33-.22.54-.22h29.53c.21,0,.39.07.54.22.15.15.22.33.22.54v6.89c0,.34-.11.66-.32.96l-20.6,27.94c-.04.09-.04.17,0,.25.04.09.13.13.25.13h19.9c.21,0,.39.07.54.22.15.15.22.33.22.54v6.19c0,.21-.08.39-.22.54s-.33.22-.54.22h-29.53c-.21,0-.39-.07-.54-.22Z"/>
      <path class="cls-4" d="m147.59,82.44c-2.55-1.87-4.3-4.42-5.23-7.65-.6-2-.89-4.17-.89-6.51,0-2.51.3-4.76.89-6.76.98-3.15,2.74-5.61,5.29-7.4,2.55-1.79,5.61-2.68,9.19-2.68s6.46.88,8.93,2.65c2.47,1.77,4.21,4.22,5.23,7.37.68,2.13,1.02,4.36,1.02,6.7s-.3,4.44-.89,6.44c-.94,3.32-2.67,5.92-5.2,7.81-2.53,1.89-5.58,2.84-9.15,2.84s-6.63-.94-9.19-2.81Zm12.76-6.19c.98-.85,1.68-2.02,2.11-3.51.34-1.36.51-2.85.51-4.47,0-1.79-.17-3.29-.51-4.53-.47-1.45-1.19-2.57-2.17-3.38-.98-.81-2.17-1.21-3.57-1.21s-2.65.4-3.6,1.21c-.96.81-1.65,1.94-2.07,3.38-.34,1.02-.51,2.53-.51,4.53s.15,3.4.45,4.47c.42,1.49,1.14,2.66,2.14,3.51,1,.85,2.22,1.28,3.67,1.28s2.59-.42,3.57-1.28Z"/>
      <path class="cls-4" d="m223.56,54.44c1.87,2,2.81,4.81,2.81,8.42v21.11c0,.21-.08.39-.22.54s-.33.22-.54.22h-7.46c-.21,0-.39-.07-.54-.22-.15-.15-.22-.33-.22-.54v-19.14c0-1.74-.45-3.13-1.34-4.15-.89-1.02-2.08-1.53-3.57-1.53s-2.7.51-3.64,1.53c-.94,1.02-1.4,2.38-1.4,4.08v19.2c0,.21-.08.39-.22.54s-.33.22-.54.22h-7.4c-.21,0-.39-.07-.54-.22-.15-.15-.22-.33-.22-.54v-19.14c0-1.7-.47-3.07-1.4-4.11-.94-1.04-2.15-1.56-3.64-1.56-1.36,0-2.5.4-3.41,1.21-.92.81-1.46,1.94-1.63,3.38v20.22c0,.21-.08.39-.22.54s-.33.22-.54.22h-7.46c-.21,0-.39-.07-.54-.22-.15-.15-.22-.33-.22-.54v-31.26c0-.21.07-.39.22-.54s.33-.22.54-.22h7.46c.21,0,.39.08.54.22.15.15.22.33.22.54v2.49c0,.13.04.21.13.26.08.04.17,0,.26-.13,1.74-2.59,4.44-3.89,8.1-3.89,2.13,0,3.99.45,5.58,1.34s2.82,2.17,3.67,3.83c.13.26.28.26.45,0,.93-1.74,2.2-3.04,3.79-3.89,1.59-.85,3.39-1.28,5.39-1.28,3.32,0,5.91,1,7.78,3Z"/>
      <path class="cls-4" d="m278.42,54.44c1.87,2,2.81,4.81,2.81,8.42v21.11c0,.21-.08.39-.22.54s-.33.22-.54.22h-7.46c-.21,0-.39-.07-.54-.22-.15-.15-.22-.33-.22-.54v-19.14c0-1.74-.45-3.13-1.34-4.15-.89-1.02-2.08-1.53-3.57-1.53s-2.7.51-3.64,1.53c-.94,1.02-1.4,2.38-1.4,4.08v19.2c0,.21-.08.39-.22.54s-.33.22-.54.22h-7.4c-.21,0-.39-.07-.54-.22-.15-.15-.22-.33-.22-.54v-19.14c0-1.7-.47-3.07-1.4-4.11-.94-1.04-2.15-1.56-3.64-1.56-1.36,0-2.5.4-3.41,1.21-.92.81-1.46,1.94-1.63,3.38v20.22c0,.21-.08.39-.22.54s-.33.22-.54.22h-7.46c-.21,0-.39-.07-.54-.22-.15-.15-.22-.33-.22-.54v-31.26c0-.21.07-.39.22-.54s.33-.22.54-.22h7.46c.21,0,.39.08.54.22.15.15.22.33.22.54v2.49c0,.13.04.21.13.26.08.04.17,0,.26-.13,1.74-2.59,4.44-3.89,8.1-3.89,2.13,0,3.99.45,5.58,1.34s2.82,2.17,3.67,3.83c.13.26.28.26.45,0,.93-1.74,2.2-3.04,3.79-3.89,1.59-.85,3.39-1.28,5.39-1.28,3.32,0,5.91,1,7.78,3Z"/>
      <path class="cls-4" d="m309.61,52.88c2.17.96,3.86,2.26,5.07,3.92s1.82,3.51,1.82,5.55v21.62c0,.21-.08.39-.22.54s-.33.22-.54.22h-7.46c-.21,0-.39-.07-.54-.22-.15-.15-.22-.33-.22-.54v-2.1c0-.13-.04-.21-.13-.25-.09-.04-.17,0-.25.13-1.79,2.34-4.66,3.51-8.61,3.51-3.32,0-6-.81-8.04-2.42-2.04-1.62-3.06-4-3.06-7.14s1.15-5.81,3.44-7.62c2.3-1.81,5.57-2.71,9.82-2.71h6.51c.21,0,.32-.11.32-.32v-1.4c0-1.4-.43-2.5-1.28-3.28-.85-.79-2.13-1.18-3.83-1.18-1.32,0-2.41.23-3.29.7-.87.47-1.44,1.13-1.69,1.98-.13.47-.4.68-.83.64l-7.72-1.02c-.51-.08-.74-.28-.7-.57.17-1.79.88-3.4,2.14-4.85,1.25-1.44,2.91-2.57,4.98-3.38,2.06-.81,4.37-1.21,6.92-1.21,2.76,0,5.23.48,7.4,1.44Zm-4.02,24.21c1.28-.98,1.91-2.23,1.91-3.76v-2.3c0-.21-.11-.32-.32-.32h-4.59c-1.91,0-3.41.36-4.5,1.08-1.08.72-1.63,1.74-1.63,3.06,0,1.15.4,2.05,1.21,2.71.81.66,1.89.99,3.25.99,1.83,0,3.38-.49,4.66-1.47Z"/>
    </g>
    <g>
      <path class="cls-4" d="m363.73,43.47c2.27,2.3,3.41,5.32,3.41,9.06s-1.16,6.68-3.48,8.93c-2.32,2.25-5.37,3.38-9.15,3.38h-12.44c-.17,0-.26.09-.26.25v19.01c0,.43-.21.64-.64.64h-3.25c-.43,0-.64-.21-.64-.64v-43.44c0-.42.21-.64.64-.64h16.78c3.74,0,6.75,1.15,9.03,3.44Zm-3.41,15.28c1.57-1.55,2.36-3.6,2.36-6.16s-.79-4.68-2.36-6.25c-1.57-1.57-3.62-2.36-6.12-2.36h-12.12c-.17,0-.26.09-.26.25v16.58c0,.17.08.26.26.26h12.12c2.51,0,4.55-.78,6.12-2.33Z"/>
      <path class="cls-4" d="m390.62,52.97c.34.17.47.45.38.83l-.7,3.13c-.13.43-.4.55-.83.38-.72-.3-1.55-.45-2.49-.45l-.83.06c-2.21.09-4.04.9-5.49,2.46-1.45,1.55-2.17,3.52-2.17,5.9v18.82c0,.43-.21.64-.64.64h-3.25c-.43,0-.64-.21-.64-.64v-31c0-.42.21-.64.64-.64h3.25c.42,0,.64.21.64.64v3.89c0,.13.03.2.1.22.06.02.12,0,.16-.1.89-1.57,2.03-2.8,3.41-3.67,1.38-.87,2.99-1.31,4.82-1.31,1.4,0,2.62.28,3.64.83Z"/>
      <path class="cls-4" d="m400.63,82.89c-2.21-1.57-3.74-3.74-4.59-6.51-.6-1.96-.89-4.57-.89-7.85s.3-5.87.89-7.78c.81-2.72,2.32-4.87,4.53-6.44,2.21-1.57,4.89-2.36,8.04-2.36s5.62.79,7.81,2.36c2.19,1.57,3.69,3.7,4.5,6.38.6,1.83.89,4.44.89,7.85s-.3,6.06-.89,7.85c-.81,2.77-2.31,4.93-4.5,6.51-2.19,1.57-4.82,2.36-7.88,2.36s-5.7-.79-7.91-2.36Zm13.14-3.28c1.45-1.13,2.42-2.65,2.93-4.56.38-1.53.57-3.68.57-6.44s-.17-4.95-.51-6.44c-.51-1.91-1.5-3.43-2.97-4.56-1.47-1.13-3.24-1.69-5.33-1.69s-3.85.56-5.29,1.69c-1.45,1.13-2.42,2.65-2.93,4.56-.34,1.49-.51,3.64-.51,6.44s.17,4.95.51,6.44c.47,1.91,1.43,3.43,2.9,4.56,1.47,1.13,3.26,1.69,5.39,1.69s3.79-.56,5.23-1.69Z"/>
      <path class="cls-4" d="m443.81,56.23h-7.21c-.17,0-.25.09-.25.26v18.82c0,2.04.46,3.48,1.37,4.31.91.83,2.35,1.24,4.31,1.24h1.59c.42,0,.64.21.64.64v2.62c0,.43-.21.64-.64.64-.51.04-1.3.06-2.36.06-3.06,0-5.38-.57-6.95-1.72-1.57-1.15-2.36-3.27-2.36-6.38v-20.22c0-.17-.08-.26-.25-.26h-3.89c-.43,0-.64-.21-.64-.64v-2.49c0-.42.21-.64.64-.64h3.89c.17,0,.25-.08.25-.26v-7.4c0-.42.21-.64.64-.64h3.12c.42,0,.64.21.64.64v7.4c0,.17.08.26.25.26h7.21c.42,0,.64.21.64.64v2.49c0,.43-.21.64-.64.64Z"/>
      <path class="cls-4" d="m456,82.89c-2.21-1.57-3.74-3.74-4.59-6.51-.6-1.96-.89-4.57-.89-7.85s.3-5.87.89-7.78c.81-2.72,2.32-4.87,4.53-6.44,2.21-1.57,4.89-2.36,8.04-2.36s5.62.79,7.81,2.36c2.19,1.57,3.69,3.7,4.5,6.38.6,1.83.89,4.44.89,7.85s-.3,6.06-.89,7.85c-.81,2.77-2.31,4.93-4.5,6.51-2.19,1.57-4.82,2.36-7.88,2.36s-5.7-.79-7.91-2.36Zm13.14-3.28c1.45-1.13,2.42-2.65,2.93-4.56.38-1.53.57-3.68.57-6.44s-.17-4.95-.51-6.44c-.51-1.91-1.5-3.43-2.97-4.56-1.47-1.13-3.24-1.69-5.33-1.69s-3.85.56-5.29,1.69c-1.45,1.13-2.42,2.65-2.93,4.56-.34,1.49-.51,3.64-.51,6.44s.17,4.95.51,6.44c.47,1.91,1.43,3.43,2.9,4.56,1.47,1.13,3.26,1.69,5.39,1.69s3.79-.56,5.23-1.69Z"/>
      <path class="cls-4" d="m490.03,82.86c-2.19-1.59-3.69-3.75-4.5-6.47-.55-1.87-.83-4.51-.83-7.91,0-3.06.28-5.66.83-7.78.76-2.64,2.25-4.75,4.46-6.35,2.21-1.59,4.85-2.39,7.91-2.39s5.79.79,8.07,2.36c2.27,1.57,3.75,3.53,4.43,5.87.21.77.34,1.4.38,1.91v.13c0,.3-.19.49-.57.57l-3.19.45h-.13c-.3,0-.49-.19-.57-.57l-.19-.96c-.38-1.62-1.32-2.99-2.81-4.11-1.49-1.13-3.3-1.69-5.42-1.69s-3.9.56-5.33,1.69c-1.42,1.13-2.35,2.63-2.77,4.5-.38,1.62-.57,3.76-.57,6.44s.19,4.98.57,6.51c.42,1.91,1.35,3.43,2.77,4.56,1.42,1.13,3.2,1.69,5.33,1.69s3.88-.54,5.39-1.63c1.51-1.08,2.46-2.48,2.84-4.18v-.25l.06-.26c.04-.42.3-.59.77-.51l3.13.51c.42.09.62.32.57.7l-.26,1.28c-.64,2.47-2.1,4.47-4.4,6-2.3,1.53-5,2.3-8.1,2.3s-5.69-.8-7.88-2.39Z"/>
      <path class="cls-4" d="m522.47,82.89c-2.21-1.57-3.74-3.74-4.59-6.51-.6-1.96-.89-4.57-.89-7.85s.3-5.87.89-7.78c.81-2.72,2.32-4.87,4.53-6.44,2.21-1.57,4.89-2.36,8.04-2.36s5.62.79,7.81,2.36c2.19,1.57,3.69,3.7,4.5,6.38.6,1.83.89,4.44.89,7.85s-.3,6.06-.89,7.85c-.81,2.77-2.31,4.93-4.5,6.51-2.19,1.57-4.82,2.36-7.88,2.36s-5.7-.79-7.91-2.36Zm13.14-3.28c1.45-1.13,2.42-2.65,2.93-4.56.38-1.53.57-3.68.57-6.44s-.17-4.95-.51-6.44c-.51-1.91-1.5-3.43-2.97-4.56-1.47-1.13-3.24-1.69-5.33-1.69s-3.85.56-5.29,1.69c-1.45,1.13-2.42,2.65-2.93,4.56-.34,1.49-.51,3.64-.51,6.44s.17,4.95.51,6.44c.47,1.91,1.43,3.43,2.9,4.56,1.47,1.13,3.26,1.69,5.39,1.69s3.79-.56,5.23-1.69Z"/>
      <path class="cls-4" d="m552.19,84.1v-43.38c0-.42.21-.64.64-.64h3.25c.42,0,.64.21.64.64v43.38c0,.43-.21.64-.64.64h-3.25c-.43,0-.64-.21-.64-.64Z"/>
    </g>
    <rect class="cls-2" x=".5" y=".5" width="581.93" height="120"/>
    <g>
      <path class="cls-5" d="m57.6,39.08l.81-1.07.81-1.07,6.48-8.64s0,0,0,0l1.34-1.79c-.4-.19-.84-.29-1.29-.29h-29.14c-.47,0-.93.11-1.34.32s-.78.51-1.06.88l-3.09,4.12-3.09,4.12c-.53.71-.54,1.56-.2,2.24.34.68,1.03,1.18,1.92,1.18h23.57s4.29,0,4.29,0Z"/>
      <path class="cls-5" d="m51.23,60.06c.08.45.27.87.54,1.24l15.47,20.63h8.89c0-.63-.2-1.27-.6-1.8l-12.4-16.54-11.84-15.79c-.08.27-.12.55-.12.84v10.86c0,.19.02.38.06.56Z"/>
      <path class="cls-6" d="m68.18,50.69l7.36-9.81c.81-1.06.79-2.55,0-3.6l-4.15-5.53c-.49-.66-2.81-3.74-3.25-4.33-.28-.38-.65-.68-1.06-.88-.02,0-.04-.02-.05-.03l-1.34,1.79s0,0,0,0l-6.48,8.64-.81,1.07-.81,1.07-5.83,7.77c-.22.29-.38.62-.48.96l9.52,12.7,7.36-9.81Z"/>
      <path class="cls-5" d="m47.41,74.78l-6.58-8.77c-.86-1.14-2.57-1.14-3.43,0l-10.59,14.12c-.81,1.07-.79,2.56,0,3.6l2.02,2.7,3.46,4.61s0,0,0,0l1.91,2.55c.28.38.65.68,1.06.88.02,0,.04.02.06.03h0s9.43-12.57,9.43-12.57h0l2.66-3.55c.8-1.07.8-2.53,0-3.6Z"/>
      <path class="cls-6" d="m72.71,81.93h-27.96s-9.43,12.57-9.43,12.57h0s0,0,0,0c.4.19.83.29,1.28.29h29.13c.94,0,1.83-.44,2.4-1.2l3.93-5.23h0c.14-.18,2.26-3.01,2.31-3.08h0s1.18-1.57,1.18-1.57c.39-.53.58-1.15.58-1.78h-3.43Z"/>
    </g>
  </g>
</svg>