<svg width="1201" height="1201" viewBox="0 0 1201 1201" fill="none" xmlns="http://www.w3.org/2000/svg">
<path fill-rule="evenodd" clip-rule="evenodd" d="M599.643 219.43L601.453 219.43C696.91 219.652 784.115 255.004 850.824 313.242C855.551 317.369 852.557 324.942 846.282 324.942L354.814 324.942C348.539 324.942 345.546 317.369 350.273 313.242C416.981 255.004 504.186 219.652 599.643 219.43Z" fill="white"/>
<path fill-rule="evenodd" clip-rule="evenodd" d="M452.439 703.825C449.715 699.941 445.329 697.5 440.585 697.5L243.658 697.5C237.953 697.5 233.794 702.909 235.412 708.38C282.037 865.935 427.864 980.89 600.54 980.89C773.216 980.89 919.043 865.935 965.668 708.38C967.286 702.909 963.127 697.5 957.422 697.5L760.498 697.5C755.754 697.5 751.368 699.941 748.644 703.825C715.951 750.444 661.805 780.921 600.542 780.921C539.278 780.921 485.133 750.444 452.439 703.825Z" fill="white"/>
<path fill-rule="evenodd" clip-rule="evenodd" d="M743.928 490.039C747.409 494.566 752.71 497.405 758.42 497.405L955.787 497.405C961.545 497.405 965.714 491.908 963.996 486.412C949.081 438.698 925.03 395.021 893.891 357.427C891.299 354.298 887.427 352.531 883.364 352.531L317.726 352.531C313.663 352.531 309.791 354.298 307.199 357.427C276.06 395.02 252.008 438.698 237.094 486.412C235.376 491.908 239.545 497.405 245.303 497.405L442.67 497.405C448.38 497.405 453.682 494.566 457.163 490.039C490.209 447.065 542.143 419.368 600.545 419.368C658.948 419.368 710.881 447.065 743.928 490.039Z" fill="white"/>
<path fill-rule="evenodd" clip-rule="evenodd" d="M775.206 669.889C771.478 669.889 768.945 666.09 770.233 662.592C777.396 643.13 781.308 622.096 781.308 600.148C781.308 576.222 776.659 553.381 768.216 532.48C766.792 528.955 769.329 525.016 773.13 525.016L966.727 525.016C970.873 525.016 974.453 527.94 975.19 532.019C979.185 554.126 981.27 576.897 981.27 600.154C981.27 621.479 979.517 642.393 976.147 662.762C975.463 666.899 971.855 669.889 967.662 669.889L775.206 669.889ZM430.853 662.592C432.141 666.09 429.607 669.889 425.88 669.889L233.423 669.889C229.23 669.889 225.623 666.899 224.938 662.762C221.569 642.393 219.815 621.478 219.815 600.154C219.815 576.897 221.901 554.126 225.895 532.019C226.632 527.94 230.212 525.016 234.358 525.016L427.956 525.016C431.757 525.016 434.293 528.955 432.87 532.48C424.426 553.381 419.778 576.222 419.778 600.148C419.778 622.096 423.689 643.13 430.853 662.592Z" fill="white"/>
</svg>
