<?xml version="1.0" encoding="utf-8"?>
<!-- Generator: Adobe Illustrator 25.1.0, SVG Export Plug-In . SVG Version: 6.00 Build 0)  -->
<svg version="1.1" id="圖層_1" xmlns="http://www.w3.org/2000/svg" xmlns:xlink="http://www.w3.org/1999/xlink" x="0px" y="0px"
	 viewBox="0 0 446.6 92.9" style="enable-background:new 0 0 446.6 92.9;" xml:space="preserve">
<style type="text/css">
	.st0{fill:#F29460;}
</style>
<g>
	<path class="st0" d="M9.2,58.8v1.5c0,0.2,0.1,0.3,0.2,0.4l1.3,0.8c0.1,0.1,0.3,0.1,0.5,0l21.8-12.7c0.3-0.2,0.3-0.6,0-0.8l-2.7-1.6
		c-0.1-0.1-0.3-0.1-0.5,0L9.4,58.4C9.3,58.5,9.2,58.6,9.2,58.8z"/>
	<path class="st0" d="M45.7,83.6h2.9c0.3,0,0.5-0.2,0.5-0.5V55.2c0-0.3-0.2-0.5-0.5-0.5h-2.9c-0.3,0-0.5,0.2-0.5,0.5v27.8
		C45.2,83.3,45.4,83.6,45.7,83.6z"/>
	<path class="st0" d="M85,59.9c0,8-4.5,15.5-12.1,19.8l-23,13.2c-0.3,0.2-0.8-0.1-0.8-0.4v-6.2c0-0.2,0.1-0.3,0.3-0.4l20.4-11.6
		c5.6-3.3,8.9-8.5,8.9-14.3c0-5.8-3.2-11-8.9-14.3l-0.5-0.3c-0.5-0.3-1-0.5-1.5-0.8c-0.1,0-0.1-0.1-0.1-0.2c0-0.1,0-0.1,0.1-0.2
		c0,0,0,0,0.1-0.1l2.1-1.2c1.2-0.7,2.3-1.5,3.3-2.3c0.2-0.2,0.4-0.2,0.6-0.1C80.8,44.9,85,52.1,85,59.9z"/>
	<path class="st0" d="M67.9,7.2l-5.3-3c-9.5-5.5-21.3-5.5-30.8,0L0.2,22.4C0.1,22.5,0,22.7,0,22.8v42.3c0,0.3,0.2,0.6,0.4,0.8
		l43.3,26.8c0.6,0.4,1.4-0.1,1.4-0.8v-5.3c0-0.3-0.2-0.6-0.4-0.8L6.9,62.4c-0.3-0.2-0.4-0.5-0.4-0.8V30.7c0-0.7,0.8-1.2,1.4-0.8
		l37.4,22.1c0.1,0.1,0.3,0.1,0.5,0.1h3.2c0.2,0,0.3,0,0.5-0.1l14.9-8.5l3.8-2.1c1-0.6,2-1.3,2.8-2C81,30.9,80,14.2,67.9,7.2z"/>
	<g>
		<path class="st0" d="M150.8,31.7c-0.6-0.5-1.3-0.8-2.1-0.8h-27.7v47.7h31V59.8l-3.5-8l3.5-5V34.3
			C151.9,33.3,151.5,32.4,150.8,31.7z M140.7,73.4h-8.5V54.6h8.5V73.4z M140.7,49.2h-8.5V36.3h7.4c0.6,0,1.1,0.5,1.1,1.1V49.2z"/>
		<path class="st0" d="M326.3,31L326.3,31h-26.8h0v47.7h0h30h0v-23l-3.5-5l3.5-5V34.3c0-0.9-0.3-1.7-0.9-2.3
			C328,31.3,327.2,31,326.3,31z M318.3,73.4h-7.6V53.5h7.6V73.4z M318.3,48.1h-7.6V36.3h6.5c0.7,0,1.1,0.4,1.1,1.1V48.1z"/>
		<rect x="159.5" y="31.4" class="st0" width="11.1" height="47.3"/>
		<rect x="247.2" y="31.4" class="st0" width="11.1" height="47.3"/>
		<rect x="337.1" y="31.4" class="st0" width="11.1" height="47.3"/>
		<path class="st0" d="M236.9,39.3h-14.5v-7.9h-11.1v47.4h28.8V42.5c0-0.9-0.3-1.7-0.9-2.3C238.5,39.6,237.8,39.3,236.9,39.3z
			 M229,73.9h-6.6V44.1h5.5c0.7,0,1.1,0.4,1.1,1.1V73.9z"/>
		<path class="st0" d="M378.5,36.5h-23v42.2h26.2V39.8c0-0.9-0.3-1.7-0.9-2.3C380.2,36.8,379.4,36.5,378.5,36.5z M371.6,73.9h-5.4
			V41.3h4.3c0.7,0,1.1,0.4,1.1,1.1V73.9z"/>
		<path class="st0" d="M388.8,37.3c-0.6,0.6-1,1.4-1,2.3v39.1h23.6v-4.8h-13.4V42.3c0-0.7,0.4-1.1,1.1-1.1h12.3v-4.9h-20.3
			C390.2,36.3,389.4,36.6,388.8,37.3z"/>
		<polygon class="st0" points="433.4,53.7 445.6,35.6 435.9,35.6 427.6,46.8 427.6,31.5 416.5,31.5 416.5,78.7 427.6,78.7 
			427.6,60.8 436.2,78.5 446.6,78.5 		"/>
		<path class="st0" d="M204.3,39.7c0-0.8-0.2-1.5-0.7-2.1c-0.7-0.8-1.5-1.2-2.5-1.2l-21.6-0.8v5.7l14,0c0.6,0,1.1,0.5,1.1,1.1v3.4
			l-16.1,0v32.9h9.8l7-1.4l0,1.4h9V39.7z M194.5,73.3h-7.1V50.9h6c0.6,0,1.1,0.5,1.1,1.1V73.3z"/>
		<path class="st0" d="M291.6,39.7c0-0.8-0.2-1.5-0.7-2.1c-0.7-0.8-1.5-1.2-2.5-1.2l-21.6-0.8v5.7l14,0c0.6,0,1.1,0.5,1.1,1.1v3.4
			l-16.1,0v32.9h9.8l7-1.4l0,1.4h9V39.7z M281.8,73.3h-7.1V50.9h6c0.6,0,1.1,0.5,1.1,1.1V73.3z"/>
	</g>
</g>
</svg>
