<svg width="396" height="198" viewBox="0 0 396 198" fill="none" xmlns="http://www.w3.org/2000/svg">
<path d="M73.7363 51H148.136V68.25H94.1363V97.35H140.936V114.6H94.1363V156H73.7363V51ZM181.359 51H199.959L238.359 156H217.659L209.109 132.75H172.209L163.659 156H142.959L181.359 51ZM204.609 115.95L190.659 76.05H190.359L176.859 115.95H204.609ZM336.884 164.4L324.284 177L303.134 156H262.484L245.234 138.75V68.25L262.484 51H316.484L333.734 68.25V138.75L322.634 149.85L336.884 164.4ZM305.684 138.6L313.334 130.95V76.05L305.684 68.4H273.284L265.634 76.05V130.95L273.284 138.6H305.684Z" fill="#030303"/>
<rect x="53" y="156" width="21" height="21" fill="#030303"/>
<rect x="339" y="21" width="21" height="21" fill="#030303"/>
<rect x="32" y="177" width="21" height="21" fill="#030303"/>
<rect y="145" width="21" height="21" fill="#030303"/>
<rect x="360" width="21" height="21" fill="#030303"/>
<rect x="375" y="47" width="21" height="21" fill="#030303"/>
</svg>
