<svg width="500" height="90" viewBox="0 0 500 90" fill="none" xmlns="http://www.w3.org/2000/svg">
<path d="M2.56 74.512V57.872H19.456V68.624L25.984 75.152H43.008L49.152 69.136V0.399994H66.56V75.024L51.584 90H17.92L2.56 74.512ZM82.57 74.64V0.399994H99.978V68.624L106.506 75.152H131.594L138.122 68.624V0.399994H155.53V74.64L140.17 90H97.93L82.57 74.64ZM172.195 0.399994H229.539L244.899 15.76V74.64L229.539 90H172.195V0.399994ZM220.963 75.152L227.491 68.624V21.776L220.963 15.248H189.603V75.152H220.963ZM259.04 75.28V15.12L273.76 0.399994H318.304L332.768 14.864V28.56H315.36V21.264L309.344 15.248H282.976L276.448 21.776V68.624L282.976 75.152H309.6L315.872 68.88V54.928H296.672V40.08H332.768V75.28L318.048 90H273.76L259.04 75.28ZM346.82 0.399994H411.588V15.12H364.228V37.776H407.876V52.24H364.228V75.28H411.588V90H346.82V0.399994ZM422.525 76.176V63.376H439.677V70.928L443.901 75.152H470.397L474.749 70.8V55.952L470.525 51.728H436.605L422.781 37.904V14.224L436.605 0.399994H477.053L490.877 14.224V27.152H473.725V19.472L469.501 15.248H444.157L439.933 19.472V32.656L444.157 36.88H478.077L491.901 50.704V75.92L477.821 90H436.349L422.525 76.176Z" fill="url(#paint0_linear_107_940)"/>
<defs>
<linearGradient id="paint0_linear_107_940" x1="1.8552e-06" y1="46" x2="498" y2="46" gradientUnits="userSpaceOnUse">
<stop stop-color="#E92126"/>
<stop offset="1" stop-color="#FBBC05"/>
</linearGradient>
</defs>
</svg>
