<svg width="180" height="40" viewBox="0 0 180 40" fill="none" xmlns="http://www.w3.org/2000/svg">
<g clip-path="url(#clip0_107_1056)">
<path d="M107.618 24.0034H104.447V39.9999H107.618V36.0012H110.322V33.3497H107.618V24.0034Z" fill="white"/>
<path d="M114.517 30.6983H110.322V33.3497H114.517V39.9999H117.688V24.0034H114.517V30.6983Z" fill="white"/>
<path d="M123.166 24.0034L120.486 26.631V37.3708L123.166 39.9983H131.559L134.24 37.3708V26.631L131.559 24.0034H123.166ZM131.07 36.1829L129.881 37.3484H124.845L123.656 36.1829V27.8188L124.845 26.6533H129.881L131.07 27.8188V36.1829Z" fill="white"/>
<path d="M147.154 36.1829L145.965 37.3484H141.396L140.207 36.1829V26.6549H142.899V24.0034H140.194V26.5672H137.037V37.2576L139.833 39.9999H147.527L150.324 37.2576V24.0034H147.154V36.1829Z" fill="white"/>
<path d="M156.944 30.5165L156.175 29.7623V27.409L156.944 26.6549H161.56L162.33 27.409V28.7802H165.454V26.4715L162.936 24.0034H155.57L153.052 26.4715V30.6998L155.57 33.1664H161.747L162.517 33.9205V36.572L161.723 37.3484H156.899L156.129 36.5943V35.247H153.005V37.5318L155.523 39.9999H163.076L165.64 37.4856V32.9846L163.122 30.5165H156.944Z" fill="white"/>
<path d="M180 26.631V24.0034H168.205V37.3724H171.375V33.2588H179.323V30.6759H171.375V26.631H180Z" fill="white"/>
<path d="M180 37.3723H171.375V39.9999H180V37.3723Z" fill="white"/>
<path d="M13.3229 30.7685V26.2899L10.9921 24.0051H0.758057V37.3964H3.8582V33.192H9.91859L10.9205 34.1741V36.4142L9.91859 37.3964H3.8582V40.0016H11.5272L14.0451 37.5335V33.3514L12.3893 31.706L13.3213 30.7685H13.3229ZM10.1984 29.8773L9.35907 30.7H3.8582V26.6088H9.38347L10.2 27.4091V29.8773H10.1984Z" fill="white"/>
<path d="M35.9818 24.0034H32.8118V39.9999H35.9818V24.0034Z" fill="white"/>
<path d="M42.2992 24.0034H39.1292V37.3708H42.2992V24.0034Z" fill="white"/>
<path d="M49.9521 37.3723H42.2993V39.9999H49.9521V37.3723Z" fill="white"/>
<path d="M52.2063 24.0034V37.3484H55.3764V26.6549H61.0887L62.2777 27.8204V36.1829L61.0887 37.3484H55.3764V39.9999H62.6502L65.4478 37.2576V26.7458L62.6502 24.0034H52.2063Z" fill="white"/>
<path d="M80.0409 39.9999V37.3723H71.4155L71.396 39.9999H80.0409Z" fill="white"/>
<path d="M68.2439 37.3484L71.4156 37.3724V33.2588H79.3644V30.6759H71.4156V26.631H80.041V24.0034H68.2439V37.3484Z" fill="white"/>
<path d="M95.0992 31.3169V26.4715L92.6042 24.0034H82.3701V37.3484H85.5402V33.8759H90.6231L92.0219 35.4065V39.9999H95.1919V34.6986L93.5134 32.8937L95.0992 31.3169ZM91.9747 30.5165L91.1582 31.3169H85.5402V26.6086H91.1582L91.9747 27.409V30.5165Z" fill="white"/>
<path d="M88.2466 37.3484H85.5417V39.9999H88.2466V37.3484Z" fill="white"/>
<path d="M26.4944 24.0034V36.1829L25.3054 37.3484H20.7365L19.5475 36.1829V26.6549H22.202V24.0034H19.4971V26.5672H16.3774V37.2576L19.1734 39.9999H26.8668L29.6644 37.2576V26.6549V24.0034H26.9612H26.4944Z" fill="white"/>
<path d="M17.2509 0.0158691L11.2832 16.0124H14.5005L15.8293 12.4712H21.5644L22.8933 16.0124H26.1105L20.1412 0.0158691H17.2509ZM20.2469 10.137H17.1679L16.3775 9.35898L18.6448 4.05764L21.039 9.35898L20.2486 10.137H20.2469Z" fill="white"/>
<path d="M10.2113 0H0V2.64349H4.87142V16.0108H8.04312V2.64349H10.2113V0Z" fill="white"/>
<path d="M31.0275 0.0158691H27.8574V16.0124H31.0275V0.0158691Z" fill="white"/>
<path d="M49.3745 0.0158691L47.3917 11.3041H47.299L44.1289 0.0158691H41.751L38.511 11.3041H38.4166L36.4355 0.0158691H33.2427L36.6226 16.0108H39.5828L42.8928 4.76874H42.9871L46.2271 16.0108H49.1874L52.5673 0.0158691H49.3745Z" fill="white"/>
<path d="M58.1855 0.0158691L52.2178 16.0124H55.435L56.7639 12.4712H62.499L63.8278 16.0124H67.0451L61.0758 0.0158691H58.1855ZM61.1815 10.137H58.1025L57.312 9.35898L59.5794 4.05764L61.9736 9.35898L61.1831 10.137H61.1815Z" fill="white"/>
<path d="M84.5985 0.0158691H81.8936V2.66734H84.5985V0.0158691Z" fill="white"/>
<path d="M71.7309 0.0158691H68.6763V16.0124H71.7309V0.0158691Z" fill="white"/>
<path d="M78.8404 13.3609L74.4341 0.0158691H71.7292L77.5099 16.0108H78.8404H81.8933V2.66574H78.8404V13.3609Z" fill="white"/>
<path d="M12.9226 2.64355H10.2112V5.3014H12.9226V2.64355Z" fill="white"/>
</g>
<defs>
<clipPath id="clip0_107_1056">
<rect width="180" height="40" fill="white"/>
</clipPath>
</defs>
</svg>
