<svg width="180" height="40" viewBox="0 0 180 40" fill="none" xmlns="http://www.w3.org/2000/svg">
<g clip-path="url(#clip0_107_1056)">
<path d="M107.618 24.0039H104.447V40.0004H107.618V36.0017H110.322V33.3502H107.618V24.0039Z" fill="black"/>
<path d="M114.517 30.6987H110.322V33.3502H114.517V40.0004H117.688V24.0039H114.517V30.6987Z" fill="black"/>
<path d="M123.166 24.0039L120.486 26.6315V37.3713L123.166 39.9988H131.559L134.24 37.3713V26.6315L131.559 24.0039H123.166ZM131.07 36.1834L129.881 37.3489H124.845L123.656 36.1834V27.8193L124.845 26.6538H129.881L131.07 27.8193V36.1834Z" fill="black"/>
<path d="M147.154 36.1834L145.965 37.3489H141.396L140.207 36.1834V26.6554H142.899V24.0039H140.194V26.5677H137.037V37.258L139.833 40.0004H147.527L150.324 37.258V24.0039H147.154V36.1834Z" fill="black"/>
<path d="M156.944 30.517L156.175 29.7628V27.4095L156.944 26.6554H161.56L162.33 27.4095V28.7807H165.454V26.472L162.936 24.0039H155.57L153.052 26.472V30.7003L155.57 33.1669H161.747L162.517 33.921V36.5725L161.723 37.3489H156.899L156.129 36.5948V35.2475H153.005V37.5323L155.523 40.0004H163.076L165.64 37.486V32.9851L163.122 30.517H156.944Z" fill="black"/>
<path d="M180 26.6315V24.0039H168.205V37.3728H171.375V33.2593H179.323V30.6764H171.375V26.6315H180Z" fill="black"/>
<path d="M180 37.373H171.375V40.0006H180V37.373Z" fill="black"/>
<path d="M13.3229 30.7693V26.2906L10.9921 24.0059H0.758057V37.3971H3.8582V33.1927H9.91859L10.9205 34.1749V36.415L9.91859 37.3971H3.8582V40.0024H11.5272L14.0451 37.5342V33.3522L12.3893 31.7068L13.3213 30.7693H13.3229ZM10.1984 29.878L9.35907 30.7007H3.8582V26.6095H9.38347L10.2 27.4099V29.878H10.1984Z" fill="black"/>
<path d="M35.9818 24.0039H32.8118V40.0004H35.9818V24.0039Z" fill="black"/>
<path d="M42.2992 24.0039H39.1292V37.3713H42.2992V24.0039Z" fill="black"/>
<path d="M49.9521 37.373H42.2993V40.0006H49.9521V37.373Z" fill="black"/>
<path d="M52.2063 24.0039V37.3489H55.3764V26.6554H61.0887L62.2777 27.8209V36.1834L61.0887 37.3489H55.3764V40.0004H62.6502L65.4478 37.258V26.7463L62.6502 24.0039H52.2063Z" fill="black"/>
<path d="M80.0409 40.0006V37.373H71.4155L71.396 40.0006H80.0409Z" fill="black"/>
<path d="M68.2439 37.3489L71.4156 37.3728V33.2593H79.3644V30.6764H71.4156V26.6315H80.041V24.0039H68.2439V37.3489Z" fill="black"/>
<path d="M95.0992 31.3174V26.472L92.6042 24.0039H82.3701V37.3489H85.5402V33.8764H90.6231L92.0219 35.407V40.0004H95.1919V34.6991L93.5134 32.8942L95.0992 31.3174ZM91.9747 30.517L91.1582 31.3174H85.5402V26.6091H91.1582L91.9747 27.4095V30.517Z" fill="black"/>
<path d="M88.2466 37.3486H85.5417V40.0001H88.2466V37.3486Z" fill="black"/>
<path d="M26.4944 24.0039V36.1834L25.3054 37.3489H20.7365L19.5475 36.1834V26.6554H22.202V24.0039H19.4971V26.5677H16.3774V37.258L19.1734 40.0004H26.8668L29.6644 37.258V26.6554V24.0039H26.9612H26.4944Z" fill="black"/>
<path d="M17.2509 0.015625L11.2832 16.0121H14.5005L15.8293 12.471H21.5644L22.8933 16.0121H26.1105L20.1412 0.015625H17.2509ZM20.2469 10.1368H17.1679L16.3775 9.35874L18.6448 4.0574L21.039 9.35874L20.2486 10.1368H20.2469Z" fill="black"/>
<path d="M10.2113 0H0V2.64349H4.87142V16.0108H8.04312V2.64349H10.2113V0Z" fill="black"/>
<path d="M31.0275 0.015625H27.8574V16.0121H31.0275V0.015625Z" fill="black"/>
<path d="M49.3745 0.015625L47.3917 11.3039H47.299L44.1289 0.015625H41.751L38.511 11.3039H38.4166L36.4355 0.015625H33.2427L36.6226 16.0105H39.5828L42.8928 4.76849H42.9871L46.2271 16.0105H49.1874L52.5673 0.015625H49.3745Z" fill="black"/>
<path d="M58.1855 0.015625L52.2178 16.0121H55.435L56.7639 12.471H62.499L63.8278 16.0121H67.0451L61.0758 0.015625H58.1855ZM61.1815 10.1368H58.1025L57.312 9.35874L59.5794 4.0574L61.9736 9.35874L61.1831 10.1368H61.1815Z" fill="black"/>
<path d="M84.5985 0.015625H81.8936V2.66709H84.5985V0.015625Z" fill="black"/>
<path d="M71.7309 0.015625H68.6763V16.0121H71.7309V0.015625Z" fill="black"/>
<path d="M78.8404 13.3606L74.4341 0.015625H71.7292L77.5099 16.0105H78.8404H81.8933V2.6655H78.8404V13.3606Z" fill="black"/>
<path d="M12.9226 2.64355H10.2112V5.3014H12.9226V2.64355Z" fill="black"/>
</g>
<defs>
<clipPath id="clip0_107_1056">
<rect width="180" height="40" fill="white"/>
</clipPath>
</defs>
</svg>
