<svg width="642" height="90" viewBox="0 0 642 90" fill="none" xmlns="http://www.w3.org/2000/svg">
<path d="M7.04 75.28V15.12L21.76 0.399994H67.84L82.56 15.12V75.28L67.84 90H21.76L7.04 75.28ZM58.624 75.152L65.152 68.624V21.776L58.624 15.248H30.976L24.448 21.776V68.624L30.976 75.152H58.624ZM89.03 0.399994H106.95L129.222 69.264H129.478L151.75 0.399994H169.67L137.798 90H120.902L89.03 0.399994ZM179.32 0.399994H244.088V15.12H196.728V37.776H240.376V52.24H196.728V75.28H244.088V90H179.32V0.399994ZM327.345 60.304V90H309.937V64.272L302.257 55.696H274.353V90H256.945V0.399994H313.137L326.833 14.224V41.36L318.129 50.192L327.345 60.304ZM274.353 41.36H305.201L309.681 36.88V19.472L305.201 14.992H274.353V41.36ZM334.405 0.399994H352.325L374.597 69.264H374.853L397.125 0.399994H415.045L383.173 90H366.277L334.405 0.399994ZM425.335 0.399994H442.743V90H425.335V0.399994ZM460.07 0.399994H524.838V15.12H477.478V37.776H521.126V52.24H477.478V75.28H524.838V90H460.07V0.399994ZM532.575 0.399994H550.111L560.991 63.632H561.503L579.295 0.399994H592.351L609.759 63.632H610.271L621.151 0.399994H638.687L620.127 90H603.871L586.079 27.024H585.567L567.391 90H551.135L532.575 0.399994Z" fill="url(#paint0_linear_107_902)"/>
<defs>
<linearGradient id="paint0_linear_107_902" x1="2.39164e-06" y1="46" x2="642" y2="46" gradientUnits="userSpaceOnUse">
<stop stop-color="#00FFB0"/>
<stop offset="1" stop-color="#CCFF00"/>
</linearGradient>
</defs>
</svg>
