<svg width="451" height="90" viewBox="0 0 451 90" fill="none" xmlns="http://www.w3.org/2000/svg">
<path d="M8.32 0.399994H64.512L78.208 14.224V45.584L64.384 59.536H25.728V90H8.32V0.399994ZM56.576 44.944L61.056 40.464V19.472L56.576 14.992H25.728V44.944H56.576ZM161.47 60.304V90H144.062V64.272L136.382 55.696H108.478V90H91.07V0.399994H147.262L160.958 14.224V41.36L152.254 50.192L161.47 60.304ZM108.478 41.36H139.326L143.806 36.88V19.472L139.326 14.992H108.478V41.36ZM178.085 0.399994H195.493V90H178.085V0.399994ZM208.98 76.176L254.932 15.248V14.992H210.26V0.399994H275.796V14.224L229.844 75.152V75.408H275.796V90H208.98V76.176ZM288.57 0.399994H353.338V15.12H305.978V37.776H349.626V52.24H305.978V75.28H353.338V90H288.57V0.399994ZM364.275 76.176V63.376H381.427V70.928L385.651 75.152H412.147L416.499 70.8V55.952L412.275 51.728H378.355L364.531 37.904V14.224L378.355 0.399994H418.803L432.627 14.224V27.152H415.475V19.472L411.251 15.248H385.907L381.683 19.472V32.656L385.907 36.88H419.827L433.651 50.704V75.92L419.571 90H378.099L364.275 76.176Z" fill="url(#paint0_linear_107_918)"/>
<defs>
<linearGradient id="paint0_linear_107_918" x1="1.63913e-06" y1="46" x2="440" y2="46" gradientUnits="userSpaceOnUse">
<stop stop-color="#E92126"/>
<stop offset="1" stop-color="#FBBC05"/>
</linearGradient>
</defs>
</svg>
