<svg width="655" height="90" viewBox="0 0 655 90" fill="none" xmlns="http://www.w3.org/2000/svg">
<path d="M6.4 76.176V63.376H23.552V70.928L27.776 75.152H54.272L58.624 70.8V55.952L54.4 51.728H20.48L6.656 37.904V14.224L20.48 0.399994H60.928L74.752 14.224V27.152H57.6V19.472L53.376 15.248H28.032L23.808 19.472V32.656L28.032 36.88H61.952L75.776 50.704V75.92L61.696 90H20.224L6.4 76.176ZM88.54 75.28V15.12L103.26 0.399994H147.036L161.5 14.864V28.56H144.092V21.264L138.076 15.248H112.476L105.948 21.776V68.624L112.476 75.152H138.076L144.092 69.136V61.84H161.5V75.536L147.036 90H103.26L88.54 75.28ZM173.695 0.399994H191.103V37.904H228.991V0.399994H246.399V90H228.991V52.752H191.103V90H173.695V0.399994ZM263.07 0.399994H327.838V15.12H280.478V37.776H324.126V52.24H280.478V75.28H327.838V90H263.07V0.399994ZM340.695 0.399994H398.039L413.399 15.76V74.64L398.039 90H340.695V0.399994ZM389.463 75.152L395.991 68.624V21.776L389.463 15.248H358.103V75.152H389.463ZM428.82 74.64V0.399994H446.228V68.624L452.756 75.152H477.844L484.372 68.624V0.399994H501.78V74.64L486.42 90H444.18L428.82 74.64ZM518.445 0.399994H535.853V75.28H580.653V90H518.445V0.399994ZM590.195 0.399994H654.963V15.12H607.603V37.776H651.251V52.24H607.603V75.28H654.963V90H590.195V0.399994Z" fill="url(#paint0_linear_107_926)"/>
<defs>
<linearGradient id="paint0_linear_107_926" x1="2.45869e-06" y1="46" x2="660" y2="46" gradientUnits="userSpaceOnUse">
<stop stop-color="#4285F4"/>
<stop offset="1" stop-color="#9747FF"/>
</linearGradient>
</defs>
</svg>
