<svg width="360" height="64" viewBox="0 0 360 64" fill="none" xmlns="http://www.w3.org/2000/svg">
<g clip-path="url(#clip0_604_2913)">
<mask id="mask0_604_2913" style="mask-type:alpha" maskUnits="userSpaceOnUse" x="-402" y="2" width="762" height="62">
<rect x="360" y="64" width="762" height="62" transform="rotate(-180 360 64)" fill="url(#paint0_linear_604_2913)"/>
</mask>
<g mask="url(#mask0_604_2913)">
<path d="M79.4899 64L100.75 64L100.75 42.6632L79.4899 42.6632L79.4899 64Z" fill="#181818"/>
<path d="M164.173 64L185.433 64L185.433 42.6632L164.173 42.6632L164.173 64Z" fill="#181818"/>
<path d="M248.855 64L270.115 64L270.115 42.6632L248.855 42.6632L248.855 64Z" fill="#181818"/>
<path d="M333.527 64L354.787 64L354.787 42.6632L333.527 42.6632L333.527 64Z" fill="#181818"/>
<path d="M79.4899 42.6631L100.75 42.6631L100.75 21.3263L79.4899 21.3263L79.4899 42.6631Z" fill="#303030"/>
<path d="M164.173 42.6631L185.433 42.6631L185.433 21.3263L164.173 21.3263L164.173 42.6631Z" fill="#303030"/>
<path d="M248.855 42.6631L270.115 42.6631L270.115 21.3263L248.855 21.3263L248.855 42.6631Z" fill="#303030"/>
<path d="M333.527 42.6631L354.787 42.6631L354.787 21.3263L333.527 21.3263L333.527 42.6631Z" fill="#303030"/>
<path d="M79.4899 21.3367L100.75 21.3367L100.75 -0.000104904L79.4899 -0.000106763L79.4899 21.3367Z" fill="#181818"/>
<path d="M164.173 21.3369L185.433 21.3369L185.433 0.000139236L164.173 0.000137378L164.173 21.3369Z" fill="#181818"/>
<path d="M248.855 21.3369L270.115 21.3369L270.115 0.000139236L248.855 0.000137378L248.855 21.3369Z" fill="#181818"/>
<path d="M333.527 21.3369L354.787 21.3369L354.787 0.000139236L333.527 0.000137378L333.527 21.3369Z" fill="#181818"/>
<path d="M121.652 64L142.912 64L142.912 42.6632L121.652 42.6632L121.652 64Z" fill="#181818"/>
<path d="M206.334 64L227.594 64L227.594 42.6632L206.334 42.6632L206.334 64Z" fill="#181818"/>
<path d="M291.016 64L312.276 64L312.276 42.6632L291.016 42.6632L291.016 64Z" fill="#181818"/>
<path d="M121.652 42.6631L142.912 42.6631L142.912 21.3263L121.652 21.3263L121.652 42.6631Z" fill="#303030"/>
<path d="M206.334 42.6631L227.594 42.6631L227.594 21.3263L206.334 21.3263L206.334 42.6631Z" fill="#303030"/>
<path d="M291.016 42.6631L312.276 42.6631L312.276 21.3263L291.016 21.3263L291.016 42.6631Z" fill="#303030"/>
<path d="M121.652 21.3367L142.912 21.3367L142.912 -0.000104904L121.652 -0.000106763L121.652 21.3367Z" fill="#181818"/>
<path d="M206.334 21.3369L227.594 21.3369L227.594 0.000139236L206.334 0.000137378L206.334 21.3369Z" fill="#181818"/>
<path d="M291.016 21.3369L312.276 21.3369L312.276 0.000139236L291.016 0.000137378L291.016 21.3369Z" fill="#181818"/>
<path d="M58.2296 64L79.4902 64L79.4902 42.6632L58.2297 42.6632L58.2296 64Z" fill="#303030"/>
<path d="M142.912 64L164.172 64L164.172 42.6632L142.912 42.6632L142.912 64Z" fill="#303030"/>
<path d="M227.594 64L248.855 64L248.855 42.6632L227.594 42.6632L227.594 64Z" fill="#303030"/>
<path d="M312.277 64L333.537 64L333.537 42.6632L312.277 42.6632L312.277 64Z" fill="#303030"/>
<path d="M100.401 64L121.662 64L121.662 42.6632L100.401 42.6632L100.401 64Z" fill="#303030"/>
<path d="M185.083 64L206.344 64L206.344 42.6632L185.083 42.6632L185.083 64Z" fill="#303030"/>
<path d="M269.756 64L291.016 64L291.016 42.6632L269.756 42.6632L269.756 64Z" fill="#303030"/>
<path d="M354.438 64L375.698 64L375.698 42.6632L354.438 42.6632L354.438 64Z" fill="#303030"/>
<path d="M58.2296 42.6631L79.4902 42.6631L79.4902 21.3263L58.2297 21.3263L58.2296 42.6631Z" fill="#181818"/>
<path d="M142.912 42.6631L164.172 42.6631L164.172 21.3263L142.912 21.3263L142.912 42.6631Z" fill="#181818"/>
<path d="M227.594 42.6631L248.855 42.6631L248.855 21.3263L227.594 21.3263L227.594 42.6631Z" fill="#181818"/>
<path d="M312.277 42.6631L333.537 42.6631L333.537 21.3263L312.277 21.3263L312.277 42.6631Z" fill="#181818"/>
<path d="M100.401 42.6631L121.662 42.6631L121.662 21.3263L100.401 21.3263L100.401 42.6631Z" fill="#181818"/>
<path d="M185.083 42.6631L206.344 42.6631L206.344 21.3263L185.083 21.3263L185.083 42.6631Z" fill="#181818"/>
<path d="M269.756 42.6631L291.016 42.6631L291.016 21.3263L269.756 21.3263L269.756 42.6631Z" fill="#181818"/>
<path d="M354.438 42.6631L375.698 42.6631L375.698 21.3263L354.438 21.3263L354.438 42.6631Z" fill="#181818"/>
<path d="M58.2296 21.3367L79.4902 21.3367L79.4902 -0.000104904L58.2297 -0.000106763L58.2296 21.3367Z" fill="#303030"/>
<path d="M142.912 21.3369L164.172 21.3369L164.172 0.000139236L142.912 0.000137378L142.912 21.3369Z" fill="#303030"/>
<path d="M227.594 21.3369L248.855 21.3369L248.855 0.000139236L227.594 0.000137378L227.594 21.3369Z" fill="#303030"/>
<path d="M312.277 21.3369L333.537 21.3369L333.537 0.000139236L312.277 0.000137378L312.277 21.3369Z" fill="#303030"/>
<path d="M100.401 21.3367L121.662 21.3367L121.662 -0.000104904L100.401 -0.000106763L100.401 21.3367Z" fill="#303030"/>
<path d="M185.083 21.3369L206.344 21.3369L206.344 0.000139236L185.083 0.000137378L185.083 21.3369Z" fill="#303030"/>
<path d="M269.756 21.3369L291.016 21.3369L291.016 0.000139236L269.756 0.000137378L269.756 21.3369Z" fill="#303030"/>
<path d="M354.438 21.3369L375.698 21.3369L375.698 0.000139236L354.438 0.000137378L354.438 21.3369Z" fill="#303030"/>
<path d="M36.9792 64L58.2397 64L58.2397 42.6632L36.9792 42.6632L36.9792 64Z" fill="#181818"/>
<path d="M36.9792 42.6631L58.2397 42.6631L58.2397 21.3263L36.9792 21.3263L36.9792 42.6631Z" fill="#303030"/>
<path d="M36.9792 21.3367L58.2397 21.3367L58.2397 -0.000104904L36.9792 -0.000106763L36.9792 21.3367Z" fill="#181818"/>
<path d="M-5.54184 64L15.7188 64L15.7188 42.6632L-5.54183 42.6632L-5.54184 64Z" fill="#181818"/>
<path d="M-5.54184 42.6631L15.7188 42.6631L15.7188 21.3263L-5.54183 21.3263L-5.54184 42.6631Z" fill="#303030"/>
<path d="M-5.54184 21.3367L15.7188 21.3367L15.7188 -0.000104904L-5.54183 -0.000106763L-5.54184 21.3367Z" fill="#181818"/>
<path d="M15.7185 64L36.979 64L36.979 42.6632L15.7185 42.6632L15.7185 64Z" fill="#303030"/>
<path d="M15.7185 42.6631L36.979 42.6631L36.979 21.3263L15.7185 21.3263L15.7185 42.6631Z" fill="#181818"/>
<path d="M15.7185 21.3367L36.979 21.3367L36.979 -0.000104904L15.7185 -0.000106763L15.7185 21.3367Z" fill="#303030"/>
</g>
</g>
<defs>
<linearGradient id="paint0_linear_604_2913" x1="741" y1="64" x2="741" y2="126" gradientUnits="userSpaceOnUse">
<stop stop-color="white"/>
<stop offset="1" stop-color="white" stop-opacity="0"/>
</linearGradient>
<clipPath id="clip0_604_2913">
<rect width="360" height="64" fill="white" transform="translate(360 64) rotate(-180)"/>
</clipPath>
</defs>
</svg>
