<svg width="360" height="64" viewBox="0 0 360 64" fill="none" xmlns="http://www.w3.org/2000/svg">
<g clip-path="url(#clip0_604_2799)">
<mask id="mask0_604_2799" style="mask-type:alpha" maskUnits="userSpaceOnUse" x="0" y="0" width="762" height="62">
<rect width="762" height="62" fill="url(#paint0_linear_604_2799)"/>
</mask>
<g mask="url(#mask0_604_2799)">
<path d="M380.89 0L359.63 0V21.3368L380.89 21.3368V0Z" fill="#181818"/>
<path d="M296.208 0L274.947 0V21.3368L296.208 21.3368V0Z" fill="#181818"/>
<path d="M211.526 0L190.265 0V21.3368L211.526 21.3368V0Z" fill="#181818"/>
<path d="M126.854 0L105.593 0V21.3368L126.854 21.3368V0Z" fill="#181818"/>
<path d="M42.1712 0L20.9106 0L20.9106 21.3368L42.1712 21.3368V0Z" fill="#181818"/>
<path d="M380.89 21.3368L359.63 21.3368V42.6736H380.89V21.3368Z" fill="#303030"/>
<path d="M296.208 21.3368L274.947 21.3368V42.6736H296.208V21.3368Z" fill="#303030"/>
<path d="M211.526 21.3368L190.265 21.3368V42.6736H211.526V21.3368Z" fill="#303030"/>
<path d="M126.854 21.3368L105.593 21.3368V42.6736H126.854V21.3368Z" fill="#303030"/>
<path d="M42.1712 21.3368L20.9106 21.3368L20.9106 42.6736H42.1712V21.3368Z" fill="#303030"/>
<path d="M380.89 42.6632H359.63V64H380.89V42.6632Z" fill="#181818"/>
<path d="M296.208 42.6632H274.947V64H296.208V42.6632Z" fill="#181818"/>
<path d="M211.526 42.6632H190.265V64H211.526V42.6632Z" fill="#181818"/>
<path d="M126.854 42.6632H105.593V64H126.854V42.6632Z" fill="#181818"/>
<path d="M42.1712 42.6632H20.9106L20.9106 64H42.1712V42.6632Z" fill="#181818"/>
<path d="M338.729 0L317.468 0V21.3368L338.729 21.3368V0Z" fill="#181818"/>
<path d="M254.047 0L232.786 0V21.3368L254.047 21.3368V0Z" fill="#181818"/>
<path d="M169.365 0L148.104 0V21.3368L169.365 21.3368V0Z" fill="#181818"/>
<path d="M84.682 0L63.4214 0V21.3368L84.682 21.3368V0Z" fill="#181818"/>
<path d="M338.729 21.3368L317.468 21.3368V42.6736H338.729V21.3368Z" fill="#303030"/>
<path d="M254.047 21.3368L232.786 21.3368V42.6736H254.047V21.3368Z" fill="#303030"/>
<path d="M169.365 21.3368L148.104 21.3368V42.6736H169.365V21.3368Z" fill="#303030"/>
<path d="M84.682 21.3368L63.4214 21.3368V42.6736H84.682V21.3368Z" fill="#303030"/>
<path d="M338.729 42.6632H317.468V64H338.729V42.6632Z" fill="#181818"/>
<path d="M254.047 42.6632H232.786V64H254.047V42.6632Z" fill="#181818"/>
<path d="M169.365 42.6632H148.104V64H169.365V42.6632Z" fill="#181818"/>
<path d="M84.682 42.6632H63.4214V64H84.682V42.6632Z" fill="#181818"/>
<path d="M317.469 0L296.208 0V21.3368L317.469 21.3368V0Z" fill="#303030"/>
<path d="M232.786 0L211.525 0V21.3368L232.786 21.3368V0Z" fill="#303030"/>
<path d="M148.104 0L126.843 0V21.3368L148.104 21.3368V0Z" fill="#303030"/>
<path d="M63.4217 0L42.1611 0V21.3368L63.4217 21.3368V0Z" fill="#303030"/>
<path d="M359.979 0L338.719 0V21.3368L359.979 21.3368V0Z" fill="#303030"/>
<path d="M275.297 0L254.037 0V21.3368L275.297 21.3368V0Z" fill="#303030"/>
<path d="M190.625 0L169.364 0V21.3368L190.625 21.3368V0Z" fill="#303030"/>
<path d="M105.943 0L84.6821 0V21.3368L105.943 21.3368V0Z" fill="#303030"/>
<path d="M21.2606 0L0 0L0 21.3368L21.2606 21.3368L21.2606 0Z" fill="#303030"/>
<path d="M317.469 21.3368L296.208 21.3368V42.6736H317.469V21.3368Z" fill="#181818"/>
<path d="M232.786 21.3368L211.525 21.3368V42.6736H232.786V21.3368Z" fill="#181818"/>
<path d="M148.104 21.3368L126.843 21.3368V42.6736H148.104V21.3368Z" fill="#181818"/>
<path d="M63.4217 21.3368L42.1611 21.3368V42.6736H63.4217V21.3368Z" fill="#181818"/>
<path d="M359.979 21.3368L338.719 21.3368V42.6736H359.979V21.3368Z" fill="#181818"/>
<path d="M275.297 21.3368L254.037 21.3368V42.6736H275.297V21.3368Z" fill="#181818"/>
<path d="M190.625 21.3368L169.364 21.3368V42.6736H190.625V21.3368Z" fill="#181818"/>
<path d="M105.943 21.3368L84.6821 21.3368V42.6736H105.943V21.3368Z" fill="#181818"/>
<path d="M21.2606 21.3368L0 21.3368L0 42.6736H21.2606L21.2606 21.3368Z" fill="#181818"/>
<path d="M317.469 42.6632H296.208V64H317.469V42.6632Z" fill="#303030"/>
<path d="M232.786 42.6632H211.525V64H232.786V42.6632Z" fill="#303030"/>
<path d="M148.104 42.6632H126.843V64H148.104V42.6632Z" fill="#303030"/>
<path d="M63.4217 42.6632H42.1611V64H63.4217V42.6632Z" fill="#303030"/>
<path d="M359.979 42.6632H338.719V64H359.979V42.6632Z" fill="#303030"/>
<path d="M275.297 42.6632H254.037V64H275.297V42.6632Z" fill="#303030"/>
<path d="M190.625 42.6632H169.364V64H190.625V42.6632Z" fill="#303030"/>
<path d="M105.943 42.6632H84.6821V64H105.943V42.6632Z" fill="#303030"/>
<path d="M21.2606 42.6632H0L0 64H21.2606L21.2606 42.6632Z" fill="#303030"/>
</g>
</g>
<defs>
<linearGradient id="paint0_linear_604_2799" x1="381" y1="0" x2="381" y2="62" gradientUnits="userSpaceOnUse">
<stop stop-color="white"/>
<stop offset="1" stop-color="white" stop-opacity="0"/>
</linearGradient>
<clipPath id="clip0_604_2799">
<rect width="360" height="64" fill="white"/>
</clipPath>
</defs>
</svg>
