<svg width="1440" height="118" viewBox="0 0 1440 118" fill="none" xmlns="http://www.w3.org/2000/svg">
<mask id="mask0_540_3981" style="mask-type:alpha" maskUnits="userSpaceOnUse" x="0" y="-1" width="1440" height="119">
<rect x="1440" y="118" width="1440" height="118" transform="rotate(-180 1440 118)" fill="url(#paint0_linear_540_3981)"/>
</mask>
<g mask="url(#mask0_540_3981)">
<path d="M739.852 106L778.933 106L778.933 70.6609L739.852 70.6609L739.852 106Z" fill="#181818"/>
<path d="M895.514 106L934.595 106L934.595 70.6609L895.514 70.6609L895.514 106Z" fill="#181818"/>
<path d="M1051.18 106L1090.26 106L1090.26 70.6609L1051.18 70.6609L1051.18 106Z" fill="#181818"/>
<path d="M1206.82 106L1245.9 106L1245.9 70.6609L1206.82 70.6609L1206.82 106Z" fill="#181818"/>
<path d="M1362.48 106L1401.56 106L1401.56 70.6609L1362.48 70.6609L1362.48 106Z" fill="#181818"/>
<path d="M739.852 70.6609L778.933 70.6609L778.933 35.3218L739.852 35.3218L739.852 70.6609Z" fill="#303030"/>
<path d="M895.514 70.6609L934.595 70.6609L934.595 35.3218L895.514 35.3218L895.514 70.6609Z" fill="#303030"/>
<path d="M1051.18 70.6609L1090.26 70.6609L1090.26 35.3218L1051.18 35.3218L1051.18 70.6609Z" fill="#303030"/>
<path d="M1206.82 70.661L1245.9 70.661L1245.9 35.3219L1206.82 35.3219L1206.82 70.661Z" fill="#303030"/>
<path d="M1362.48 70.661L1401.56 70.661L1401.56 35.3219L1362.48 35.3219L1362.48 70.661Z" fill="#303030"/>
<path d="M739.852 35.3391L778.933 35.3391L778.933 4.95911e-05L739.852 4.61745e-05L739.852 35.3391Z" fill="#181818"/>
<path d="M895.514 35.3391L934.595 35.3391L934.595 4.95911e-05L895.514 4.61745e-05L895.514 35.3391Z" fill="#181818"/>
<path d="M1051.18 35.3391L1090.26 35.3391L1090.26 4.95911e-05L1051.18 4.61745e-05L1051.18 35.3391Z" fill="#181818"/>
<path d="M1206.82 35.3391L1245.9 35.3391L1245.9 4.95911e-05L1206.82 4.61745e-05L1206.82 35.3391Z" fill="#181818"/>
<path d="M1362.48 35.3391L1401.56 35.3391L1401.56 4.95911e-05L1362.48 4.61745e-05L1362.48 35.3391Z" fill="#181818"/>
<path d="M817.353 106L856.434 106L856.434 70.6609L817.353 70.6609L817.353 106Z" fill="#181818"/>
<path d="M973.014 106L1012.1 106L1012.1 70.6609L973.014 70.6609L973.014 106Z" fill="#181818"/>
<path d="M1128.68 106L1167.76 106L1167.76 70.6609L1128.68 70.6609L1128.68 106Z" fill="#181818"/>
<path d="M1284.34 106L1323.42 106L1323.42 70.6611L1284.34 70.6611L1284.34 106Z" fill="#181818"/>
<path d="M817.353 70.6609L856.434 70.6609L856.434 35.3218L817.353 35.3218L817.353 70.6609Z" fill="#303030"/>
<path d="M973.014 70.6609L1012.1 70.6609L1012.1 35.3218L973.014 35.3218L973.014 70.6609Z" fill="#303030"/>
<path d="M1128.68 70.6609L1167.76 70.6609L1167.76 35.3218L1128.68 35.3218L1128.68 70.6609Z" fill="#303030"/>
<path d="M1284.34 70.661L1323.42 70.661L1323.42 35.3219L1284.34 35.3219L1284.34 70.661Z" fill="#303030"/>
<path d="M817.353 35.3391L856.434 35.3391L856.434 4.95911e-05L817.353 4.61745e-05L817.353 35.3391Z" fill="#181818"/>
<path d="M973.014 35.3391L1012.1 35.3391L1012.1 4.95911e-05L973.014 4.61745e-05L973.014 35.3391Z" fill="#181818"/>
<path d="M1128.68 35.3391L1167.76 35.3391L1167.76 4.95911e-05L1128.68 4.61745e-05L1128.68 35.3391Z" fill="#181818"/>
<path d="M1284.34 35.3391L1323.42 35.3391L1323.42 4.95911e-05L1284.34 4.61745e-05L1284.34 35.3391Z" fill="#181818"/>
<path d="M700.771 106L739.852 106L739.852 70.6608L700.771 70.6608L700.771 106Z" fill="#303030"/>
<path d="M856.434 106L895.514 106L895.514 70.6609L856.434 70.6609L856.434 106Z" fill="#303030"/>
<path d="M1012.1 106L1051.18 106L1051.18 70.6609L1012.1 70.6609L1012.1 106Z" fill="#303030"/>
<path d="M1167.76 106L1206.84 106L1206.84 70.6609L1167.76 70.6609L1167.76 106Z" fill="#303030"/>
<path d="M1323.42 106L1362.5 106L1362.5 70.6609L1323.42 70.6609L1323.42 106Z" fill="#303030"/>
<path d="M778.29 106L817.371 106L817.371 70.6609L778.29 70.6609L778.29 106Z" fill="#303030"/>
<path d="M933.952 106L973.033 106L973.033 70.6609L933.952 70.6609L933.952 106Z" fill="#303030"/>
<path d="M1089.6 106L1128.68 106L1128.68 70.6609L1089.6 70.6609L1089.6 106Z" fill="#303030"/>
<path d="M1245.26 106L1284.34 106L1284.34 70.6609L1245.26 70.6609L1245.26 106Z" fill="#303030"/>
<path d="M1400.92 106L1440 106L1440 70.6609L1400.92 70.6609L1400.92 106Z" fill="#303030"/>
<path d="M700.771 70.6609L739.852 70.6609L739.852 35.3218L700.771 35.3218L700.771 70.6609Z" fill="#181818"/>
<path d="M856.434 70.6609L895.514 70.6609L895.514 35.3218L856.434 35.3218L856.434 70.6609Z" fill="#181818"/>
<path d="M1012.1 70.6609L1051.18 70.6609L1051.18 35.3218L1012.1 35.3218L1012.1 70.6609Z" fill="#181818"/>
<path d="M1167.76 70.661L1206.84 70.661L1206.84 35.3219L1167.76 35.3219L1167.76 70.661Z" fill="#181818"/>
<path d="M1323.42 70.661L1362.5 70.661L1362.5 35.3219L1323.42 35.3219L1323.42 70.661Z" fill="#181818"/>
<path d="M778.29 70.6609L817.371 70.6609L817.371 35.3218L778.29 35.3218L778.29 70.6609Z" fill="#181818"/>
<path d="M933.953 70.6609L973.033 70.6609L973.033 35.3218L933.953 35.3218L933.953 70.6609Z" fill="#181818"/>
<path d="M1089.6 70.6609L1128.68 70.6609L1128.68 35.3218L1089.6 35.3218L1089.6 70.6609Z" fill="#181818"/>
<path d="M1245.26 70.661L1284.34 70.661L1284.34 35.3219L1245.26 35.3219L1245.26 70.661Z" fill="#181818"/>
<path d="M1400.92 70.661L1440 70.661L1440 35.3219L1400.92 35.3219L1400.92 70.661Z" fill="#181818"/>
<path d="M700.771 35.3391L739.852 35.3391L739.852 4.95911e-05L700.771 4.61745e-05L700.771 35.3391Z" fill="#303030"/>
<path d="M856.434 35.3391L895.514 35.3391L895.514 4.95911e-05L856.434 4.61745e-05L856.434 35.3391Z" fill="#303030"/>
<path d="M1012.1 35.3391L1051.18 35.3391L1051.18 4.95911e-05L1012.1 4.61745e-05L1012.1 35.3391Z" fill="#303030"/>
<path d="M1167.76 35.3391L1206.84 35.3391L1206.84 4.95911e-05L1167.76 4.61745e-05L1167.76 35.3391Z" fill="#303030"/>
<path d="M1323.42 35.3391L1362.5 35.3391L1362.5 4.95911e-05L1323.42 4.61745e-05L1323.42 35.3391Z" fill="#303030"/>
<path d="M778.29 35.3391L817.371 35.3391L817.371 4.95911e-05L778.29 4.61745e-05L778.29 35.3391Z" fill="#303030"/>
<path d="M933.953 35.3391L973.033 35.3391L973.033 4.95911e-05L933.953 4.61745e-05L933.953 35.3391Z" fill="#303030"/>
<path d="M1089.6 35.3391L1128.68 35.3391L1128.68 4.95911e-05L1089.6 4.61745e-05L1089.6 35.3391Z" fill="#303030"/>
<path d="M1245.26 35.3391L1284.34 35.3391L1284.34 4.95911e-05L1245.26 4.61745e-05L1245.26 35.3391Z" fill="#303030"/>
<path d="M39.081 106L78.1619 106L78.1619 70.6608L39.081 70.6608L39.081 106Z" fill="#181818"/>
<path d="M194.724 106L233.805 106L233.805 70.6608L194.724 70.6608L194.724 106Z" fill="#181818"/>
<path d="M350.386 106L389.467 106L389.467 70.6608L350.386 70.6608L350.386 106Z" fill="#181818"/>
<path d="M506.047 106L545.128 106L545.128 70.6608L506.047 70.6608L506.047 106Z" fill="#181818"/>
<path d="M661.71 106L700.791 106L700.791 70.6608L661.71 70.6608L661.71 106Z" fill="#181818"/>
<path d="M39.081 70.6609L78.1619 70.6609L78.1619 35.3218L39.081 35.3218L39.081 70.6609Z" fill="#303030"/>
<path d="M194.724 70.6609L233.805 70.6609L233.805 35.3218L194.724 35.3218L194.724 70.6609Z" fill="#303030"/>
<path d="M350.386 70.6609L389.467 70.6609L389.467 35.3218L350.386 35.3218L350.386 70.6609Z" fill="#303030"/>
<path d="M506.047 70.6609L545.128 70.6609L545.128 35.3218L506.047 35.3218L506.047 70.6609Z" fill="#303030"/>
<path d="M661.71 70.6609L700.791 70.6609L700.791 35.3218L661.71 35.3218L661.71 70.6609Z" fill="#303030"/>
<path d="M39.081 35.339L78.1619 35.339L78.1619 -7.24792e-05L39.081 -7.58958e-05L39.081 35.339Z" fill="#181818"/>
<path d="M194.724 35.339L233.805 35.339L233.805 -7.24792e-05L194.724 -7.58958e-05L194.724 35.339Z" fill="#181818"/>
<path d="M350.386 35.3391L389.467 35.3391L389.467 4.95911e-05L350.386 4.61745e-05L350.386 35.3391Z" fill="#181818"/>
<path d="M506.047 35.3391L545.128 35.3391L545.128 4.95911e-05L506.047 4.61745e-05L506.047 35.3391Z" fill="#181818"/>
<path d="M661.71 35.3391L700.791 35.3391L700.791 4.95911e-05L661.71 4.61745e-05L661.71 35.3391Z" fill="#181818"/>
<path d="M116.581 106L155.662 106L155.662 70.6608L116.581 70.6608L116.581 106Z" fill="#181818"/>
<path d="M272.243 106L311.324 106L311.324 70.6608L272.243 70.6608L272.243 106Z" fill="#181818"/>
<path d="M427.905 106L466.986 106L466.986 70.6608L427.905 70.6608L427.905 106Z" fill="#181818"/>
<path d="M583.547 106L622.628 106L622.628 70.6608L583.547 70.6608L583.547 106Z" fill="#181818"/>
<path d="M116.581 70.6609L155.662 70.6609L155.662 35.3218L116.581 35.3218L116.581 70.6609Z" fill="#303030"/>
<path d="M272.243 70.6609L311.324 70.6609L311.324 35.3218L272.243 35.3218L272.243 70.6609Z" fill="#303030"/>
<path d="M427.905 70.6609L466.986 70.6609L466.986 35.3218L427.905 35.3218L427.905 70.6609Z" fill="#303030"/>
<path d="M583.548 70.6609L622.629 70.6609L622.629 35.3218L583.548 35.3218L583.548 70.6609Z" fill="#303030"/>
<path d="M116.581 35.339L155.662 35.339L155.662 -7.24792e-05L116.581 -7.58958e-05L116.581 35.339Z" fill="#181818"/>
<path d="M272.243 35.3391L311.324 35.3391L311.324 4.95911e-05L272.243 4.61745e-05L272.243 35.3391Z" fill="#181818"/>
<path d="M427.905 35.3391L466.986 35.3391L466.986 4.95911e-05L427.905 4.61745e-05L427.905 35.3391Z" fill="#181818"/>
<path d="M583.548 35.3391L622.629 35.3391L622.629 4.95911e-05L583.548 4.61745e-05L583.548 35.3391Z" fill="#181818"/>
<path d="M0.000179291 106L39.0811 106L39.0811 70.6608L0.00018238 70.6608L0.000179291 106Z" fill="#303030"/>
<path d="M155.662 106L194.743 106L194.743 70.6608L155.662 70.6608L155.662 106Z" fill="#303030"/>
<path d="M311.324 106L350.405 106L350.405 70.6608L311.324 70.6608L311.324 106Z" fill="#303030"/>
<path d="M466.967 106L506.048 106L506.048 70.6608L466.967 70.6608L466.967 106Z" fill="#303030"/>
<path d="M622.628 106L661.709 106L661.709 70.6608L622.628 70.6608L622.628 106Z" fill="#303030"/>
<path d="M77.5002 106L116.581 106L116.581 70.6608L77.5002 70.6608L77.5002 106Z" fill="#303030"/>
<path d="M233.162 106L272.243 106L272.243 70.6608L233.162 70.6608L233.162 106Z" fill="#303030"/>
<path d="M388.824 106L427.905 106L427.905 70.6608L388.824 70.6608L388.824 106Z" fill="#303030"/>
<path d="M544.486 106L583.567 106L583.567 70.6608L544.486 70.6608L544.486 106Z" fill="#303030"/>
<path d="M0.000179291 70.6609L39.0811 70.6609L39.0811 35.3218L0.00018238 35.3218L0.000179291 70.6609Z" fill="#181818"/>
<path d="M155.662 70.6609L194.743 70.6609L194.743 35.3218L155.662 35.3218L155.662 70.6609Z" fill="#181818"/>
<path d="M311.324 70.6609L350.405 70.6609L350.405 35.3218L311.324 35.3218L311.324 70.6609Z" fill="#181818"/>
<path d="M466.967 70.6609L506.048 70.6609L506.048 35.3218L466.967 35.3218L466.967 70.6609Z" fill="#181818"/>
<path d="M622.628 70.6609L661.709 70.6609L661.709 35.3218L622.628 35.3218L622.628 70.6609Z" fill="#181818"/>
<path d="M77.5002 70.6609L116.581 70.6609L116.581 35.3218L77.5002 35.3218L77.5002 70.6609Z" fill="#181818"/>
<path d="M233.162 70.6609L272.243 70.6609L272.243 35.3218L233.162 35.3218L233.162 70.6609Z" fill="#181818"/>
<path d="M388.824 70.6609L427.905 70.6609L427.905 35.3218L388.824 35.3218L388.824 70.6609Z" fill="#181818"/>
<path d="M544.486 70.6609L583.567 70.6609L583.567 35.3218L544.486 35.3218L544.486 70.6609Z" fill="#181818"/>
<path d="M0.000179291 35.339L39.0811 35.339L39.0811 -7.24792e-05L0.00018238 -7.58958e-05L0.000179291 35.339Z" fill="#303030"/>
<path d="M155.662 35.339L194.743 35.339L194.743 -7.24792e-05L155.662 -7.58958e-05L155.662 35.339Z" fill="#303030"/>
<path d="M311.324 35.3391L350.405 35.3391L350.405 4.95911e-05L311.324 4.61745e-05L311.324 35.3391Z" fill="#303030"/>
<path d="M466.967 35.3391L506.048 35.3391L506.048 4.95911e-05L466.967 4.61745e-05L466.967 35.3391Z" fill="#303030"/>
<path d="M622.628 35.3391L661.709 35.3391L661.709 4.95911e-05L622.628 4.61745e-05L622.628 35.3391Z" fill="#303030"/>
<path d="M77.5002 35.339L116.581 35.339L116.581 -7.24792e-05L77.5002 -7.58958e-05L77.5002 35.339Z" fill="#303030"/>
<path d="M233.162 35.339L272.243 35.339L272.243 -7.24792e-05L233.162 -7.58958e-05L233.162 35.339Z" fill="#303030"/>
<path d="M388.824 35.3391L427.905 35.3391L427.905 4.95911e-05L388.824 4.61745e-05L388.824 35.3391Z" fill="#303030"/>
<path d="M544.486 35.3391L583.567 35.3391L583.567 4.95911e-05L544.486 4.61745e-05L544.486 35.3391Z" fill="#303030"/>
<path d="M1400.92 35.3391L1440 35.3391L1440 4.95911e-05L1400.92 4.61745e-05L1400.92 35.3391Z" fill="#303030"/>
</g>
<defs>
<linearGradient id="paint0_linear_540_3981" x1="2160" y1="118" x2="2160" y2="236" gradientUnits="userSpaceOnUse">
<stop stop-color="white" stop-opacity="0"/>
<stop offset="1" stop-color="white"/>
</linearGradient>
</defs>
</svg>
