<svg width="1440" height="118" viewBox="0 0 1440 118" fill="none" xmlns="http://www.w3.org/2000/svg">
<g clip-path="url(#clip0_540_3753)">
<mask id="mask0_540_3753" style="mask-type:alpha" maskUnits="userSpaceOnUse" x="0" y="0" width="1440" height="118">
<rect width="1440" height="118" fill="url(#paint0_linear_540_3753)"/>
</mask>
<g mask="url(#mask0_540_3753)">
<path d="M700.148 0H661.067V39.3397H700.148V0Z" fill="#181818"/>
<path d="M544.486 0H505.405V39.3397H544.486V0Z" fill="#181818"/>
<path d="M388.824 0H349.743V39.3397H388.824V0Z" fill="#181818"/>
<path d="M233.181 0H194.1V39.3397H233.181V0Z" fill="#181818"/>
<path d="M77.5189 0H38.438V39.3397H77.5189V0Z" fill="#181818"/>
<path d="M700.148 39.3398H661.067V78.6795H700.148V39.3398Z" fill="#303030"/>
<path d="M544.486 39.3398H505.405V78.6795H544.486V39.3398Z" fill="#303030"/>
<path d="M388.824 39.3398H349.743V78.6795H388.824V39.3398Z" fill="#303030"/>
<path d="M233.181 39.3398H194.1V78.6795H233.181V39.3398Z" fill="#303030"/>
<path d="M77.5189 39.3398H38.438V78.6795H77.5189V39.3398Z" fill="#303030"/>
<path d="M700.148 78.6602H661.067V118H700.148V78.6602Z" fill="#181818"/>
<path d="M544.486 78.6602H505.405V118H544.486V78.6602Z" fill="#181818"/>
<path d="M388.824 78.6602H349.743V118H388.824V78.6602Z" fill="#181818"/>
<path d="M233.181 78.6602H194.1V118H233.181V78.6602Z" fill="#181818"/>
<path d="M77.5189 78.6602H38.438V118H77.5189V78.6602Z" fill="#181818"/>
<path d="M622.647 0H583.566V39.3397H622.647V0Z" fill="#181818"/>
<path d="M466.986 0H427.905V39.3397H466.986V0Z" fill="#181818"/>
<path d="M311.324 0H272.243V39.3397H311.324V0Z" fill="#181818"/>
<path d="M155.662 0H116.581V39.3397H155.662V0Z" fill="#181818"/>
<path d="M622.647 39.3398H583.566V78.6795H622.647V39.3398Z" fill="#303030"/>
<path d="M466.986 39.3398H427.905V78.6795H466.986V39.3398Z" fill="#303030"/>
<path d="M311.324 39.3398H272.243V78.6795H311.324V39.3398Z" fill="#303030"/>
<path d="M155.662 39.3398H116.581V78.6795H155.662V39.3398Z" fill="#303030"/>
<path d="M622.647 78.6602H583.566V118H622.647V78.6602Z" fill="#181818"/>
<path d="M466.986 78.6602H427.905V118H466.986V78.6602Z" fill="#181818"/>
<path d="M311.324 78.6602H272.243V118H311.324V78.6602Z" fill="#181818"/>
<path d="M155.662 78.6602H116.581V118H155.662V78.6602Z" fill="#181818"/>
<path d="M739.229 0H700.148V39.3397H739.229V0Z" fill="#303030"/>
<path d="M583.566 0H544.486V39.3397H583.566V0Z" fill="#303030"/>
<path d="M427.905 0H388.824V39.3397H427.905V0Z" fill="#303030"/>
<path d="M272.243 0H233.162V39.3397H272.243V0Z" fill="#303030"/>
<path d="M116.581 0H77.5V39.3397H116.581V0Z" fill="#303030"/>
<path d="M661.71 0H622.629V39.3397H661.71V0Z" fill="#303030"/>
<path d="M506.048 0H466.967V39.3397H506.048V0Z" fill="#303030"/>
<path d="M350.405 0H311.324V39.3397H350.405V0Z" fill="#303030"/>
<path d="M194.743 0H155.662V39.3397H194.743V0Z" fill="#303030"/>
<path d="M39.0809 0H0V39.3397H39.0809V0Z" fill="#303030"/>
<path d="M739.229 39.3398H700.148V78.6795H739.229V39.3398Z" fill="#181818"/>
<path d="M583.566 39.3398H544.486V78.6795H583.566V39.3398Z" fill="#181818"/>
<path d="M427.905 39.3398H388.824V78.6795H427.905V39.3398Z" fill="#181818"/>
<path d="M272.243 39.3398H233.162V78.6795H272.243V39.3398Z" fill="#181818"/>
<path d="M116.581 39.3398H77.5V78.6795H116.581V39.3398Z" fill="#181818"/>
<path d="M661.71 39.3398H622.629V78.6795H661.71V39.3398Z" fill="#181818"/>
<path d="M506.048 39.3398H466.967V78.6795H506.048V39.3398Z" fill="#181818"/>
<path d="M350.405 39.3398H311.324V78.6795H350.405V39.3398Z" fill="#181818"/>
<path d="M194.743 39.3398H155.662V78.6795H194.743V39.3398Z" fill="#181818"/>
<path d="M39.0809 39.3398H0V78.6795H39.0809V39.3398Z" fill="#181818"/>
<path d="M739.229 78.6602H700.148V118H739.229V78.6602Z" fill="#303030"/>
<path d="M583.566 78.6602H544.486V118H583.566V78.6602Z" fill="#303030"/>
<path d="M427.905 78.6602H388.824V118H427.905V78.6602Z" fill="#303030"/>
<path d="M272.243 78.6602H233.162V118H272.243V78.6602Z" fill="#303030"/>
<path d="M116.581 78.6602H77.5V118H116.581V78.6602Z" fill="#303030"/>
<path d="M661.71 78.6602H622.629V118H661.71V78.6602Z" fill="#303030"/>
<path d="M506.048 78.6602H466.967V118H506.048V78.6602Z" fill="#303030"/>
<path d="M350.405 78.6602H311.324V118H350.405V78.6602Z" fill="#303030"/>
<path d="M194.743 78.6602H155.662V118H194.743V78.6602Z" fill="#303030"/>
<path d="M1400.92 0H1361.84V39.3397H1400.92V0Z" fill="#181818"/>
<path d="M1245.28 0H1206.2V39.3397H1245.28V0Z" fill="#181818"/>
<path d="M1089.61 0H1050.53V39.3397H1089.61V0Z" fill="#181818"/>
<path d="M933.953 0H894.872V39.3397H933.953V0Z" fill="#181818"/>
<path d="M778.29 0H739.209V39.3397H778.29V0Z" fill="#181818"/>
<path d="M1400.92 39.3398H1361.84V78.6795H1400.92V39.3398Z" fill="#303030"/>
<path d="M1245.28 39.3398H1206.2V78.6795H1245.28V39.3398Z" fill="#303030"/>
<path d="M1089.61 39.3398H1050.53V78.6795H1089.61V39.3398Z" fill="#303030"/>
<path d="M933.953 39.3398H894.872V78.6795H933.953V39.3398Z" fill="#303030"/>
<path d="M778.29 39.3398H739.209V78.6795H778.29V39.3398Z" fill="#303030"/>
<path d="M1400.92 78.6602H1361.84V118H1400.92V78.6602Z" fill="#181818"/>
<path d="M1245.28 78.6602H1206.2V118H1245.28V78.6602Z" fill="#181818"/>
<path d="M1089.61 78.6602H1050.53V118H1089.61V78.6602Z" fill="#181818"/>
<path d="M933.953 78.6602H894.872V118H933.953V78.6602Z" fill="#181818"/>
<path d="M778.29 78.6602H739.209V118H778.29V78.6602Z" fill="#181818"/>
<path d="M1323.42 0H1284.34V39.3397H1323.42V0Z" fill="#181818"/>
<path d="M1167.76 0H1128.68V39.3397H1167.76V0Z" fill="#181818"/>
<path d="M1012.1 0H973.014V39.3397H1012.1V0Z" fill="#181818"/>
<path d="M856.453 0H817.372V39.3397H856.453V0Z" fill="#181818"/>
<path d="M1323.42 39.3398H1284.34V78.6795H1323.42V39.3398Z" fill="#303030"/>
<path d="M1167.76 39.3398H1128.68V78.6795H1167.76V39.3398Z" fill="#303030"/>
<path d="M1012.1 39.3398H973.014V78.6795H1012.1V39.3398Z" fill="#303030"/>
<path d="M856.453 39.3398H817.372V78.6795H856.453V39.3398Z" fill="#303030"/>
<path d="M1323.42 78.6602H1284.34V118H1323.42V78.6602Z" fill="#181818"/>
<path d="M1167.76 78.6602H1128.68V118H1167.76V78.6602Z" fill="#181818"/>
<path d="M1012.1 78.6602H973.014V118H1012.1V78.6602Z" fill="#181818"/>
<path d="M856.453 78.6602H817.372V118H856.453V78.6602Z" fill="#181818"/>
<path d="M1440 0H1400.92V39.3397H1440V0Z" fill="#303030"/>
<path d="M1284.34 0H1245.26V39.3397H1284.34V0Z" fill="#303030"/>
<path d="M1128.68 0H1089.6V39.3397H1128.68V0Z" fill="#303030"/>
<path d="M973.033 0H933.952V39.3397H973.033V0Z" fill="#303030"/>
<path d="M817.372 0H778.291V39.3397H817.372V0Z" fill="#303030"/>
<path d="M1362.5 0H1323.42V39.3397H1362.5V0Z" fill="#303030"/>
<path d="M1206.84 0H1167.76V39.3397H1206.84V0Z" fill="#303030"/>
<path d="M1051.18 0H1012.1V39.3397H1051.18V0Z" fill="#303030"/>
<path d="M895.514 0H856.433V39.3397H895.514V0Z" fill="#303030"/>
<path d="M1440 39.3398H1400.92V78.6795H1440V39.3398Z" fill="#181818"/>
<path d="M1284.34 39.3398H1245.26V78.6795H1284.34V39.3398Z" fill="#181818"/>
<path d="M1128.68 39.3398H1089.6V78.6795H1128.68V39.3398Z" fill="#181818"/>
<path d="M973.033 39.3398H933.952V78.6795H973.033V39.3398Z" fill="#181818"/>
<path d="M817.372 39.3398H778.291V78.6795H817.372V39.3398Z" fill="#181818"/>
<path d="M1362.5 39.3398H1323.42V78.6795H1362.5V39.3398Z" fill="#181818"/>
<path d="M1206.84 39.3398H1167.76V78.6795H1206.84V39.3398Z" fill="#181818"/>
<path d="M1051.18 39.3398H1012.1V78.6795H1051.18V39.3398Z" fill="#181818"/>
<path d="M895.514 39.3398H856.433V78.6795H895.514V39.3398Z" fill="#181818"/>
<path d="M1440 78.6602H1400.92V118H1440V78.6602Z" fill="#303030"/>
<path d="M1284.34 78.6602H1245.26V118H1284.34V78.6602Z" fill="#303030"/>
<path d="M1128.68 78.6602H1089.6V118H1128.68V78.6602Z" fill="#303030"/>
<path d="M973.033 78.6602H933.952V118H973.033V78.6602Z" fill="#303030"/>
<path d="M817.372 78.6602H778.291V118H817.372V78.6602Z" fill="#303030"/>
<path d="M1362.5 78.6602H1323.42V118H1362.5V78.6602Z" fill="#303030"/>
<path d="M1206.84 78.6602H1167.76V118H1206.84V78.6602Z" fill="#303030"/>
<path d="M1051.18 78.6602H1012.1V118H1051.18V78.6602Z" fill="#303030"/>
<path d="M895.514 78.6602H856.433V118H895.514V78.6602Z" fill="#303030"/>
<path d="M39.0809 78.6602H0V118H39.0809V78.6602Z" fill="#303030"/>
</g>
</g>
<defs>
<linearGradient id="paint0_linear_540_3753" x1="720" y1="0" x2="720" y2="118" gradientUnits="userSpaceOnUse">
<stop stop-color="white" stop-opacity="0"/>
<stop offset="1" stop-color="white"/>
</linearGradient>
<clipPath id="clip0_540_3753">
<rect width="1440" height="118" fill="white"/>
</clipPath>
</defs>
</svg>
