<svg width="380" height="74" viewBox="0 0 380 74" fill="none" xmlns="http://www.w3.org/2000/svg">
<mask id="mask0_210_2982" style="mask-type:alpha" maskUnits="userSpaceOnUse" x="0" y="0" width="380" height="74">
<path d="M77.4874 0.0732422L50.6816 73.3744H65.1329L71.1019 57.1478H96.8629L102.832 73.3744H117.283L90.4701 0.0732422H77.4874ZM90.945 46.4518H77.1148L73.5641 42.8864L83.7486 18.594L94.5031 42.8864L90.9523 46.4518H90.945Z" fill="white"/>
<path d="M45.8671 0H0V12.1134H21.8815V73.3669H36.1282V12.1134H45.8671V0Z" fill="white"/>
<path d="M139.369 0.0732422H125.13V73.3744H139.369V0.0732422Z" fill="white"/>
<path d="M221.781 0.0732422L212.875 51.7998H212.459L198.219 0.0732422H187.538L172.984 51.7998H172.561L163.662 0.0732422H149.32L164.502 73.3671H177.799L192.667 21.8524H193.091L207.644 73.3671H220.941L236.123 0.0732422H221.781Z" fill="white"/>
<path d="M261.358 0.0732422L234.552 73.3744H249.003L254.972 57.1478H280.733L286.702 73.3744H301.154L274.341 0.0732422H261.358ZM274.815 46.4518H260.985L257.434 42.8864L267.619 18.594L278.373 42.8864L274.823 46.4518H274.815Z" fill="white"/>
<path d="M380 0.0732422H367.85V12.2231H380V0.0732422Z" fill="white"/>
<path d="M322.202 0.0732422H308.481V73.3744H322.202V0.0732422Z" fill="white"/>
<path d="M354.137 61.2245L334.345 0.0732422H322.195L348.16 73.3671H354.137H367.85V12.2158H354.137V61.2245Z" fill="white"/>
<path d="M58.0463 12.1138H45.8672V24.2929H58.0463V12.1138Z" fill="white"/>
</mask>
<g mask="url(#mask0_210_2982)">
<rect x="-3" y="-4" width="393" height="82" fill="white"/>
</g>
</svg>
