<svg width="814" height="178" viewBox="0 0 814 178" fill="none" xmlns="http://www.w3.org/2000/svg">
<path d="M488.259 104H474V177.37H488.259V159.024H500.419V146.871H488.259V104Z" fill="white"/>
<path d="M519.277 134.711H500.419V146.864H519.277V177.37H533.528V104H519.277V134.711Z" fill="white"/>
<path d="M558.155 104.007L546.105 116.057V165.312L558.155 177.362H595.886L607.936 165.312V116.057L595.886 104.007H558.155ZM593.685 159.865L588.34 165.21H565.702L560.356 159.865V121.505L565.702 116.16H588.34L593.685 121.505V159.865Z" fill="white"/>
<path d="M665.995 159.865L660.65 165.21H640.11L634.765 159.865V116.16H646.866V104.007H634.706V115.758H620.513V164.786L633.09 177.362H667.677L680.246 164.786V104.007H665.995V159.865Z" fill="white"/>
<path d="M710.014 133.87L706.555 130.411V119.618L710.014 116.16H730.766L734.217 119.618V125.907H748.264V115.319L736.945 104.007H703.828L692.509 115.319V134.711L703.828 146.03H731.599L735.058 149.489V161.641L731.497 165.21H709.802L706.343 161.751V155.565H692.304V166.043L703.616 177.362H737.573L749.105 165.839V145.189L737.785 133.87H710.014Z" fill="white"/>
<path d="M813.656 116.057V104.007H760.628V165.312H774.88V146.447H810.622V134.608H774.88V116.057H813.656Z" fill="white"/>
<path d="M813.656 165.312H774.88V177.363H813.656V165.312Z" fill="white"/>
<path d="M63.4935 135.025V114.485L53.0079 104.007H7V165.422H20.9369V146.14H48.1819L52.6862 150.644V160.917L48.1819 165.422H20.9369V177.37H55.4136L66.7328 166.05V146.871L59.289 139.325L63.4789 135.025H63.4935ZM49.4469 130.938L45.6739 134.711H20.9369V115.948H45.7762L49.4469 119.618V130.938Z" fill="white"/>
<path d="M165.351 104.007H151.1V177.37H165.351V104.007Z" fill="white"/>
<path d="M193.752 104.007H179.5V165.312H193.752V104.007Z" fill="white"/>
<path d="M228.155 165.312H193.752V177.363H228.155V165.312Z" fill="white"/>
<path d="M238.29 104.007V165.21H252.549V116.16H278.222L283.567 121.505V159.864L278.222 165.21H252.549V177.362H285.241L297.818 164.786V116.577L285.241 104.007H238.29Z" fill="white"/>
<path d="M363.423 177.363V165.312H324.646L324.559 177.363H363.423Z" fill="white"/>
<path d="M310.395 165.21L324.646 165.312V146.447H360.381V134.608H324.646V116.057H363.423V104.007H310.395V165.21Z" fill="white"/>
<path d="M431.118 137.541V115.319L419.902 104H373.894V165.203H388.145V149.277H410.995L417.284 156.296V177.363H431.535V153.05L423.989 144.772L431.118 137.541ZM417.072 133.87L413.401 137.541H388.145V115.948H413.401L417.072 119.619V133.87Z" fill="white"/>
<path d="M400.312 165.21H388.152V177.37H400.312V165.21Z" fill="white"/>
<path d="M122.7 104.007V159.864L117.355 165.21H96.815L91.4698 159.864V116.16H103.403V104.007H91.2505V115.758H77.2185V164.786L89.7954 177.362H124.382L136.951 164.786V116.16V104.007H124.799H122.7Z" fill="white"/>
<path d="M77.4874 0.0732422L50.6816 73.3744H65.1329L71.1019 57.1478H96.8629L102.832 73.3744H117.283L90.4701 0.0732422H77.4874ZM90.945 46.4518H77.1148L73.5641 42.8864L83.7486 18.594L94.5031 42.8864L90.9523 46.4518H90.945Z" fill="white"/>
<path d="M45.8671 0H0V12.1134H21.8815V73.3669H36.1282V12.1134H45.8671V0Z" fill="white"/>
<path d="M139.369 0.0732422H125.13V73.3744H139.369V0.0732422Z" fill="white"/>
<path d="M221.781 0.0732422L212.875 51.7998H212.459L198.219 0.0732422H187.538L172.984 51.7998H172.561L163.662 0.0732422H149.32L164.502 73.3671H177.799L192.667 21.8524H193.091L207.644 73.3671H220.941L236.123 0.0732422H221.781Z" fill="white"/>
<path d="M261.358 0.0732422L234.552 73.3744H249.003L254.972 57.1478H280.733L286.702 73.3744H301.154L274.341 0.0732422H261.358ZM274.815 46.4518H260.985L257.434 42.8864L267.619 18.594L278.373 42.8864L274.823 46.4518H274.815Z" fill="white"/>
<path d="M380 0.0732422H367.85V12.2231H380V0.0732422Z" fill="white"/>
<path d="M322.202 0.0732422H308.481V73.3744H322.202V0.0732422Z" fill="white"/>
<path d="M354.137 61.2245L334.345 0.0732422H322.195L348.16 73.3671H354.137H367.85V12.2158H354.137V61.2245Z" fill="white"/>
<path d="M58.0463 12.1138H45.8672V24.2929H58.0463V12.1138Z" fill="white"/>
</svg>
