<svg width="213" height="140" viewBox="0 0 213 140" fill="none" xmlns="http://www.w3.org/2000/svg">
<path d="M11.0013 103.786H3.96338V140H11.0013V130.945H17.0033V124.946H11.0013V103.786Z" fill="white"/>
<path d="M26.3115 118.944H17.0034V124.943H26.3115V140H33.3458V103.786H26.3115V118.944Z" fill="white"/>
<path d="M45.5017 103.789L39.5537 109.737V134.048L45.5017 139.996H64.125L70.0729 134.048V109.737L64.125 103.789H45.5017ZM63.0387 131.36L60.4003 133.998H49.2263L46.588 131.36V112.426L49.2263 109.788H60.4003L63.0387 112.426V131.36Z" fill="white"/>
<path d="M98.7294 131.36L96.0911 133.998H85.9529L83.3146 131.36V109.788H89.2878V103.789H83.2857V109.589H76.2803V133.789L82.4881 139.996H99.5595L105.764 133.789V103.789H98.7294V131.36Z" fill="white"/>
<path d="M120.457 118.529L118.75 116.822V111.495L120.457 109.788H130.7L132.403 111.495V114.599H139.336V109.372L133.749 103.789H117.403L111.816 109.372V118.944L117.403 124.531H131.111L132.818 126.238V132.237L131.061 133.998H120.352L118.645 132.291V129.237H111.715V134.409L117.299 139.996H134.06L139.751 134.308V124.116L134.164 118.529H120.457Z" fill="white"/>
<path d="M171.613 109.737V103.789H145.439V134.048H152.474V124.737H170.115V118.893H152.474V109.737H171.613Z" fill="white"/>
<path d="M171.613 134.049H152.474V139.997H171.613V134.049Z" fill="white"/>
<path d="M31.3395 67.3877V57.2496L26.164 52.0776H3.45508V82.3911H10.3342V72.8737H23.7819L26.0052 75.0969V80.1678L23.7819 82.3911H10.3342V88.2885H27.3514L32.9384 82.7015V73.2346L29.2643 69.5099L31.3323 67.3877H31.3395ZM24.4063 65.3702L22.544 67.2326H10.3342V57.9714H22.5945L24.4063 59.7832V65.3702Z" fill="white"/>
<path d="M81.6153 52.0776H74.5811V88.2885H81.6153V52.0776Z" fill="white"/>
<path d="M95.6334 52.0776H88.5991V82.3369H95.6334V52.0776Z" fill="white"/>
<path d="M112.615 82.3372H95.6338V88.2851H112.615V82.3372Z" fill="white"/>
<path d="M117.617 52.0776V82.2864H124.655V58.0761H137.326L139.965 60.7144V79.6481L137.326 82.2864H124.655V88.2849H140.791L146.999 82.0771V58.2818L140.791 52.0776H117.617Z" fill="white"/>
<path d="M179.381 88.2851V82.3372H160.241L160.198 88.2851H179.381Z" fill="white"/>
<path d="M153.207 82.2864L160.241 82.3369V73.0253H177.879V67.182H160.241V58.0256H179.381V52.0776H153.207V82.2864Z" fill="white"/>
<path d="M212.794 68.6293V57.661L207.258 52.074H184.549V82.2828H191.583V74.422H202.862L205.966 77.8868V88.2848H213V76.2843L209.275 72.1987L212.794 68.6293ZM205.861 66.8174L204.049 68.6293H191.583V57.9714H204.049L205.861 59.7832V66.8174Z" fill="white"/>
<path d="M197.589 82.2864H191.587V88.2884H197.589V82.2864Z" fill="white"/>
<path d="M60.5628 52.0776V79.6481L57.9245 82.2864H47.7863L45.148 79.6481V58.0761H51.0382V52.0776H45.0398V57.8776H38.1138V82.0771L44.3216 88.2849H61.3929L67.5971 82.0771V58.0761V52.0776H61.5987H60.5628Z" fill="white"/>
<path d="M38.2466 0.776855L25.0156 36.9574H32.1486L35.0948 28.9481H47.8101L50.7563 36.9574H57.8893L44.6547 0.776855H38.2466ZM44.8891 23.6687H38.0627L36.3101 21.9089L41.3371 9.91845L46.6453 21.9089L44.8927 23.6687H44.8891Z" fill="white"/>
<path d="M22.6394 0.740967H0V6.71997H10.8004V36.9539H17.8324V6.71997H22.6394V0.740967Z" fill="white"/>
<path d="M68.7911 0.776855H61.7627V36.9574H68.7911V0.776855Z" fill="white"/>
<path d="M109.468 0.776855L105.073 26.3084H104.867L97.8386 0.776855H92.5664L85.383 26.3084H85.1738L80.7815 0.776855H73.7026L81.1962 36.9538H87.7594L95.0979 11.5268H95.3071L102.491 36.9538H109.054L116.547 0.776855H109.468Z" fill="white"/>
<path d="M129.003 0.776855L115.772 36.9574H122.905L125.851 28.9481H138.566L141.513 36.9574H148.646L135.411 0.776855H129.003ZM135.645 23.6687H128.819L127.066 21.9089L132.093 9.91845L137.402 21.9089L135.649 23.6687H135.645Z" fill="white"/>
<path d="M187.563 0.776855H181.566V6.77388H187.563V0.776855Z" fill="white"/>
<path d="M159.035 0.776855H152.262V36.9574H159.035V0.776855Z" fill="white"/>
<path d="M174.797 30.9603L165.028 0.776855H159.031L171.847 36.9538H174.797H181.566V6.77028H174.797V30.9603Z" fill="white"/>
<path d="M28.6511 6.71997H22.6396V12.7314H28.6511V6.71997Z" fill="white"/>
</svg>
