<svg width="547" height="182" viewBox="0 0 547 182" fill="none" xmlns="http://www.w3.org/2000/svg">
<mask id="mask0_326_1746" style="mask-type:alpha" maskUnits="userSpaceOnUse" x="207" y="108" width="340" height="74">
<path d="M221.259 108H207V181.37H221.259V163.024H233.419V150.871H221.259V108Z" fill="white"/>
<path d="M252.277 138.711H233.419V150.864H252.277V181.37H266.528V108H252.277V138.711Z" fill="white"/>
<path d="M291.155 108.007L279.105 120.057V169.312L291.155 181.362H328.886L340.936 169.312V120.057L328.886 108.007H291.155ZM326.685 163.865L321.34 169.21H298.702L293.356 163.865V125.505L298.702 120.16H321.34L326.685 125.505V163.865Z" fill="white"/>
<path d="M398.995 163.865L393.65 169.21H373.11L367.765 163.865V120.16H379.866V108.007H367.706V119.758H353.513V168.786L366.09 181.362H400.677L413.246 168.786V108.007H398.995V163.865Z" fill="white"/>
<path d="M443.014 137.87L439.555 134.411V123.618L443.014 120.16H463.766L467.217 123.618V129.907H481.264V119.319L469.944 108.007H436.828L425.508 119.319V138.711L436.828 150.03H464.599L468.058 153.489V165.641L464.497 169.21H442.802L439.343 165.751V159.565H425.304V170.043L436.616 181.362H470.573L482.104 169.839V149.189L470.785 137.87H443.014Z" fill="white"/>
<path d="M546.656 120.057V108.007H493.628V169.312H507.88V150.447H543.622V138.608H507.88V120.057H546.656Z" fill="white"/>
<path d="M546.656 169.312H507.88V181.363H546.656V169.312Z" fill="white"/>
</mask>
<g mask="url(#mask0_326_1746)">
<rect x="197" y="103.606" width="354" height="82" fill="white"/>
</g>
<mask id="mask1_326_1746" style="mask-type:alpha" maskUnits="userSpaceOnUse" x="0" y="0" width="425" height="74">
<path d="M56.4935 31.0251V10.4854L46.0079 0.00708008H0V61.4216H13.9369V42.1396H41.1819L45.6862 46.6438V56.9174L41.1819 61.4216H13.9369V73.3697H48.4136L59.7328 62.0505V42.8708L52.289 35.3247L56.4789 31.0251H56.4935ZM42.4469 26.9377L38.6739 30.7107H13.9369V11.9478H38.7762L42.4469 15.6185V26.9377Z" fill="white"/>
<path d="M158.351 0.00708008H144.1V73.3697H158.351V0.00708008Z" fill="white"/>
<path d="M186.752 0.00708008H172.5V61.312H186.752V0.00708008Z" fill="white"/>
<path d="M221.155 61.3125H186.752V73.3629H221.155V61.3125Z" fill="white"/>
<path d="M231.29 0.00708008V61.2096H245.549V12.1598H271.222L276.567 17.505V55.8644L271.222 61.2096H245.549V73.3624H278.241L290.818 60.7855V12.5766L278.241 0.00708008H231.29Z" fill="white"/>
<path d="M356.423 73.3629V61.3125H317.646L317.559 73.3629H356.423Z" fill="white"/>
<path d="M303.395 61.2096L317.646 61.312V42.4467H353.381V30.6083H317.646V12.0575H356.423V0.00708008H303.395V61.2096Z" fill="white"/>
<path d="M424.118 33.5407V11.3192L412.902 0H366.894V61.2025H381.145V45.2767H403.995L410.284 52.2964V73.3626H424.535V49.0498L416.989 40.7724L424.118 33.5407ZM410.072 29.87L406.401 33.5407H381.145V11.948H406.401L410.072 15.6187V29.87Z" fill="white"/>
<path d="M393.312 61.21H381.152V73.37H393.312V61.21Z" fill="white"/>
<path d="M115.7 0.00708008V55.8644L110.355 61.2096H89.815L84.4698 55.8644V12.1598H96.4032V0.00708008H84.2505V11.7577H70.2185V60.7855L82.7954 73.3624H117.382L129.951 60.7855V12.1598V0.00708008H117.799H115.7Z" fill="white"/>
</mask>
<g mask="url(#mask1_326_1746)">
<rect width="451" height="82" fill="white"/>
</g>
</svg>
